<svg xmlns="http://www.w3.org/2000/svg" viewBox="0 0 50 39.66"><defs><style>.cls-1{fill:#3f4244;}.cls-2{fill:#fff;}.cls-3{fill:#f4cd36;}</style></defs><title>Recurso 6_icon_</title><g id="Capa_2" data-name="Capa 2"><g id="Capa_1-2" data-name="Capa 1"><path class="cls-1" d="M46.07,28c.75,0,1.21,0,1.66,0,1.7-.16,2.36.63,2.26,2.3-.08,1.36,0,2.73,0,4.09,0,3.44-1.67,5.18-5.1,5.23s-6.63,0-9.95,0H5.84C1.51,39.64,0,38.11,0,33.78V30.66c0-2.5.12-2.6,2.68-2.65L3.91,28V25.86q0-11.22,0-22.44C3.91.84,4.7,0,7.25,0H42.76c2.54,0,3.31.84,3.31,3.45V28ZM43,3.13H7.07V28c3.57,0,7,0,10.44,0,.68,0,1.86.37,1.95.76.52,2.28,2.16,2,3.77,1.94s3.52.06,5.27-.05c.51,0,1.32-.46,1.42-.85C30.37,28.09,31.55,28,33,28c3.29.07,6.59,0,9.91,0ZM3,31.06v2.23c0,3.29,0,3.31,3.22,3.31H26c6.25,0,12.49,0,18.74,0,1.53,0,2.33-.53,2.25-2.15-.05-1.08,0-2.17,0-3.41-4.21,0-8.17,0-12.12,0-1.24,0-2.2,0-2.7,1.51-.2.59-1.4,1.15-2.16,1.18-3.31.13-6.64.16-9.94,0-.83,0-1.62-.94-2.39-1.5-.47-.33-.86-1.09-1.3-1.1C12,31,7.64,31.06,3,31.06Z"/><path class="cls-2" d="M43,3.13V28c-3.32,0-6.62,0-9.91,0-1.49,0-2.67.1-3.12,1.86-.1.39-.91.82-1.42.85-1.75.11-3.51,0-5.27.05s-3.25.34-3.77-1.94c-.09-.39-1.27-.75-1.95-.76-3.43-.08-6.87,0-10.44,0V3.13ZM25,7.22c-5.75.18-9.78,3.06-12.48,8a2.79,2.79,0,0,0,.11,2.31c2.71,4.7,6.72,7.64,12.25,7.69s9.69-2.91,12.45-7.68a2.8,2.8,0,0,0,.13-2.31C34.78,10.29,30.74,7.4,25,7.22Z"/><path class="cls-3" d="M25,7.22c5.74.18,9.78,3.07,12.46,8a2.8,2.8,0,0,1-.13,2.31c-2.76,4.77-6.82,7.72-12.45,7.68s-9.54-3-12.25-7.69a2.79,2.79,0,0,1-.11-2.31C15.22,10.28,19.25,7.4,25,7.22Zm.26,3.08a10.56,10.56,0,0,0-9.19,4.88,2.42,2.42,0,0,0,.08,2.16,10.58,10.58,0,0,0,17.7,0,2.35,2.35,0,0,0,0-2.16A10.33,10.33,0,0,0,25.26,10.3Z"/><path class="cls-1" d="M25.26,10.3a10.33,10.33,0,0,1,8.61,4.85,2.35,2.35,0,0,1,0,2.16,10.58,10.58,0,0,1-17.7,0,2.42,2.42,0,0,1-.08-2.16A10.56,10.56,0,0,1,25.26,10.3ZM28,16.1a3.14,3.14,0,0,0-3.08-2.89A3.12,3.12,0,0,0,22,16.28a3,3,0,0,0,6-.18Z"/><path class="cls-3" d="M28,16.1a3,3,0,0,1-6,.18,3.12,3.12,0,0,1,2.9-3.07A3.14,3.14,0,0,1,28,16.1Z"/></g></g></svg>