<svg xmlns="http://www.w3.org/2000/svg" viewBox="0 0 48 48"><defs><style>.cls-1{fill:#00599b;}</style></defs><title>Recurso 5_icon_</title><g id="Capa_2" data-name="Capa 2"><g id="Capa_1-2" data-name="Capa 1"><path class="cls-1" d="M24,48A24,24,0,1,1,48,24,24,24,0,0,1,24,48ZM24,3A21,21,0,1,0,45,24,21,21,0,0,0,24,3Z"/><path class="cls-1" d="M30.45,17v.32l0,.32c0,.16,0,.31-.06.47s-.07.33-.11.49a6.86,6.86,0,0,1-.32.9l-.06.13c-.06.14-.14.29-.21.42l-.08.13a6.41,6.41,0,0,1-1,1.33l-.12.11-.21.18-.14.11-.33.24-.05,0a4.92,4.92,0,0,1-.45.28c-.14.07-.28.15-.43.21h0a6.9,6.9,0,0,1-.9.33l-.2,0a7.39,7.39,0,0,1-1,.15h-1a7.39,7.39,0,0,1-1-.15l-.2,0a6.9,6.9,0,0,1-.9-.33h0c-.13-.06-.26-.12-.38-.19a5.09,5.09,0,0,1-.5-.3l-.05,0-.32-.24-.15-.11-.21-.18-.22-.22a6,6,0,0,1-.95-1.22.54.54,0,0,1-.07-.13c-.08-.13-.15-.28-.22-.42l-.06-.13a5.63,5.63,0,0,1-.31-.9,4.31,4.31,0,0,1-.11-.49c0-.16-.05-.31-.07-.47s0-.21,0-.32,0-.21,0-.32,0-.21,0-.32,0-.13,0-.19h0s0-.08,0-.12v-.12c0-.12,0-.23.05-.35s.07-.33.11-.49a7,7,0,0,1,.31-.91l0-.06,0-.06c.07-.15.14-.29.22-.43a.75.75,0,0,1,.07-.12,6.2,6.2,0,0,1,1.06-1.33l.11-.11.21-.18.15-.11a3.81,3.81,0,0,1,.32-.24l.05,0a5.81,5.81,0,0,1,.88-.49l0,0a6.86,6.86,0,0,1,.9-.32l.2,0a7.39,7.39,0,0,1,1-.15l.32,0h.32l.32,0a7.39,7.39,0,0,1,1,.15l.2,0a6.86,6.86,0,0,1,.9.32l0,0a5.37,5.37,0,0,1,.88.49l.05,0,.33.24.14.11.21.18.12.11a6.16,6.16,0,0,1,1,1.33l.08.12c.07.14.15.28.21.43l.06.12a7,7,0,0,1,.32.91c0,.16.08.33.11.49s.05.31.06.47a.71.71,0,0,1,0,.14c0,.06,0,.12,0,.17Z"/><path class="cls-1" d="M18,16.51Zm-.11-.06h0l.1.05,0,0Z"/><path class="cls-1" d="M17.92,16.45l.09,0-.08,0Z"/><polygon class="cls-1" points="18.03 16.51 18.03 16.51 18.03 16.51 18.03 16.51 18.03 16.51"/><path class="cls-1" d="M34.52,29.2v6.44c0,.14,0,.16-.12.16H14.07c-.13,0-.24,0-.24-.16V29.2c0-.1,0-.21,0-.31a6.26,6.26,0,0,1,1.65-4l.08-.09a5.84,5.84,0,0,1,1.66-1.22l.11-.06c.17-.08.35-.15.52-.21l.12,0a4.5,4.5,0,0,1,.49-.14,8.27,8.27,0,0,0,.63.55,8.61,8.61,0,0,0,1.82,1.09l.37.15a7.82,7.82,0,0,0,2.95.55,7.94,7.94,0,0,0,1.69-.17,1.55,1.55,0,0,1,.21,0h.31a2.39,2.39,0,0,0,.79-.32c.11,0,.21-.13.31-.17A7.49,7.49,0,0,0,29,23.93h0a.28.28,0,0,0,.15-.08,8.1,8.1,0,0,0,.85-.7,6.09,6.09,0,0,1,4.57,5.74C34.55,29,34.52,29.1,34.52,29.2Z"/></g></g></svg>