<svg xmlns="http://www.w3.org/2000/svg" viewBox="0 0 48 48"><defs><style>.cls-1{fill:#00599b;}</style></defs><title>Recurso 1_icon_</title><g id="Capa_2" data-name="Capa 2"><g id="Capa_1-2" data-name="Capa 1"><path class="cls-1" d="M24,48A24,24,0,1,1,48,24,24,24,0,0,1,24,48ZM24,3A21,21,0,1,0,45,24,21,21,0,0,0,24,3Z"/><path class="cls-1" d="M32,36.84V11.1h4.54V36.84Z"/><path class="cls-1" d="M29.31,36.87H24.82V18.43h4.49Z"/><path class="cls-1" d="M25.71,10.57,24.22,9.2l6.14-1.14-.68,6.07-1.42-1.24A43.85,43.85,0,0,1,7.74,25.73C14.53,21.66,21,17.15,25.71,10.57Z"/><path class="cls-1" d="M22.18,36.87H17.65V23.3h4.53Z"/><path class="cls-1" d="M10.5,28.21H15v8.64H10.5Z"/></g></g></svg>