<svg xmlns="http://www.w3.org/2000/svg" viewBox="0 0 48 48"><defs><style>.cls-1{fill:#00599b;}</style></defs><title>Recurso 3_icon_</title><g id="Capa_2" data-name="Capa 2"><g id="Capa_1-2" data-name="Capa 1"><path class="cls-1" d="M24,48A24,24,0,1,1,48,24,24,24,0,0,1,24,48ZM24,3A21,21,0,1,0,45,24,21,21,0,0,0,24,3Z"/><path class="cls-1" d="M36.92,15.77a.44.44,0,0,0-.41-.48,32.74,32.74,0,0,1-12-5.61.58.58,0,0,0-.33-.13h0a.69.69,0,0,0-.33.14c-1.28.83-2.55,1.7-3.88,2.44a30.69,30.69,0,0,1-8.47,3.28c-.21,0-.36.1-.37.41a30.57,30.57,0,0,0,.58,7.27,25,25,0,0,0,.84,3.09h0l0,0a28.41,28.41,0,0,0,5.24,9.31,28.85,28.85,0,0,0,6.19,5.63v0a29.74,29.74,0,0,0,9.41-10.18,26.41,26.41,0,0,0,2.12-4.74h0A29,29,0,0,0,36.92,15.77Z"/></g></g></svg>