<svg xmlns="http://www.w3.org/2000/svg" viewBox="0 0 48 48"><defs><style>.cls-1{fill:#00599b;}</style></defs><title>Recurso 2_icon_</title><g id="Capa_2" data-name="Capa 2"><g id="Capa_1-2" data-name="Capa 1"><path class="cls-1" d="M24,48A24,24,0,1,1,48,24,24,24,0,0,1,24,48ZM24,3A21,21,0,1,0,45,24,21,21,0,0,0,24,3Z"/><path class="cls-1" d="M38.81,21.84l-8,5.79,3,9.38a1.22,1.22,0,0,1-1.17,1.61,1.19,1.19,0,0,1-.72-.23l-8-5.8-8,5.8A1.23,1.23,0,0,1,14.12,37l3.05-9.38-8-5.79a1.24,1.24,0,0,1,.73-2.23h9.86l3-9.38a1.23,1.23,0,0,1,2.34,0l3,9.38h9.86a1.23,1.23,0,0,1,.73,2.23Z"/></g></g></svg>