<svg xmlns="http://www.w3.org/2000/svg" viewBox="0 0 48 48"><defs><style>.cls-1,.cls-2{fill:#00599b;}.cls-2{stroke:#fff;stroke-miterlimit:10;stroke-width:0.25px;}.cls-3{fill:#fff;}</style></defs><title>Recurso 4_icon_</title><g id="Capa_2" data-name="Capa 2"><g id="Capa_1-2" data-name="Capa 1"><path class="cls-1" d="M24,48A24,24,0,1,1,48,24,24,24,0,0,1,24,48ZM24,3A21,21,0,1,0,45,24,21,21,0,0,0,24,3Z"/><path class="cls-1" d="M38.51,22.12a8.55,8.55,0,0,0-8.12-8.93A8.12,8.12,0,0,0,24.12,16,8.07,8.07,0,0,0,18,12.93a8.55,8.55,0,0,0-8.49,8.59,9.24,9.24,0,0,0,.68,3.66c2.17,8.31,13.29,13.25,13.29,13.25A21.56,21.56,0,0,0,37.07,26.85,9.09,9.09,0,0,0,38.51,22.12Z"/><circle class="cls-2" cx="32.14" cy="33.62" r="5.99"/><path class="cls-3" d="M33.61,29.31H30.67v2.76H28.08v3.09h2.59v2.76h2.94V35.16H36.2V32.07H33.61Zm.8,3.46H35.5v1.69H32.91v2.76H31.37V34.46H28.78V32.77h2.59V30h1.54v2.76Z"/></g></g></svg>