<svg xmlns="http://www.w3.org/2000/svg" viewBox="0 0 50.03 52"><defs><style>.cls-1{fill:#f4cd36;}.cls-2{fill:#3f4244;}.cls-3{fill:#fff;}</style></defs><title>Recurso 22_icon_</title><g id="Capa_2" data-name="Capa 2"><g id="Capa_1-2" data-name="Capa 1"><path class="cls-1" d="M22.78,46.29l-5.86-3S4.46,38.77.67,26.49V0H45.8V19.75C44.65,34.9,41.71,38.09,22.78,46.29Z"/><path class="cls-2" d="M23.08,47.1a.66.66,0,0,1-.3-.07l-9-4.49C5.24,38.25.08,31,0,23.06a1.1,1.1,0,0,1,0-.16V.67A.67.67,0,0,1,.67,0H45.49a.67.67,0,0,1,.67.67V23c-.07,8-5.23,15.24-13.82,19.53l-9,4.49A.63.63,0,0,1,23.08,47.1ZM1.34,1.34V23c.07,7.4,5,14.25,13.08,18.31l8.66,4.34,8.67-4.34c8.12-4.07,13-10.91,13.07-18.31V1.34Z"/><path class="cls-2" d="M5,5a.71.71,0,0,1-.48-.19l-.08-.11-.06-.11a.5.5,0,0,1,0-.13s0-.08,0-.13,0-.08,0-.12a.5.5,0,0,1,0-.13l.06-.12.08-.1a.7.7,0,0,1,1,0,.39.39,0,0,1,.08.1.34.34,0,0,1,.06.12.28.28,0,0,1,0,.13.4.4,0,0,1,0,.25.28.28,0,0,1,0,.13.24.24,0,0,1-.06.11.44.44,0,0,1-.08.11A.68.68,0,0,1,5,5Z"/><path class="cls-2" d="M18.13,40.47a.68.68,0,0,1-.3-.9h0a.68.68,0,0,1,.9-.3h0a.68.68,0,0,1,.3.9h0a.66.66,0,0,1-.6.37h0A.66.66,0,0,1,18.13,40.47ZM13.49,38a.68.68,0,0,1-.2-.92h0a.69.69,0,0,1,.93-.21h0a.68.68,0,0,1,.2.93h0a.67.67,0,0,1-.57.31h0A.69.69,0,0,1,13.49,38ZM9.35,34.62a.68.68,0,0,1,0-.95h0a.66.66,0,0,1,.94,0h0a.66.66,0,0,1,0,.94h0a.65.65,0,0,1-.46.19h0A.7.7,0,0,1,9.35,34.62ZM6.18,30.29a.67.67,0,0,1,.28-.9h0a.67.67,0,0,1,.9.28h0a.67.67,0,0,1-.28.9h0a.58.58,0,0,1-.31.08h0A.66.66,0,0,1,6.18,30.29ZM4.47,25.18A.67.67,0,0,1,5,24.42H5a.66.66,0,0,1,.76.56h0a.66.66,0,0,1-.56.76h-.1A.67.67,0,0,1,4.47,25.18ZM4.3,19.9A.67.67,0,0,1,5,19.23H5a.67.67,0,0,1,.67.67h0a.67.67,0,0,1-.67.66H5A.67.67,0,0,1,4.3,19.9Zm0-5.2A.67.67,0,0,1,5,14H5a.67.67,0,0,1,.67.67h0a.67.67,0,0,1-.67.67H5A.67.67,0,0,1,4.3,14.7Zm0-5.19A.67.67,0,0,1,5,8.84H5a.67.67,0,0,1,.67.67h0a.66.66,0,0,1-.67.66H5A.66.66,0,0,1,4.3,9.51Z"/><path class="cls-2" d="M23.08,42.87a.63.63,0,0,1-.47-.2.67.67,0,0,1-.2-.47.59.59,0,0,1,0-.13l0-.13.07-.11a.39.39,0,0,1,.08-.1.68.68,0,0,1,.94,0,.25.25,0,0,1,.08.1l.07.11c0,.05,0,.09,0,.13a.57.57,0,0,1,0,.13.68.68,0,0,1-.67.67Z"/><path class="cls-2" d="M40.93,25.75a.67.67,0,0,1-.56-.77h0a.65.65,0,0,1,.76-.55h0a.66.66,0,0,1,.56.76h0a.67.67,0,0,1-.66.57h-.1Zm-.4-5.85a.67.67,0,0,1,.66-.67h0a.68.68,0,0,1,.67.67h0a.67.67,0,0,1-.67.67h0A.67.67,0,0,1,40.53,19.9Zm0-5.19a.67.67,0,0,1,.66-.67h0a.67.67,0,0,1,.67.67h0a.67.67,0,0,1-.67.67h0A.67.67,0,0,1,40.53,14.71Zm0-5.2a.66.66,0,0,1,.66-.66h0a.66.66,0,0,1,.67.66h0a.67.67,0,0,1-.67.67h0A.67.67,0,0,1,40.53,9.51Z"/><path class="cls-2" d="M41.19,5a.7.7,0,0,1-.47-.19.44.44,0,0,1-.08-.11.39.39,0,0,1-.06-.11.5.5,0,0,1,0-.13.53.53,0,0,1,0-.13.49.49,0,0,1,0-.12.5.5,0,0,1,0-.13.67.67,0,0,1,.06-.12.39.39,0,0,1,.08-.1.7.7,0,0,1,1,0,.39.39,0,0,1,.08.1.67.67,0,0,1,.06.12.5.5,0,0,1,0,.13.49.49,0,0,1,0,.12.53.53,0,0,1,0,.13.5.5,0,0,1,0,.13.39.39,0,0,1-.06.11.44.44,0,0,1-.08.11A.71.71,0,0,1,41.19,5Z"/><path class="cls-2" d="M35.35,4.31A.66.66,0,0,1,36,3.65h0a.66.66,0,0,1,.67.66h0A.67.67,0,0,1,36,5h0A.67.67,0,0,1,35.35,4.31Zm-5.17,0a.65.65,0,0,1,.66-.66h0a.66.66,0,0,1,.67.66h0a.67.67,0,0,1-.67.67h0A.66.66,0,0,1,30.18,4.31ZM25,4.31a.66.66,0,0,1,.67-.66h0a.66.66,0,0,1,.67.66h0a.67.67,0,0,1-.67.67h0A.67.67,0,0,1,25,4.31Zm-5.17,0a.65.65,0,0,1,.66-.66h0a.66.66,0,0,1,.67.66h0a.67.67,0,0,1-.67.67h0A.66.66,0,0,1,19.83,4.31Zm-5.18,0a.66.66,0,0,1,.67-.66h0a.66.66,0,0,1,.67.66h0a.67.67,0,0,1-.67.67h0A.67.67,0,0,1,14.65,4.31Zm-5.18,0a.66.66,0,0,1,.67-.66h0a.66.66,0,0,1,.67.66h0a.67.67,0,0,1-.67.67h0A.67.67,0,0,1,9.47,4.31Z"/><path class="cls-1" d="M40.82,38.23h5.52a0,0,0,0,1,0,0v13a1.68,1.68,0,0,1-1.68,1.68H42.51a1.69,1.69,0,0,1-1.69-1.69v-13a0,0,0,0,1,0,0Z" transform="translate(-19.46 44.16) rotate(-45)"/><circle class="cls-1" cx="31.44" cy="33.75" r="9.79"/><circle class="cls-3" cx="31.64" cy="33.76" r="7.78"/><path class="cls-2" d="M31.64,42a8.43,8.43,0,1,1,7.54-4.65,8.5,8.5,0,0,1-1.58,2.18,8.08,8.08,0,0,1-2.18,1.57A8.34,8.34,0,0,1,31.64,42Zm0-16a7.61,7.61,0,1,0,5.38,13,7.43,7.43,0,0,0,1.42-2,7.6,7.6,0,0,0-6.8-11Z"/><path class="cls-2" d="M46.94,51.79a2.88,2.88,0,0,1-2.07-.86l-8.7-8.69a.44.44,0,0,1-.12-.35.41.41,0,0,1,.21-.3,9.33,9.33,0,0,0,1.93-1.48,9,9,0,0,0,1.48-1.94A.41.41,0,0,1,40,38a.4.4,0,0,1,.34.11l8.7,8.7a3,3,0,0,1,0,4.15A2.9,2.9,0,0,1,46.94,51.79ZM37.12,42l8.33,8.32a2.11,2.11,0,0,0,3,0,2.12,2.12,0,0,0,0-3L40.11,39a9.74,9.74,0,0,1-1.34,1.66A10.17,10.17,0,0,1,37.12,42Z"/><path class="cls-2" d="M31.65,43.64a10.08,10.08,0,1,1,8.74-5.06,10.39,10.39,0,0,1-1.62,2.11,9.51,9.51,0,0,1-2.11,1.61A10,10,0,0,1,31.65,43.64Zm0-19.34a9.26,9.26,0,1,0,4.62,17.29,9.33,9.33,0,0,0,1.93-1.48,9,9,0,0,0,1.48-1.94,9.26,9.26,0,0,0-8-13.87Zm0,17.69a8.43,8.43,0,1,1,7.54-4.65,8.5,8.5,0,0,1-1.58,2.18,8.08,8.08,0,0,1-2.18,1.57A8.34,8.34,0,0,1,31.64,42Zm0-16a7.61,7.61,0,1,0,5.38,13,7.43,7.43,0,0,0,1.42-2h0a7.6,7.6,0,0,0-6.8-11Z"/><path class="cls-2" d="M40,42.32a.41.41,0,0,1-.16,0,.3.3,0,0,1-.13-.09.39.39,0,0,1,0-.58.43.43,0,0,1,.58,0,.41.41,0,0,1,0,.58A.4.4,0,0,1,40,42.32Z"/><path class="cls-2" d="M43.51,46a.39.39,0,0,1,0-.58h0a.41.41,0,0,1,.58,0h0a.41.41,0,0,1,0,.58h0a.44.44,0,0,1-.29.12h0A.4.4,0,0,1,43.51,46Zm-1.9-1.9a.39.39,0,0,1,0-.58h0a.41.41,0,0,1,.58,0h0a.43.43,0,0,1,0,.58h0a.44.44,0,0,1-.29.12h0A.4.4,0,0,1,41.61,44.1Z"/><path class="cls-2" d="M45.7,48a.38.38,0,0,1-.29-.12.41.41,0,0,1,0-.58s0,0,.06,0l.07,0,.07,0a.41.41,0,0,1,.38.11.41.41,0,0,1,0,.58.42.42,0,0,1-.14.09Z"/></g></g></svg>