<svg xmlns="http://www.w3.org/2000/svg" viewBox="0 0 50 49.78"><defs><style>.cls-1{fill:#f4cd36;}.cls-2{fill:#fff;}.cls-3{fill:#3f4244;}</style></defs><title>Recurso 12_icon_</title><g id="Capa_2" data-name="Capa 2"><g id="Capa_1-2" data-name="Capa 1"><rect class="cls-1" x="14.16" y="13.75" width="22.13" height="22.13"/><rect class="cls-2" x="19.95" y="19.86" width="10.43" height="10.43"/><rect class="cls-2" x="0.66" y="0.92" width="8.01" height="8.01"/><rect class="cls-1" x="0.66" y="41.38" width="8.01" height="8.01"/><rect class="cls-3" x="41.26" y="0.92" width="8.01" height="8.01"/><circle class="cls-3" cx="24.98" cy="45.39" r="2.5"/><circle class="cls-1" cx="45.31" cy="24.69" r="2.5"/><circle class="cls-1" cx="24.98" cy="4.73" r="2.5"/><circle class="cls-3" cx="4.65" cy="25.08" r="2.5"/><path class="cls-3" d="M24.86,27.45h0a.73.73,0,0,1-.61-.35l-1.57-2.64a.71.71,0,0,1,.25-1,.72.72,0,0,1,1,.25l.95,1.6,1.83-3a.72.72,0,0,1,1.23.73L25.48,27.1A.72.72,0,0,1,24.86,27.45Z"/><path class="cls-3" d="M30.41,31.08H19.79a.71.71,0,0,1-.72-.71V19.74a.72.72,0,0,1,.72-.72H30.41a.72.72,0,0,1,.72.72V30.37A.71.71,0,0,1,30.41,31.08ZM20.5,29.65h9.19V20.46H20.5Z"/><path class="cls-3" d="M36.28,37H13.76a.71.71,0,0,1-.71-.72V13.79a.71.71,0,0,1,.71-.71H36.28a.71.71,0,0,1,.72.71V36.31A.72.72,0,0,1,36.28,37ZM14.48,35.6H35.56V14.51H14.48Z"/><path class="cls-3" d="M8.75,9.46h-8A.71.71,0,0,1,0,8.75v-8A.72.72,0,0,1,.72,0h8a.71.71,0,0,1,.71.72v8A.71.71,0,0,1,8.75,9.46ZM1.43,8H8V1.43H1.43Z"/><path class="cls-3" d="M49.28,9.46h-8a.71.71,0,0,1-.71-.71v-8A.71.71,0,0,1,41.25,0h8A.72.72,0,0,1,50,.72v8A.71.71,0,0,1,49.28,9.46ZM42,8h6.6V1.43H42Z"/><path class="cls-3" d="M8.75,49.78h-8A.72.72,0,0,1,0,49.07V41a.72.72,0,0,1,.72-.72h8a.72.72,0,0,1,.72.72v8A.71.71,0,0,1,8.75,49.78ZM1.44,48.35H8V41.76H1.44Z"/><path class="cls-3" d="M36.46,14.24A.68.68,0,0,1,36,14a.71.71,0,0,1,0-1l4.79-4.77a.71.71,0,0,1,1,1L37,14A.71.71,0,0,1,36.46,14.24Z"/><path class="cls-3" d="M13.46,14.24A.7.7,0,0,1,13,14L8.17,9.25a.71.71,0,1,1,1-1L14,13a.71.71,0,0,1,0,1A.68.68,0,0,1,13.46,14.24Z"/><path class="cls-3" d="M8.71,41.93a.7.7,0,0,1-.5-.21.72.72,0,0,1,0-1L13,35.93a.71.71,0,0,1,1,0,.72.72,0,0,1,0,1L9.22,41.72A.71.71,0,0,1,8.71,41.93Z"/><path class="cls-3" d="M25,14.24a.72.72,0,0,1-.71-.72V7.84a.72.72,0,1,1,1.43,0v5.68A.72.72,0,0,1,25,14.24Z"/><path class="cls-3" d="M25,8a3.3,3.3,0,1,1,3.3-3.3A3.3,3.3,0,0,1,25,8Zm0-5.16a1.86,1.86,0,1,0,1.86,1.86A1.86,1.86,0,0,0,25,2.87Z"/><path class="cls-3" d="M25,43a.71.71,0,0,1-.71-.72V36.6a.72.72,0,1,1,1.43,0v5.68A.72.72,0,0,1,25,43Z"/><path class="cls-3" d="M25,48.68a3.3,3.3,0,1,1,3.3-3.29A3.3,3.3,0,0,1,25,48.68Zm0-5.16a1.87,1.87,0,1,0,1.86,1.87A1.87,1.87,0,0,0,25,43.52Z"/><path class="cls-3" d="M42.2,25.8H36.52a.72.72,0,1,1,0-1.43H42.2a.72.72,0,1,1,0,1.43Z"/><path class="cls-3" d="M45.31,28.36a3.3,3.3,0,1,1,3.29-3.3A3.3,3.3,0,0,1,45.31,28.36Zm0-5.16a1.86,1.86,0,1,0,1.86,1.86A1.87,1.87,0,0,0,45.31,23.2Z"/><path class="cls-3" d="M13.44,25.8H7.76a.72.72,0,1,1,0-1.43h5.68a.72.72,0,1,1,0,1.43Z"/><path class="cls-3" d="M4.65,28.36A3.3,3.3,0,1,1,8,25.06,3.3,3.3,0,0,1,4.65,28.36Zm0-5.16a1.86,1.86,0,1,0,1.87,1.86A1.86,1.86,0,0,0,4.65,23.2Z"/></g></g></svg>