<svg xmlns="http://www.w3.org/2000/svg" viewBox="0 0 50 50"><defs><style>.cls-1{fill:#3f4244;}.cls-2{fill:#f4cd36;}</style></defs><title>Recurso 5_icon_</title><g id="Capa_2" data-name="Capa 2"><g id="Capa_1-2" data-name="Capa 1"><path class="cls-1" d="M46.12,7.75A3.88,3.88,0,1,1,50,3.88,3.88,3.88,0,0,1,46.12,7.75Z"/><path class="cls-1" d="M3.88,50a3.88,3.88,0,1,1,3.87-3.88A3.88,3.88,0,0,1,3.88,50Zm0-6.29a2.42,2.42,0,1,0,2.41,2.41A2.41,2.41,0,0,0,3.88,43.71Z"/><path class="cls-2" d="M42.08,48.51c-6.43,0-16.42-5.56-25.72-14.87h0C4.09,21.37-1.67,7.91,3.25,3S21.63,3.83,33.9,16.1c5.77,5.77,10.33,12.07,12.84,17.75,2.61,5.89,2.7,10.47.27,12.9A6.72,6.72,0,0,1,42.08,48.51ZM17.39,32.61C28.69,43.91,41.78,49.92,46,45.72c1.94-1.95,1.74-6.06-.58-11.28C43,28.92,38.51,22.78,32.87,17.13,21.57,5.83,8.48-.17,4.28,4S6.09,21.31,17.39,32.61Z"/><path class="cls-2" d="M2.31,41.15H2.22a.73.73,0,0,1-.64-.81C2.37,33.71,8,24.42,16.36,16.1S33.89,2.17,40.5,1.34a.73.73,0,0,1,.82.63.72.72,0,0,1-.63.81c-6.22.79-15.37,6.42-23.3,14.35S3.77,34.29,3,40.51A.72.72,0,0,1,2.31,41.15Z"/><path class="cls-2" d="M9.79,48.4a.73.73,0,0,1-.72-.64.72.72,0,0,1,.62-.82C16,46.09,24.88,40.6,32.87,32.61S46.34,15.76,47.2,9.45a.73.73,0,0,1,1.44.2c-.9,6.61-6.55,15.8-14.74,24S16.5,47.5,9.89,48.39Z"/><path class="cls-1" d="M25.13,24.91a3.34,3.34,0,0,1-1.56-.39A5,5,0,0,1,21.1,20c0-2.71,1.81-4.92,4-4.92s4,2.21,4,4.92a5,5,0,0,1-2.48,4.54A3.3,3.3,0,0,1,25.13,24.91Zm0-8.39c-1.42,0-2.57,1.55-2.57,3.46a3.61,3.61,0,0,0,1.67,3.24,1.89,1.89,0,0,0,1.79,0A3.62,3.62,0,0,0,27.7,20C27.7,18.07,26.54,16.52,25.13,16.52Z"/><path class="cls-1" d="M31.85,32.07H18.4a.73.73,0,0,1-.73-.73V28.63A3.44,3.44,0,0,1,21.1,25.2h2.8a.72.72,0,0,1,.73.73v.13a.52.52,0,0,0,.16.37.55.55,0,0,0,.39.12.53.53,0,0,0,.44-.54v-.08a.73.73,0,0,1,.73-.73h2.8a3.44,3.44,0,0,1,3.43,3.43v2.71A.73.73,0,0,1,31.85,32.07ZM19.13,30.61h12v-2a2,2,0,0,0-2-2H27A2,2,0,0,1,25.32,28a1.94,1.94,0,0,1-2.05-1.35H21.1a2,2,0,0,0-2,2Z"/><path class="cls-1" d="M25.13,28a2,2,0,0,1-2-2V23.87a.72.72,0,0,1,.35-.62.75.75,0,0,1,.71,0,1.89,1.89,0,0,0,1.79,0,.74.74,0,0,1,.71,0,.72.72,0,0,1,.35.62v2.19A2,2,0,0,1,25.13,28Zm-.5-3.15v1.19a.5.5,0,1,0,1,0V24.87A3.29,3.29,0,0,1,24.63,24.87Z"/></g></g></svg>