<svg xmlns="http://www.w3.org/2000/svg" viewBox="0 0 50 45.42"><defs><style>.cls-1{fill:#1c2023;}.cls-2{fill:#00599b;}</style></defs><title>Recurso 8_icon_</title><g id="Capa_2" data-name="Capa 2"><g id="Capa_1-2" data-name="Capa 1"><path class="cls-1" d="M47.51,29.63V2.52H8.34V5H5.84V2.3c0-.31,0-.62,0-.93A1.24,1.24,0,0,1,7.19,0H48.35C49.61,0,50,.38,50,1.64V33.58A1.24,1.24,0,0,1,48.7,35h-25l-.3,0V29.63ZM28.76,32.31a.86.86,0,0,0-.8-.86.88.88,0,0,0-.89.84.85.85,0,0,0,1.69,0Z"/><path class="cls-1" d="M0,22.5V7.81c0-.9.24-1.14,1.15-1.14H20.58c.79,0,1.07.27,1.07,1.06V37.32c0,.72-.3,1-1,1H1c-.71,0-1-.29-1-1ZM20,8.35H1.67V35H20Z"/><path class="cls-1" d="M24.59,42.94V36.73h6.62v6.21h7.07a1.24,1.24,0,0,1,1.29,1,1.26,1.26,0,0,1-.88,1.37,2.19,2.19,0,0,1-.52.05H17.71c-.88,0-1.44-.48-1.45-1.22s.55-1.25,1.46-1.26h6.87Z"/><path class="cls-2" d="M18.23,19.67,8.85,26.06a3.28,3.28,0,0,0-2.35-1A3.32,3.32,0,1,0,9.81,28.4a3.36,3.36,0,0,0-.1-.85l8.63-5.88ZM6.5,30.19A1.8,1.8,0,1,1,8.29,28.4,1.79,1.79,0,0,1,6.5,30.19Z"/><path class="cls-2" d="M42.44,6.73A3.31,3.31,0,0,0,40,12.28L35,19.8a3.46,3.46,0,0,0-.92-.13,3.37,3.37,0,0,0-1.31.27l-2.66-3.32a3.32,3.32,0,1,0-6-2,3.1,3.1,0,0,0,.13.92l-1,.7,0,2.05L25.16,17a3.3,3.3,0,0,0,2.31.93,3.37,3.37,0,0,0,1.31-.27L31.44,21a3.32,3.32,0,1,0,6,2,3.26,3.26,0,0,0-.93-2.3l4.94-7.49a3.1,3.1,0,0,0,1,.16,3.32,3.32,0,1,0,0-6.63Zm-15,9.69a1.79,1.79,0,1,1,1.79-1.79A1.79,1.79,0,0,1,27.47,16.42Zm6.63,8.36A1.79,1.79,0,1,1,35.89,23,1.79,1.79,0,0,1,34.1,24.78Zm8.34-12.95A1.79,1.79,0,1,1,44.23,10,1.79,1.79,0,0,1,42.44,11.83Z"/></g></g></svg>