<svg xmlns="http://www.w3.org/2000/svg" viewBox="0 0 50 50.44"><defs><style>.cls-1{fill:#3f4244;}.cls-2{fill:#f4cd36;}</style></defs><title>Recurso 20_icon_</title><g id="Capa_2" data-name="Capa 2"><g id="Capa_1-2" data-name="Capa 1"><path class="cls-1" d="M47.64,39.77H2.36A2.36,2.36,0,0,1,0,37.41v-35A2.36,2.36,0,0,1,2.36,0H47.64A2.36,2.36,0,0,1,50,2.36V37.41A2.36,2.36,0,0,1,47.64,39.77ZM2.36,1.46a.9.9,0,0,0-.9.9V37.41a.9.9,0,0,0,.9.9H47.64a.9.9,0,0,0,.9-.9v-35a.9.9,0,0,0-.9-.9ZM46,36.51H4a.73.73,0,0,1-.73-.73V4A.73.73,0,0,1,4,3.26H46a.73.73,0,0,1,.73.73V35.78A.73.73,0,0,1,46,36.51ZM4.72,35.05H45.28V4.72H4.72Z"/><path class="cls-1" d="M30.05,46.05H20a.73.73,0,0,1-.73-.73V39a.73.73,0,0,1,.73-.73h10.1a.73.73,0,0,1,.73.73v6.28A.73.73,0,0,1,30.05,46.05Zm-9.37-1.46h8.64V39.77H20.68Z"/><path class="cls-1" d="M35.89,50.44H14.11a.73.73,0,0,1-.73-.73,5.13,5.13,0,0,1,5.13-5.12h13a5.13,5.13,0,0,1,5.13,5.12A.73.73,0,0,1,35.89,50.44ZM14.91,49H35.09a3.67,3.67,0,0,0-3.6-2.94h-13A3.67,3.67,0,0,0,14.91,49Z"/><path class="cls-2" d="M25.57,30.38h-.1l-6.06-1.62a.4.4,0,0,1-.27-.48,2,2,0,0,0-2.44-2.44.4.4,0,0,1-.48-.27l-1.61-6a.39.39,0,0,1,.27-.48,2,2,0,0,0,.88-.51,2,2,0,0,0,0-2.85l0,0a.4.4,0,0,1-.12-.28.38.38,0,0,1,.12-.28l4.47-4.47a.38.38,0,0,1,.28-.11.36.36,0,0,1,.27.12l0,0a2,2,0,0,0,2.84,0,1.92,1.92,0,0,0,.53-.94.41.41,0,0,1,.48-.29l6.07,1.63a.41.41,0,0,1,.25.2.37.37,0,0,1,0,.31,2,2,0,0,0,.46,2.13h0a2,2,0,0,0,2,.5.37.37,0,0,1,.31,0,.39.39,0,0,1,.19.24l1.57,5.87a.39.39,0,0,1,0,.3.41.41,0,0,1-.25.18,2,2,0,0,0-1,.54,2,2,0,0,0,0,2.84l0,0a.37.37,0,0,1,.13.28.39.39,0,0,1-.12.28l-4.35,4.36a.43.43,0,0,1-.28.11.36.36,0,0,1-.28-.12l0,0a2,2,0,0,0-2.85,0,2,2,0,0,0-.54.95.38.38,0,0,1-.18.25A.46.46,0,0,1,25.57,30.38ZM20,28.09l5.36,1.43a2.93,2.93,0,0,1,.61-.94,2.8,2.8,0,0,1,3.71-.22l3.83-3.83a2.79,2.79,0,0,1,.21-3.7,2.91,2.91,0,0,1,1-.64l-1.38-5.13a2.77,2.77,0,0,1-2.42-.79h0a2.78,2.78,0,0,1-.76-2.54L24.79,10.3a2.8,2.8,0,0,1-4.31,1.16L16.54,15.4a2.74,2.74,0,0,1,.59,1.72,2.79,2.79,0,0,1-1.67,2.56L16.89,25a2.78,2.78,0,0,1,2.27.8A2.74,2.74,0,0,1,20,28.09Z"/><path class="cls-2" d="M14.34,19.91a2.79,2.79,0,1,1,1.93-4.81l.05,0a2.81,2.81,0,0,1,0,3.95,2.84,2.84,0,0,1-1.23.72A3.22,3.22,0,0,1,14.34,19.91Zm0-4.8a2,2,0,0,0-2,2,2,2,0,0,0,2.55,1.93,2,2,0,0,0,.88-.51,2,2,0,0,0,0-2.85l0,0h0A2,2,0,0,0,14.34,15.11Z"/><path class="cls-2" d="M14.31,18.45a1.37,1.37,0,0,1-1-.4,1.35,1.35,0,0,1-.4-1,1.37,1.37,0,0,1,2.31-1l0,0a1.38,1.38,0,0,1,.41,1,1.4,1.4,0,0,1-.4,1,1.36,1.36,0,0,1-.6.35A1.22,1.22,0,0,1,14.31,18.45Zm0-1.95a.57.57,0,0,0-.42.17.58.58,0,0,0-.17.41.59.59,0,0,0,.75.57.64.64,0,0,0,.25-.15.56.56,0,0,0,.18-.42.55.55,0,0,0-.18-.41h0A.57.57,0,0,0,14.31,16.5Z"/><path class="cls-1" d="M17.19,29.15a1.37,1.37,0,1,1,.94-2.36l0,0a1.36,1.36,0,0,1-.59,2.29A1.57,1.57,0,0,1,17.19,29.15Zm0-2a.63.63,0,0,0-.42.17.6.6,0,0,0,0,.84.59.59,0,0,0,.58.15.68.68,0,0,0,.26-.15.6.6,0,0,0,0-.84h0A.6.6,0,0,0,17.19,27.19Z"/><path class="cls-2" d="M27.91,31.92a1.37,1.37,0,1,1,.94-2.36l0,0a1.36,1.36,0,0,1-.59,2.29A1.22,1.22,0,0,1,27.91,31.92Zm0-2a.59.59,0,0,0-.42.18.59.59,0,0,0,.58,1,.68.68,0,0,0,.26-.15.59.59,0,0,0,0-.83h0A.6.6,0,0,0,27.91,30Z"/><path class="cls-1" d="M35.66,24.17a1.37,1.37,0,0,1-1-2.34,1.39,1.39,0,0,1,1.92,0v0A1.36,1.36,0,0,1,36,24.12,1.57,1.57,0,0,1,35.66,24.17Zm0-2a.59.59,0,0,0-.42.18.59.59,0,0,0,.58,1,.68.68,0,0,0,.26-.15.59.59,0,0,0,0-.83l.26-.29-.27.28A.6.6,0,0,0,35.66,22.21Z"/><path class="cls-2" d="M32.85,13.67a1.37,1.37,0,0,1-1-.4,1.38,1.38,0,0,1,0-1.94,1.37,1.37,0,0,1,1.91,0l0,0a1.37,1.37,0,0,1-.61,2.28A1.49,1.49,0,0,1,32.85,13.67Zm0-2a.59.59,0,0,0-.42,1,.6.6,0,0,0,.57.15.61.61,0,0,0,.26-.15.58.58,0,0,0,0-.84h0A.58.58,0,0,0,32.85,11.71Z"/><path class="cls-1" d="M22.26,10.57a1.37,1.37,0,0,1-1-.4,1.38,1.38,0,0,1,0-1.94,1.37,1.37,0,0,1,1.91,0l0,0a1.36,1.36,0,0,1-.59,2.29A1.64,1.64,0,0,1,22.26,10.57Zm0-2a.63.63,0,0,0-.42.17.61.61,0,0,0-.17.42.59.59,0,0,0,.17.42.61.61,0,0,0,.58.15.58.58,0,0,0,.25-.15.6.6,0,0,0,0-.84h0A.62.62,0,0,0,22.26,8.61Z"/><path class="cls-2" d="M32.84,15.09a2.75,2.75,0,0,1-2-.82,2.8,2.8,0,0,1-.64-2.95,2.73,2.73,0,0,1,.64-1h0a2.79,2.79,0,0,1,3.95,3.94,2.78,2.78,0,0,1-2,.82Zm0-4.8a2,2,0,0,0-1.43.59h0a2.12,2.12,0,0,0-.46.71,2,2,0,0,0,.46,2.13,2,2,0,0,0,2,.5,2,2,0,0,0,.82-.5,2,2,0,0,0-1.42-3.43Zm-1.7.31Z"/><path class="cls-2" d="M27.91,33.35a2.82,2.82,0,0,1-2-.82,2.82,2.82,0,0,1,0-4h0a2.79,2.79,0,0,1,3.95,0l0,0a2.8,2.8,0,0,1-2,4.73Zm-1.42-4.22a2,2,0,0,0-.54.95,2,2,0,0,0,.54,1.9,2,2,0,0,0,2.84,0,2,2,0,0,0,0-2.81l0,0a2,2,0,0,0-2.85,0Z"/><path class="cls-1" d="M33.35,22.53l-.1,0-4.09-1.09a.39.39,0,1,1,.2-.76l4.09,1.1a.39.39,0,0,1,.28.48A.41.41,0,0,1,33.35,22.53Z"/><path class="cls-2" d="M21.06,19.23H21L16.58,18a.38.38,0,0,1-.28-.47.39.39,0,0,1,.48-.28l4.38,1.18a.39.39,0,0,1-.1.76Z"/><path class="cls-2" d="M27.29,28.62a.38.38,0,0,1-.38-.29l-1.1-4.11a.38.38,0,0,1,.27-.48.39.39,0,0,1,.48.27l1.1,4.12a.39.39,0,0,1-.27.48Z"/><path class="cls-1" d="M24,16.33a.41.41,0,0,1-.38-.29l-1.13-4.22a.39.39,0,1,1,.76-.2l1.13,4.22a.39.39,0,0,1-.28.47Z"/><path class="cls-2" d="M28,17.32a.38.38,0,0,1-.28-.11.39.39,0,0,1,0-.55l3-3a.39.39,0,0,1,.55.55l-3,3A.35.35,0,0,1,28,17.32Z"/><path class="cls-1" d="M18.89,26.47a.43.43,0,0,1-.28-.11.39.39,0,0,1,0-.55l3.17-3.17a.39.39,0,1,1,.55.55l-3.17,3.17A.39.39,0,0,1,18.89,26.47Z"/><path class="cls-1" d="M24.83,22.22h0a.38.38,0,0,1-.34-.23l-.92-2.19a.4.4,0,0,1,.21-.51.39.39,0,0,1,.51.21l.6,1.43,1.42-2.62a.39.39,0,0,1,.53-.16.38.38,0,0,1,.15.53L25.17,22A.39.39,0,0,1,24.83,22.22Z"/><path class="cls-1" d="M25.13,24.64a4.63,4.63,0,1,1,3.27-1.36A4.63,4.63,0,0,1,25.13,24.64Zm0-8.47a3.85,3.85,0,1,0,2.72,6.56,3.85,3.85,0,0,0-2.72-6.56Z"/><path class="cls-1" d="M22.2,12.05a2.75,2.75,0,0,1-2-.82.08.08,0,0,1,0,0,2.8,2.8,0,0,1,0-3.91h0a2.79,2.79,0,0,1,4.68,2.64,2.78,2.78,0,0,1-2.71,2.13ZM20.78,7.83a2,2,0,0,0,0,2.82l0,0a2,2,0,0,0,2.84,0,1.92,1.92,0,0,0,.53-.94,2,2,0,0,0-.53-1.91,2,2,0,0,0-2.84,0Z"/><path class="cls-1" d="M17.19,30.57a2.77,2.77,0,0,1-2.79-2.79,2.76,2.76,0,0,1,2.11-2.7h0a2.79,2.79,0,0,1,2.65.73,2.81,2.81,0,0,1,0,4A2.79,2.79,0,0,1,17.19,30.57Zm0-4.8a2.07,2.07,0,0,0-.5.06h0a1.93,1.93,0,0,0-.93.53,2,2,0,1,0,2.84,2.84,1.93,1.93,0,0,0,.53-.93,2,2,0,0,0-1.94-2.5Zm-.6-.32Z"/><path class="cls-1" d="M35.66,25.6a2.79,2.79,0,0,1-1.92-.77l-.05,0a2.8,2.8,0,0,1,0-4,2.79,2.79,0,1,1,4,4A2.8,2.8,0,0,1,35.66,25.6Zm0-4.81a2.1,2.1,0,0,0-.43.05h0a2,2,0,0,0-1,.54,2,2,0,0,0,0,2.84l0,0a2,2,0,1,0,1.39-3.47Zm-.52-.33h0Z"/></g></g></svg>