<svg xmlns="http://www.w3.org/2000/svg" viewBox="0 0 50 44.05"><defs><style>.cls-1{fill:#00599b;}</style></defs><title>Recurso 9_icon_</title><g id="Capa_2" data-name="Capa 2"><g id="Capa_1-2" data-name="Capa 1"><path class="cls-1" d="M36.83,35.63v8.42l-17.29-2.7V2.7L36.83,0V8.49l0,0a28.4,28.4,0,0,0-3.34.32A13.54,13.54,0,0,0,32.42,35a15.76,15.76,0,0,0,4.42.65Z"/><path class="cls-1" d="M36.83,8.49a11.92,11.92,0,0,1,6.4,1.76,13.16,13.16,0,0,1,6.7,10.45A13.52,13.52,0,0,1,39,35.4a21.62,21.62,0,0,1-2.16.23h0V33.05c.76-.14,1.4-.24,2-.38a.86.86,0,0,0,.49-.34,18.23,18.23,0,0,0,1.76-5.23H37l0-.62h4.28l.33-4.13h-4.6V21.7h4.6l-.34-4.13H37v-.65h4.09a20.4,20.4,0,0,0-1.65-5,.87.87,0,0,0-.7-.54l-1.92-.31V8.47Zm5.33,18a.32.32,0,0,0,.09,0H45c1.44,0,1.47,0,1.85-1.42.24-.87.37-1.77.55-2.7H42.48Zm.32-4.79h4.85a11.69,11.69,0,0,0-.78-3.7c-.06-.14-.21-.35-.32-.35-1.36,0-2.73,0-4.07,0Zm-2.21,10.6A11.64,11.64,0,0,0,46,27.11H42.19a.4.4,0,0,0-.28.26A19.9,19.9,0,0,1,40.27,32.26Zm.22-20.36c.46,1.55.93,3.12,1.41,4.69,0,.13.18.32.27.32,1.23,0,2.47,0,3.8,0A11.41,11.41,0,0,0,40.49,11.9Z"/><path class="cls-1" d="M11.78,27.65l-1.22-1.26,2.78-2.66H8.53V21.64h4.7l0-.11L10.61,19l1.16-1.19,4.91,4.93Z"/><path class="cls-1" d="M11.64,14.14l1.24-1.08H8.65v-2.2h4.27L11.64,9.72,12.9,8.56l3.35,3.37-3.42,3.38Z"/><path class="cls-1" d="M12.87,37.1l-1.27-.94,1-1.54c-.56,0-1,0-1.49,0s-.46-.12-.44-.45c0-.56,0-1.12,0-1.72h1.95l-1.28-1.1,1.36-1.29,3.35,3.37Z"/><path class="cls-1" d="M6.45,10.87V13H2.19V10.87Z"/><path class="cls-1" d="M8.59,32.49v2.1H6.43v-2.1Z"/><path class="cls-1" d="M6.48,21.66c0,.63,0,1.2,0,1.77a.36.36,0,0,1-.25.26c-.62,0-1.24,0-1.9,0v-2Z"/><path class="cls-1" d="M4.19,34.58H2.13v-2.1H4.19Z"/><path class="cls-1" d="M0,21.65H2v2H0Z"/><path class="cls-1" d="M36.3,16.88H31.53a17.37,17.37,0,0,1,1.75-5.14.67.67,0,0,1,.4-.32c.85-.15,1.72-.27,2.62-.4Z"/><path class="cls-1" d="M36.31,33c-.92-.13-1.79-.24-2.65-.38a.54.54,0,0,1-.3-.22,16.62,16.62,0,0,1-1.77-5.31h4.72Z"/><path class="cls-1" d="M36.32,17.56v4.16H31c.07-1,.1-2.06.22-3.07s.16-1.09,1.28-1.09Z"/><path class="cls-1" d="M31.34,26.47,31,22.38h5.31v4.09Z"/><path class="cls-1" d="M30.54,17.55l-.33,4.16H25.45a9.24,9.24,0,0,1,.44-2.82c.39-1.34.4-1.34,1.78-1.34Z"/><path class="cls-1" d="M25.43,22.37h4.79l.33,4.14h-4a.4.4,0,0,1-.27-.21A11.27,11.27,0,0,1,25.43,22.37Z"/><path class="cls-1" d="M30.63,27.14l1.65,5a11.35,11.35,0,0,1-5.47-5Z"/><path class="cls-1" d="M32.28,11.86c-.42,1.24-.83,2.46-1.23,3.69a5.63,5.63,0,0,0-.25,1c0,.27-.13.36-.4.36H26.79A11.33,11.33,0,0,1,32.28,11.86Z"/></g></g></svg>