<svg xmlns="http://www.w3.org/2000/svg" viewBox="0 0 50 48.43"><defs><style>.cls-1{fill:#f4cd36;}.cls-2{fill:none;}.cls-3{fill:#3d3f41;}</style></defs><title>Recurso 21_icon_</title><g id="Capa_2" data-name="Capa 2"><g id="Capa_1-2" data-name="Capa 1"><rect class="cls-1" x="4.19" y="10.39" width="6.14" height="8.75"/><path class="cls-2" d="M21.33,37.8H46.12V19.39H21.33Zm4.38-10h.38a8.19,8.19,0,0,1,.2-1.12l-.36-.13a.72.72,0,0,1-.43-.91A8.33,8.33,0,0,1,27,23.14a.72.72,0,0,1,1-.09l.25.21a7.89,7.89,0,0,1,.87-.76l-.15-.26a.72.72,0,0,1,.25-1,8.5,8.5,0,0,1,2.75-1,.66.66,0,0,1,.53.11.7.7,0,0,1,.29.46l0,.19a7.58,7.58,0,0,1,.84-.05L34,21l0-.16a.71.71,0,0,1,.82-.58,8.18,8.18,0,0,1,2.75,1,.7.7,0,0,1,.34.43.73.73,0,0,1-.07.54l0,0a7.53,7.53,0,0,1,1,.79l0,0a.71.71,0,0,1,1,.09,8.29,8.29,0,0,1,1.47,2.52.69.69,0,0,1-.39.89,8,8,0,0,1,.25,1.29.68.68,0,0,1,.45.19.75.75,0,0,1,.21.51,8.54,8.54,0,0,1-.5,2.9.73.73,0,0,1-.37.4.67.67,0,0,1-.52,0,7.12,7.12,0,0,1-.66,1.1.78.78,0,0,1,.25.48.7.7,0,0,1-.17.52,8.39,8.39,0,0,1-2.23,1.88.73.73,0,0,1-.54.07.72.72,0,0,1-.43-.33l0-.07a6.53,6.53,0,0,1-1.18.39l0,.11a.7.7,0,0,1-.57.83,9.12,9.12,0,0,1-1.47.13A8.88,8.88,0,0,1,32,36.82a.74.74,0,0,1-.46-.29.71.71,0,0,1-.12-.53l0-.22a8.84,8.84,0,0,1-1.11-.44l-.13.22a.7.7,0,0,1-.43.34.78.78,0,0,1-.54-.07A8.58,8.58,0,0,1,27,34a.7.7,0,0,1,.08-1l.26-.22a8.13,8.13,0,0,1-.55-1l-.35.12a.7.7,0,0,1-.91-.42A8.28,8.28,0,0,1,25,28.55.71.71,0,0,1,25.71,27.84Z"/><path class="cls-2" d="M48.24,40.16a.34.34,0,0,0,.34-.33V17.35a.34.34,0,0,0-.34-.33h-29a.33.33,0,0,0-.33.33V39.83a.33.33,0,0,0,.33.33h29Zm-27.62-.94a.71.71,0,0,1-.71-.71V18.68a.71.71,0,0,1,.71-.72H46.83a.72.72,0,0,1,.72.72V38.51a.71.71,0,0,1-.72.71Z"/><path class="cls-3" d="M6.31,25.5H8.43a.72.72,0,0,1,0,1.43H6.31a.72.72,0,0,1,0-1.43Z"/><path class="cls-3" d="M8.43,3.2H6.31a.71.71,0,0,1,0-1.42H8.43a.71.71,0,0,1,0,1.42Z"/><rect class="cls-2" x="31.2" y="41.59" width="5.05" height="2.6"/><rect class="cls-2" x="4.64" y="10.66" width="5.46" height="8.13"/><path class="cls-2" d="M27.58,47H39.87a2.1,2.1,0,0,0-2-1.39H29.56A2.1,2.1,0,0,0,27.58,47Z"/><path class="cls-1" d="M26.64,30.26l1-.36a.71.71,0,0,1,.91.42,5.33,5.33,0,0,0,.91,1.57.71.71,0,0,1-.09,1l-.79.67a6.7,6.7,0,0,0,.77.64l.52-.89a.72.72,0,0,1,.44-.34.69.69,0,0,1,.54.08,5,5,0,0,0,1.69.61.71.71,0,0,1,.58.82l-.18,1a5.68,5.68,0,0,0,1,0l-.18-1a.71.71,0,0,1,.58-.82A5.06,5.06,0,0,0,36,33a.73.73,0,0,1,1,.26l.52.9a8,8,0,0,0,.77-.65l-.79-.67a.7.7,0,0,1-.26-.48.74.74,0,0,1,.17-.52,5.31,5.31,0,0,0,.9-1.57.7.7,0,0,1,.91-.42l1,.35a6.87,6.87,0,0,0,.17-1h-1a.75.75,0,0,1-.51-.21.71.71,0,0,1-.21-.5,5.06,5.06,0,0,0-.33-1.79.8.8,0,0,1,0-.55.76.76,0,0,1,.4-.37l1-.36a7.61,7.61,0,0,0-.51-.87l-.79.67a.76.76,0,0,1-.52.17.78.78,0,0,1-.49-.25A5.14,5.14,0,0,0,36,24a.71.71,0,0,1-.27-1l.52-.9a6.74,6.74,0,0,0-1-.34l-.18,1a.74.74,0,0,1-.29.46.7.7,0,0,1-.53.12,4.79,4.79,0,0,0-1.81,0A.7.7,0,0,1,32,23.3a.75.75,0,0,1-.3-.46l-.18-1a6.79,6.79,0,0,0-.95.35l.53.89a.73.73,0,0,1-.26,1,5.37,5.37,0,0,0-1.39,1.16.71.71,0,0,1-1,.09l-.79-.66a7.61,7.61,0,0,0-.51.87l1,.36a.68.68,0,0,1,.4.36.75.75,0,0,1,0,.55,5,5,0,0,0-.32,1.74v0a.71.71,0,0,1-.71.71h-1A6.76,6.76,0,0,0,26.64,30.26Z"/><path class="cls-3" d="M47.55,38.51V18.68a.72.72,0,0,0-.72-.72H20.62a.71.71,0,0,0-.71.72V38.51a.71.71,0,0,0,.71.71H46.83A.71.71,0,0,0,47.55,38.51Zm-1.43-.71H21.33V19.39H46.12Z"/><rect class="cls-3" x="36.25" y="41.59" width="1.42" height="2.6"/><rect class="cls-3" x="29.78" y="41.59" width="1.42" height="2.6"/><path class="cls-3" d="M37,40.16H30.49a.71.71,0,0,0-.71.71v.72h7.9v-.72A.71.71,0,0,0,37,40.16Z"/><path class="cls-3" d="M37,45.61h.92a2.1,2.1,0,0,1,2,1.39H27.58a2.1,2.1,0,0,1,2-1.39h.93a.71.71,0,0,1-.71-.71v-.71h-.22A3.54,3.54,0,0,0,26,47.72a.71.71,0,0,0,.72.71h14a.71.71,0,0,0,.71-.71,3.53,3.53,0,0,0-3.53-3.53h-.21v.71A.71.71,0,0,1,37,45.61Z"/><path class="cls-3" d="M31.2,44.19H29.78v.71a.71.71,0,0,0,.71.71H37a.71.71,0,0,0,.71-.71v-.71H31.2Z"/><path class="cls-3" d="M26.42,31.85l.35-.12a7.56,7.56,0,0,1-.71-3.19c0-.24,0-.47,0-.7h-.38a.71.71,0,0,0-.71.71,8.28,8.28,0,0,0,.51,2.88A.7.7,0,0,0,26.42,31.85Z"/><path class="cls-3" d="M28,23.05a.72.72,0,0,0-1,.09,8.33,8.33,0,0,0-1.45,2.54.72.72,0,0,0,.43.91l.36.13a7.64,7.64,0,0,1,1.92-3.46Z"/><path class="cls-3" d="M31.42,35.78l0,.22a.71.71,0,0,0,.12.53.74.74,0,0,0,.46.29,8.88,8.88,0,0,0,1.45.13,9.12,9.12,0,0,0,1.47-.13.7.7,0,0,0,.57-.83l0-.11a7.16,7.16,0,0,1-1.8.23A7.67,7.67,0,0,1,31.42,35.78Z"/><path class="cls-3" d="M40.91,26.52a.69.69,0,0,0,.39-.89,8.29,8.29,0,0,0-1.47-2.52.71.71,0,0,0-1-.09l0,0A7.5,7.5,0,0,1,40.91,26.52Z"/><path class="cls-3" d="M40.43,31.84a.67.67,0,0,0,.52,0,.73.73,0,0,0,.37-.4,8.54,8.54,0,0,0,.5-2.9.75.75,0,0,0-.21-.51.68.68,0,0,0-.45-.19c0,.24,0,.48,0,.73A7.58,7.58,0,0,1,40.43,31.84Z"/><path class="cls-3" d="M37.86,22.21a.73.73,0,0,0,.07-.54.7.7,0,0,0-.34-.43,8.18,8.18,0,0,0-2.75-1,.71.71,0,0,0-.82.58L34,21a7.56,7.56,0,0,1,3.84,1.26Z"/><path class="cls-3" d="M36.61,35.49l0,.07a.72.72,0,0,0,.43.33.73.73,0,0,0,.54-.07,8.39,8.39,0,0,0,2.23-1.88.7.7,0,0,0,.17-.52.78.78,0,0,0-.25-.48A7.44,7.44,0,0,1,36.61,35.49Z"/><path class="cls-3" d="M27.32,32.73l-.26.22A.7.7,0,0,0,27,34a8.58,8.58,0,0,0,2.23,1.88.78.78,0,0,0,.54.07.7.7,0,0,0,.43-.34l.13-.22A7.61,7.61,0,0,1,27.32,32.73Z"/><path class="cls-3" d="M32.75,20.83a.7.7,0,0,0-.29-.46.66.66,0,0,0-.53-.11,8.5,8.5,0,0,0-2.75,1,.72.72,0,0,0-.25,1l.15.26A7.46,7.46,0,0,1,32.79,21Z"/><path class="cls-3" d="M26.77,31.73l.7-.26a7.15,7.15,0,0,0,.44.76l-.59.5a7.61,7.61,0,0,0,3,2.61l.43-.74a6.34,6.34,0,0,0,.83.3l-.15.88a7.67,7.67,0,0,0,2.21.33,7.16,7.16,0,0,0,1.8-.23l-.17-1a6.34,6.34,0,0,0,.83-.3l.52.89a7.44,7.44,0,0,0,3.16-2.55h0l-.85-.72a7.15,7.15,0,0,0,.44-.76l1,.38h0a7.58,7.58,0,0,0,.76-3.3c0-.25,0-.49,0-.73H40a6.49,6.49,0,0,0-.16-.88l1-.39,0,0A7.5,7.5,0,0,0,38.81,23l-.83.7a7.59,7.59,0,0,0-.68-.57l.53-.92A7.56,7.56,0,0,0,34,21l-.16.93a6.46,6.46,0,0,0-.88,0l-.16-.9a7.46,7.46,0,0,0-3.71,1.48l.41.7a5.27,5.27,0,0,0-.68.57l-.6-.51a7.64,7.64,0,0,0-1.92,3.46L27,27a7.88,7.88,0,0,0-.16.87h-.72c0,.23,0,.46,0,.7A7.56,7.56,0,0,0,26.77,31.73Zm.72-2.47a.71.71,0,0,0,.71-.71v0a5,5,0,0,1,.32-1.74.75.75,0,0,0,0-.55.68.68,0,0,0-.4-.36l-1-.36a7.61,7.61,0,0,1,.51-.87l.79.66a.71.71,0,0,0,1-.09A5.37,5.37,0,0,1,30.8,24a.73.73,0,0,0,.26-1l-.53-.89a6.79,6.79,0,0,1,.95-.35l.18,1a.75.75,0,0,0,.3.46.7.7,0,0,0,.53.11,4.79,4.79,0,0,1,1.81,0,.7.7,0,0,0,.53-.12.74.74,0,0,0,.29-.46l.18-1a6.74,6.74,0,0,1,1,.34l-.52.9A.71.71,0,0,0,36,24a5.14,5.14,0,0,1,1.38,1.16.78.78,0,0,0,.49.25.76.76,0,0,0,.52-.17l.79-.67a7.61,7.61,0,0,1,.51.87l-1,.36a.76.76,0,0,0-.4.37.8.8,0,0,0,0,.55,5.06,5.06,0,0,1,.33,1.79.71.71,0,0,0,.21.5.75.75,0,0,0,.51.21h1a6.87,6.87,0,0,1-.17,1l-1-.35a.7.7,0,0,0-.91.42,5.31,5.31,0,0,1-.9,1.57.74.74,0,0,0-.17.52.7.7,0,0,0,.26.48l.79.67a8,8,0,0,1-.77.65L37,33.3A.73.73,0,0,0,36,33a5.06,5.06,0,0,1-1.69.62.71.71,0,0,0-.58.82l.18,1a5.68,5.68,0,0,1-1,0l.18-1a.71.71,0,0,0-.58-.82,5,5,0,0,1-1.69-.61.69.69,0,0,0-.54-.08.72.72,0,0,0-.44.34l-.52.89a6.7,6.7,0,0,1-.77-.64l.79-.67a.71.71,0,0,0,.09-1,5.33,5.33,0,0,1-.91-1.57.71.71,0,0,0-.91-.42l-1,.36a6.76,6.76,0,0,1-.18-1Z"/><path class="cls-3" d="M.71,23.77h.71V5H.71A.71.71,0,0,1,0,4.27V24.48A.71.71,0,0,1,.71,23.77Z"/><path class="cls-3" d="M14,5.47A.69.69,0,0,1,13.74,5h-.42V23.77H14a.7.7,0,0,1,.71.71V6.16Z"/><path class="cls-3" d="M.71,3.56h.71V2.39a1,1,0,0,1,1-1h10a1,1,0,0,1,1,1V3.56H14a.68.68,0,0,1,.56.29l.15-.13V2.39A2.39,2.39,0,0,0,12.35,0h-10A2.39,2.39,0,0,0,0,2.39V4.27A.71.71,0,0,1,.71,3.56Z"/><path class="cls-3" d="M.71,5h13v0A.72.72,0,0,1,14,4.41l.62-.56A.68.68,0,0,0,14,3.56H.71A.71.71,0,0,0,.71,5Z"/><path class="cls-3" d="M5,28.07l.53.59h6.86a2.39,2.39,0,0,0,2.39-2.39V24.48a.71.71,0,0,1-.71.71h-.71v1.08a1,1,0,0,1-1,1h-10a1,1,0,0,1-1-1V25.19H.71A.71.71,0,0,1,0,24.48v1.79a2.39,2.39,0,0,0,2.39,2.39h1l.54-.59A.74.74,0,0,1,5,28.07Z"/><path class="cls-3" d="M.71,25.19H14a.71.71,0,0,0,0-1.42H.71a.71.71,0,0,0,0,1.42Z"/><path class="cls-3" d="M8.43,1.78H6.31a.71.71,0,0,0,0,1.42H8.43a.71.71,0,0,0,0-1.42Z"/><path class="cls-3" d="M6.31,26.93H8.43a.72.72,0,0,0,0-1.43H6.31a.72.72,0,0,0,0,1.43Z"/><path class="cls-3" d="M15.4,39H5.14V30.4l-.71-.79-.71.79v9.29a.71.71,0,0,0,.71.72h11l.8-.72Z"/><path class="cls-3" d="M3.87,28.66H3.36L1.45,30.8a.72.72,0,0,0,.05,1,.71.71,0,0,0,1-.06L3.72,30.4V29.08A.69.69,0,0,1,3.87,28.66Z"/><path class="cls-3" d="M6.88,32a.74.74,0,0,0,.48-.18.72.72,0,0,0,0-1L5.49,28.66H5a.69.69,0,0,1,.15.42V30.4l1.21,1.35A.71.71,0,0,0,6.88,32Z"/><path class="cls-3" d="M4.43,28.37a.71.71,0,0,1,.56.29h.5L5,28.07a.74.74,0,0,0-1.06,0l-.54.59h.51A.71.71,0,0,1,4.43,28.37Z"/><path class="cls-3" d="M5.14,30.4V29.08A.69.69,0,0,0,5,28.66H3.87a.69.69,0,0,0-.15.42V30.4l.71-.79Z"/><path class="cls-3" d="M4.43,28.37a.71.71,0,0,0-.56.29H5A.71.71,0,0,0,4.43,28.37Z"/><path class="cls-3" d="M17.09,40.41H15.4l-1.35,1.2A.72.72,0,0,0,15,42.68l2.55-2.29s0-.09,0-.14A.7.7,0,0,1,17.09,40.41Z"/><path class="cls-3" d="M14,36.77a.71.71,0,0,0,.06,1L15.4,39h1.69a.62.62,0,0,1,.36.12v-.19L15,36.71A.71.71,0,0,0,14,36.77Z"/><path class="cls-3" d="M18,39.69a.72.72,0,0,0-.23-.53l-.29-.25v.19a.68.68,0,0,1,.35.59.7.7,0,0,1-.29.56s0,.09,0,.14l.19-.17A.69.69,0,0,0,18,39.69Z"/><path class="cls-3" d="M17.51,40.25a1.85,1.85,0,0,1-.06-.42V39.1a.62.62,0,0,0-.36-.12H15.4l.8.71-.8.72h1.69A.7.7,0,0,0,17.51,40.25Z"/><path class="cls-3" d="M17.51,40.25a.7.7,0,0,0,.29-.56.68.68,0,0,0-.35-.59v.73A1.85,1.85,0,0,0,17.51,40.25Z"/><path class="cls-1" d="M16.31,5.65H32.74v8.58l.71.8.72-.8V4.94a.71.71,0,0,0-.72-.71H16.31l-.8.71Z"/><path class="cls-1" d="M32.74,15.55V14.23l-1.21-1.35a.71.71,0,0,0-1.06.95l1.58,1.77h.7S32.74,15.57,32.74,15.55Z"/><path class="cls-1" d="M34.16,15.6h.69l1.59-1.77a.71.71,0,0,0-.06-1,.7.7,0,0,0-1,.05l-1.21,1.35v1.32S34.16,15.58,34.16,15.6Z"/><path class="cls-1" d="M32.74,14.23v1.32s0,0,0,0h1.41s0,0,0,0V14.23l-.72.8Z"/><path class="cls-3" d="M48.24,15.6h-29a1.76,1.76,0,0,0-1.76,1.75V38.91l.29.25a.72.72,0,0,1,.23.53.69.69,0,0,1-.23.53l-.19.17a1.77,1.77,0,0,0,1.66,1.2H29.78v-.72a.71.71,0,0,1,.71-.71H19.21a.33.33,0,0,1-.33-.33V17.35a.33.33,0,0,1,.33-.33h29a.34.34,0,0,1,.34.33V39.83a.34.34,0,0,1-.34.33H37a.71.71,0,0,1,.71.71v.72H48.24A1.76,1.76,0,0,0,50,39.83V17.35A1.76,1.76,0,0,0,48.24,15.6Z"/><path class="cls-1" d="M16.71,7.92a.66.66,0,0,0,.47.19.69.69,0,0,0,.53-.24.71.71,0,0,0-.05-1L16.31,5.65H14.74v.51Z"/><path class="cls-1" d="M16.31,4.23,17.66,3A.71.71,0,0,0,16.71,2l-2,1.76v.51Z"/><path class="cls-3" d="M14.74,6.16V5.65h-.12A.71.71,0,0,1,13.91,5h-.17a.69.69,0,0,0,.23.49Z"/><path class="cls-3" d="M14.74,4.23h0V3.72l-.15.13A.75.75,0,0,1,14.74,4.23Z"/><path class="cls-3" d="M13.91,4.94a.71.71,0,0,1,.71-.71h.12a.75.75,0,0,0-.15-.38L14,4.41a.72.72,0,0,0-.23.53V5h.17Z"/><polygon class="cls-1" points="14.74 4.27 14.74 5.65 16.31 5.65 15.51 4.94 16.31 4.23 14.74 4.23 14.74 4.27"/><path class="cls-3" d="M14,5h-.12a.71.71,0,0,0,.71.67h.12V4.27A.71.71,0,0,1,14,5Z"/><path class="cls-3" d="M14.74,4.23h0v0Z"/><path class="cls-3" d="M13.91,4.94V5H14a.71.71,0,0,0,.71-.71v0h-.12A.71.71,0,0,0,13.91,4.94Z"/><path class="cls-3" d="M10.81,9.24H3.93a.71.71,0,0,0-.71.71V19.5a.71.71,0,0,0,.71.71h6.88a.71.71,0,0,0,.72-.71V10A.71.71,0,0,0,10.81,9.24Zm-.71,9.55H4.64V10.66H10.1Z"/></g></g></svg>