<svg xmlns="http://www.w3.org/2000/svg" viewBox="0 0 50 57.86"><defs><style>.cls-1{fill:#3f4244;}.cls-2{fill:#2d3032;}.cls-3{fill:#f4cd36;}.cls-4{fill:#18467f;}</style></defs><title>Recurso 15_icon_</title><g id="Capa_2" data-name="Capa 2"><g id="Capa_1-2" data-name="Capa 1"><path class="cls-1" d="M.7,42.93a.69.69,0,0,1-.7-.69V.7A.7.7,0,1,1,1.39.7V42.24A.69.69,0,0,1,.7,42.93Z"/><path class="cls-1" d="M12,12.87H4.53a.54.54,0,1,1,0-1.07H12a.54.54,0,0,1,0,1.07Z"/><path class="cls-1" d="M30.68,12.87H27.19a.54.54,0,0,1,0-1.07h3.49a.54.54,0,0,1,0,1.07Z"/><path class="cls-1" d="M25,12.87H19.91a.54.54,0,0,1,0-1.07H25a.54.54,0,0,1,0,1.07Z"/><path class="cls-1" d="M17.5,12.87H14.62a.54.54,0,0,1,0-1.07H17.5a.54.54,0,0,1,0,1.07Z"/><path class="cls-1" d="M12,22.19H4.5a.54.54,0,1,1,0-1.07H12a.54.54,0,0,1,0,1.07Z"/><path class="cls-1" d="M30.65,22.19H22.13a.54.54,0,1,1,0-1.07h8.52a.54.54,0,0,1,0,1.07Z"/><path class="cls-1" d="M19.91,22.19H14.59a.54.54,0,0,1,0-1.07h5.32a.54.54,0,1,1,0,1.07Z"/><path class="cls-1" d="M12,31.13H5.43a.54.54,0,0,1,0-1.07H12a.54.54,0,0,1,0,1.07Z"/><path class="cls-2" d="M30.65,31.13h-3.9a.54.54,0,0,1,0-1.07h3.9a.54.54,0,0,1,0,1.07Z"/><path class="cls-1" d="M25,31.13H20.19a.54.54,0,0,1,0-1.07H25a.54.54,0,0,1,0,1.07Z"/><path class="cls-1" d="M17.47,31.13H14.59a.54.54,0,0,1,0-1.07h2.88a.54.54,0,0,1,0,1.07Z"/><path class="cls-1" d="M34.67,37.26c-.38,0-.69-1.2-.69-2.68v-26c0-.66,0-1.75.05-1.8.11-.5.43-.88.64-.88a.81.81,0,0,1,.7.59V34.58C35.37,36.06,35.06,37.26,34.67,37.26Z"/><path class="cls-2" d="M34.67,40.66A.69.69,0,0,1,34,40V33.55a.7.7,0,1,1,1.39,0V40A.69.69,0,0,1,34.67,40.66Z"/><path class="cls-1" d="M6.4,47.83c-.2,0-.41,0-.61,0C2.49,47.52,0,45.12,0,42.2a.7.7,0,1,1,1.39,0c0,2.19,1.94,4,4.52,4.21a3.93,3.93,0,0,0,.49,0c2.77,0,5-1.9,5-4.23V40a.7.7,0,0,1,.7-.7.69.69,0,0,1,.69.7V42.2C12.8,45.3,9.93,47.83,6.4,47.83Z"/><path class="cls-1" d="M33.35,47.83H6.4a.7.7,0,0,1,0-1.4c2.77,0,5-1.9,5-4.23V40a.7.7,0,0,1,.7-.7h27a.69.69,0,0,1,.69.7V42.2C39.75,45.3,36.88,47.83,33.35,47.83Zm-22.74-1.4H33.35c2.76,0,5-1.9,5-4.23V40.66H12.8V42.2A5.34,5.34,0,0,1,10.61,46.43Z"/><rect class="cls-1" width="35.37" height="7.72" rx="0.7"/><path class="cls-3" d="M31.9,41.18c7.1,0,10.77-1.33,10.77-1.89V33.14c-2.25,1.26-7.6,1.63-10.77,1.63s-8.53-.37-10.78-1.63v6.15C21.12,39.85,24.79,41.18,31.9,41.18Z"/><path class="cls-3" d="M47.56,55a1.39,1.39,0,1,0-1.39-1.39A1.38,1.38,0,0,0,47.56,55Z"/><path class="cls-3" d="M30.2,54.94a1.86,1.86,0,1,0,1.85-1.86A1.85,1.85,0,0,0,30.2,54.94Zm1.73.38a.38.38,0,0,0,.38-.38.53.53,0,0,1,1.06,0,1.44,1.44,0,0,1-1.44,1.44.53.53,0,0,1-.53-.53A.53.53,0,0,1,31.93,55.32Z"/><path class="cls-3" d="M31.9,22.61c-6.87,0-10.72,1.26-10.77,1.9h0l0,.06s0,0,0,.06l.06.07.07.06.11.07.11.07a1.19,1.19,0,0,0,.16.08l.14.07.21.08.17.07.26.09.21.07.3.09.26.07.34.08.29.07.41.09.31.06.46.08.34.06.51.07.37.05.56.06.4.05.6.05.45,0,.66,0,.46,0,.76,0,.45,0h2.57l.46,0,.75,0,.48,0,.64,0,.45,0,.6-.05.4-.05.56-.06.4-.06L38.4,26l.37-.07.43-.07.34-.07.38-.08.32-.07.31-.08.28-.08.27-.08.24-.07.23-.08.2-.08.19-.08.15-.07.15-.08a.52.52,0,0,0,.11-.07l.11-.07a.23.23,0,0,0,.07-.07l.07-.06s0,0,0-.06,0,0,0-.06h0C42.61,23.87,38.76,22.61,31.9,22.61Z"/><path class="cls-3" d="M21.12,40.61v5.26c0,.3,1.07.83,3.16,1.25h.08a.5.5,0,0,1,.27.08,40.31,40.31,0,0,0,7.27.58c7.1,0,10.77-1.33,10.77-1.9V40.61c-2.25,1.26-7.6,1.64-10.77,1.64S23.37,41.87,21.12,40.61Z"/><path class="cls-3" d="M16.45,52.25a1.39,1.39,0,1,0,1.38,1.38A1.38,1.38,0,0,0,16.45,52.25Z"/><path class="cls-3" d="M31.9,33.71c7.1,0,10.77-1.33,10.77-1.9v-6l-.14.07-.18.09-.43.18-.17.07c-.21.07-.43.15-.67.21l-.12,0-.63.16-.25,0-.58.12-.26.05L38.5,27l-.11,0-.88.12-.26,0-.65.07-.29,0-.68.06h-.22c-.29,0-.58,0-.87.06h-.18l-.67,0H30.1l-.68,0h-.17c-.29,0-.58,0-.87-.06h-.22l-.68-.06-.29,0-.65-.07-.26,0L25.4,27l-.1,0-.75-.12-.26-.05-.58-.12-.25,0-.63-.16-.12,0c-.24-.06-.46-.14-.67-.21l-.17-.07L21.44,26l-.18-.09-.14-.07v6C21.12,32.38,24.79,33.71,31.9,33.71Z"/><path class="cls-4" d="M35.41,27.34h0Z"/><path class="cls-4" d="M34.87,26.33l-.48,0Z"/><path class="cls-4" d="M25.39,26l-.34-.06Z"/><path class="cls-4" d="M33.64,26.38l-.46,0Z"/><path class="cls-4" d="M37.92,26l-.4.06Z"/><path class="cls-4" d="M36,26.25l-.45,0Z"/><path class="cls-4" d="M36.31,27.27l.29,0Z"/><path class="cls-4" d="M37,26.15l-.4.05Z"/><path class="cls-4" d="M27.23,26.2l-.4-.05Z"/><path class="cls-4" d="M34.36,27.41h0Z"/><path class="cls-4" d="M32.62,27.47h0Z"/><path class="cls-4" d="M26.27,26.09,25.9,26Z"/><path class="cls-4" d="M28.28,26.29l-.45,0Z"/><path class="cls-4" d="M30.61,26.4l-.45,0Z"/><path class="cls-4" d="M29.4,26.36l-.46,0Z"/><path class="cls-4" d="M33.43,27.45h0Z"/><path class="cls-4" d="M37.25,27.17l.26,0Z"/><path class="cls-4" d="M42.55,24.7a.23.23,0,0,1-.07.07A.23.23,0,0,0,42.55,24.7Z"/><path class="cls-4" d="M42.37,24.84a.52.52,0,0,1-.11.07A.52.52,0,0,0,42.37,24.84Z"/><path class="cls-4" d="M38.77,25.9,38.4,26Z"/><path class="cls-4" d="M40.08,26.72l.25,0Z"/><path class="cls-4" d="M42.11,25l-.15.07Z"/><path class="cls-4" d="M42.35,26l.18-.09Z"/><path class="cls-4" d="M41.75,26.26l.17-.07Z"/><path class="cls-4" d="M42.64,24.58s0,0,0,.06S42.63,24.6,42.64,24.58Z"/><path class="cls-4" d="M41,26.51l.12,0Z"/><path class="cls-4" d="M40.24,25.61l-.32.07Z"/><path class="cls-4" d="M38.39,27l.11,0Z"/><path class="cls-4" d="M41.77,25.14l-.2.08Z"/><path class="cls-4" d="M39.54,25.76l-.34.07Z"/><path class="cls-4" d="M40.83,25.45l-.28.08Z"/><path class="cls-4" d="M41.34,25.3l-.24.07Z"/><path class="cls-4" d="M39.24,26.89l.26-.05Z"/><path class="cls-4" d="M29.25,27.4h0Z"/><path class="cls-4" d="M28.16,27.33h0Z"/><path class="cls-4" d="M21.31,24.77l-.07-.06Z"/><path class="cls-4" d="M21.53,24.91l-.11-.07Z"/><path class="cls-4" d="M21.18,24.64s0,0,0-.06S21.16,24.62,21.18,24.64Z"/><path class="cls-4" d="M22.21,25.21,22,25.14Z"/><path class="cls-4" d="M22.71,26.47l.12,0Z"/><path class="cls-4" d="M21.83,25.06,21.69,25Z"/><path class="cls-4" d="M25.3,27l.1,0Z"/><path class="cls-4" d="M23.46,26.67l.25,0Z"/><path class="cls-4" d="M26.28,27.15l.26,0Z"/><path class="cls-4" d="M24.29,26.84l.26.05Z"/><path class="cls-4" d="M27.19,27.24l.29,0Z"/><path class="cls-1" d="M20.59,24a.53.53,0,0,1,.53.53h0c.05-.64,3.9-1.9,10.77-1.9s10.71,1.26,10.77,1.9h0a.53.53,0,0,1,1.06,0s0-.06,0-.09c-.21-2.27-7.82-2.87-11.82-2.87s-11.64.6-11.83,2.85c0,0,0,.09,0,.11A.53.53,0,0,1,20.59,24Z"/><path class="cls-4" d="M23.24,25.53,23,25.46Z"/><path class="cls-4" d="M24.59,25.83l-.31-.06Z"/><path class="cls-4" d="M30.93,27.46h0Z"/><path class="cls-4" d="M30.1,27.44h0Z"/><path class="cls-4" d="M21.26,25.92l.18.09Z"/><path class="cls-4" d="M23.87,25.68l-.29-.07Z"/><path class="cls-4" d="M21.87,26.19l.17.07Z"/><path class="cls-4" d="M22.68,25.37l-.21-.07Z"/><path class="cls-1" d="M42.67,33.14V31.81c0,.57-3.67,1.9-10.77,1.9s-10.78-1.33-10.78-1.9v1.33c2.25,1.26,7.6,1.63,10.78,1.63S40.42,34.4,42.67,33.14Z"/><path class="cls-1" d="M31.9,41.18c-7.11,0-10.78-1.33-10.78-1.89v1.32c2.25,1.26,7.6,1.64,10.78,1.64s8.52-.38,10.77-1.64V39.29C42.67,39.85,39,41.18,31.9,41.18Z"/><path class="cls-1" d="M32.05,53.08a1.86,1.86,0,1,1-1.85,1.86,1.86,1.86,0,0,1,1.85-1.86.53.53,0,0,1-.53-.53v-.47a2.92,2.92,0,1,0,1.06,0v.47A.52.52,0,0,1,32.05,53.08Z"/><path class="cls-3" d="M31.93,56.38a1.44,1.44,0,0,0,1.44-1.44.53.53,0,0,0-1.06,0,.38.38,0,0,1-.38.38.53.53,0,0,0-.53.53A.53.53,0,0,0,31.93,56.38Z"/><path class="cls-4" d="M21.44,26l.43.18Z"/><path class="cls-4" d="M23.71,26.72l.58.12Z"/><path class="cls-4" d="M22,26.26c.21.07.43.15.67.21C22.47,26.41,22.25,26.33,22,26.26Z"/><path class="cls-4" d="M22.83,26.51l.63.16Z"/><path class="cls-4" d="M41.08,26.47c.24-.06.46-.14.67-.21C41.54,26.33,41.32,26.41,41.08,26.47Z"/><path class="cls-4" d="M24.55,26.89l.75.12Z"/><path class="cls-4" d="M41.92,26.19l.43-.18Z"/><path class="cls-4" d="M33.69,27.44l.67,0Z"/><path class="cls-4" d="M31.9,27.47h0Z"/><path class="cls-4" d="M34.54,27.4c.29,0,.58,0,.87-.06C35.12,27.37,34.83,27.38,34.54,27.4Z"/><path class="cls-4" d="M29.42,27.41l.68,0Z"/><path class="cls-4" d="M32.86,27.46h0Z"/><path class="cls-4" d="M30.36,27.45h0Z"/><path class="cls-4" d="M31.17,27.47h0Z"/><path class="cls-4" d="M35.63,27.33l.68-.06Z"/><path class="cls-4" d="M26.54,27.17l.65.07Z"/><path class="cls-4" d="M39.5,26.84l.58-.12Z"/><path class="cls-4" d="M38.5,27l.74-.12Z"/><path class="cls-4" d="M25.4,27l.88.12Z"/><path class="cls-4" d="M27.48,27.27l.68.06Z"/><path class="cls-4" d="M36.6,27.24l.65-.07Z"/><path class="cls-4" d="M37.51,27.15l.88-.12Z"/><path class="cls-4" d="M28.38,27.34c.29,0,.58,0,.87.06C29,27.38,28.67,27.37,28.38,27.34Z"/><path class="cls-4" d="M40.33,26.67l.63-.16Z"/><path class="cls-4" d="M26.83,26.15l-.56-.06Z"/><path class="cls-4" d="M25.05,25.91l-.46-.08Z"/><path class="cls-4" d="M25.9,26,25.39,26Z"/><path class="cls-4" d="M24.28,25.77l-.41-.09Z"/><path class="cls-4" d="M30.16,26.38l-.76,0Z"/><path class="cls-4" d="M27.83,26.25l-.6-.05Z"/><path class="cls-4" d="M23.58,25.61l-.34-.08Z"/><path class="cls-4" d="M31.9,26.41h0Z"/><path class="cls-4" d="M28.94,26.33l-.66,0Z"/><path class="cls-1" d="M20.59,38.75a.54.54,0,0,1,.53.54V33.14c-.65-.36-1.06-.8-1.06-1.33v7.48A.54.54,0,0,1,20.59,38.75Z"/><path class="cls-4" d="M21.24,24.71l-.06-.07Z"/><path class="cls-4" d="M21.12,24.53l0,0,0-.06Z"/><path class="cls-1" d="M20.59,31.28a.53.53,0,0,1,.53.53v-6l.14.07c-.74-.38-1.2-.84-1.2-1.41v7.3A.53.53,0,0,1,20.59,31.28Z"/><path class="cls-4" d="M33.18,26.4h0Z"/><path class="cls-4" d="M21.42,24.84l-.11-.07Z"/><path class="cls-4" d="M22.47,25.3l-.26-.09Z"/><path class="cls-4" d="M23,25.46l-.3-.09Z"/><path class="cls-4" d="M22,25.14l-.21-.08Z"/><path class="cls-4" d="M21.69,25a1.19,1.19,0,0,1-.16-.08A1.19,1.19,0,0,0,21.69,25Z"/><path class="cls-4" d="M36.56,26.2l-.6.05Z"/><path class="cls-4" d="M42.62,24.64l-.07.06Z"/><path class="cls-4" d="M42.48,24.77l-.11.07Z"/><path class="cls-4" d="M41.57,25.22l-.23.08Z"/><path class="cls-4" d="M42,25.06l-.19.08Z"/><path class="cls-4" d="M42.26,24.91l-.15.08Z"/><path class="cls-1" d="M42.67,33.14v6.15a.53.53,0,1,1,1.06,0V31.81C43.73,32.34,43.32,32.78,42.67,33.14Z"/><path class="cls-4" d="M42.67,24.53h0s0,0,0,.06Z"/><path class="cls-1" d="M39.65,47.11a.53.53,0,0,1,.53.53v.42c2-.46,3.55-1.16,3.55-2.19V39.29c0,.52-.41,1-1.06,1.32v5.26c0,.57-3.67,1.9-10.77,1.9a40.31,40.31,0,0,1-7.27-.58.52.52,0,0,1,.26.45v.66a45.51,45.51,0,0,0,6.63.52V48.3a.53.53,0,0,1,.53-.53.53.53,0,0,1,.53.53v.52a44.91,44.91,0,0,0,6.54-.56v-.62A.52.52,0,0,1,39.65,47.11Z"/><path class="cls-1" d="M42.53,25.92l.14-.07v6a.53.53,0,1,1,1.06,0v-7.3C43.73,25.08,43.27,25.54,42.53,25.92Z"/><path class="cls-4" d="M40.55,25.53l-.31.08Z"/><path class="cls-4" d="M37.52,26.09l-.56.06Z"/><path class="cls-4" d="M35.51,26.29l-.64,0Z"/><path class="cls-4" d="M38.4,26l-.48.06Z"/><path class="cls-4" d="M41.1,25.37l-.27.08Z"/><path class="cls-4" d="M34.39,26.36l-.75,0Z"/><path class="cls-4" d="M39.2,25.83l-.43.07Z"/><path class="cls-1" d="M24.28,47.12c-2.09-.42-3.16-.95-3.16-1.25V40.61c-.65-.36-1.06-.8-1.06-1.32v6.58c0,1.07,1.62,1.78,3.77,2.23v-.46A.53.53,0,0,1,24.28,47.12Z"/><path class="cls-4" d="M39.92,25.68l-.38.08Z"/><path class="cls-1" d="M21.26,25.92l.18.09.43.18.17.07c.21.07.43.15.67.21l.12,0,.63.16.25,0,.58.12.26.05.75.12.1,0,.88.12.26,0,.65.07.29,0,.68.06h.22c.29,0,.58,0,.87.06h.17l.68,0h3.59l.67,0h.18c.29,0,.58,0,.87-.06h.22l.68-.06.29,0,.65-.07.26,0,.88-.12.11,0,.74-.12.26-.05.58-.12.25,0,.63-.16.12,0c.24-.06.46-.14.67-.21l.17-.07.43-.18.18-.09c.74-.38,1.2-.84,1.2-1.41a.53.53,0,0,0-1.06,0h0l0,0s0,0,0,.06l-.07.06a.23.23,0,0,1-.07.07l-.11.07a.52.52,0,0,1-.11.07l-.15.08-.15.07-.19.08-.2.08-.23.08-.24.07-.27.08-.28.08-.31.08-.32.07-.38.08-.34.07-.43.07L38.4,26l-.48.06-.4.06-.56.06-.4.05-.6.05-.45,0-.64,0-.48,0-.75,0-.46,0H30.61l-.45,0-.76,0-.46,0-.66,0-.45,0-.6-.05-.4-.05-.56-.06L25.9,26,25.39,26l-.34-.06-.46-.08-.31-.06-.41-.09-.29-.07-.34-.08L23,25.46l-.3-.09-.21-.07-.26-.09L22,25.14l-.21-.08L21.69,25a1.19,1.19,0,0,1-.16-.08l-.11-.07-.11-.07-.07-.06-.06-.07s0,0,0-.06l0,0h0a.53.53,0,0,0-1.06,0C20.06,25.08,20.52,25.54,21.26,25.92Z"/><path class="cls-1" d="M21.12,33.14V31.81a.53.53,0,0,0-1.06,0C20.06,32.34,20.47,32.78,21.12,33.14Z"/><path class="cls-1" d="M43.2,31.28a.53.53,0,0,0-.53.53v1.33c.65-.36,1.06-.8,1.06-1.33A.53.53,0,0,0,43.2,31.28Z"/><path class="cls-1" d="M21.12,40.61V39.29a.53.53,0,1,0-1.06,0C20.06,39.81,20.47,40.25,21.12,40.61Z"/><path class="cls-1" d="M43.2,38.75a.54.54,0,0,0-.53.54v1.32c.65-.36,1.06-.8,1.06-1.32A.54.54,0,0,0,43.2,38.75Z"/><path class="cls-1" d="M31.52,48.82v3.26a2.39,2.39,0,0,1,.53-.06,2.33,2.33,0,0,1,.53.06V48.82H31.52Z"/><path class="cls-1" d="M31.52,52.08v.47a.53.53,0,0,0,.53.53.52.52,0,0,0,.53-.53v-.47a2.33,2.33,0,0,0-.53-.06A2.39,2.39,0,0,0,31.52,52.08Z"/><path class="cls-1" d="M32.05,47.77a.53.53,0,0,0-.53.53v.52h1.06V48.3A.53.53,0,0,0,32.05,47.77Z"/><path class="cls-1" d="M45.17,53.1h-5v-5l-1.06.2v5.37a.52.52,0,0,0,.53.53h5.52a3,3,0,0,1-.06-.53A3.19,3.19,0,0,1,45.17,53.1Z"/><path class="cls-1" d="M40.18,47.64a.53.53,0,0,0-.53-.53.52.52,0,0,0-.53.53v.62l1.06-.2Z"/><path class="cls-1" d="M47.56,51.19a2.46,2.46,0,0,0-2.39,1.91h.47a.53.53,0,0,1,.53.53A1.39,1.39,0,1,1,47.56,55a1.38,1.38,0,0,1-1.39-1.39.52.52,0,0,1-.53.53h-.47a2.44,2.44,0,1,0,2.39-3Z"/><path class="cls-1" d="M46.17,53.63a.53.53,0,0,0-.53-.53h-.47a3.19,3.19,0,0,0-.06.53,3,3,0,0,0,.06.53h.47A.52.52,0,0,0,46.17,53.63Z"/><path class="cls-1" d="M23.83,53.1h-5a2.39,2.39,0,0,1,.06.53,2.26,2.26,0,0,1-.06.53h5.53a.53.53,0,0,0,.53-.53V48.3l-1.06-.2Z"/><path class="cls-4" d="M24.28,47.12l.35.07a.5.5,0,0,0-.27-.08Z"/><path class="cls-1" d="M24.63,47.19l-.35-.07a.53.53,0,0,0-.45.52v.46l1.06.2v-.66A.52.52,0,0,0,24.63,47.19Z"/><path class="cls-1" d="M17.83,53.63a1.38,1.38,0,1,1-1.38-1.38,1.38,1.38,0,0,1,1.38,1.38.53.53,0,0,1,.53-.53h.47a2.45,2.45,0,1,0,0,1.06h-.47A.53.53,0,0,1,17.83,53.63Z"/><path class="cls-1" d="M18.83,53.1h-.47a.53.53,0,0,0-.53.53.53.53,0,0,0,.53.53h.47a2.26,2.26,0,0,0,.06-.53A2.39,2.39,0,0,0,18.83,53.1Z"/></g></g></svg>