<svg xmlns="http://www.w3.org/2000/svg" viewBox="0 0 50 56.44"><defs><style>.cls-1{fill:#3d3f41;}.cls-2{fill:#f4cd36;}.cls-3{fill:#fff;}.cls-4{fill:#2e3133;}</style></defs><title>Recurso 19_icon_</title><g id="Capa_2" data-name="Capa 2"><g id="Capa_1-2" data-name="Capa 1"><path class="cls-1" d="M6.06,22.2A1.92,1.92,0,1,1,8,20.28,1.92,1.92,0,0,1,6.06,22.2Zm0-2.62a.71.71,0,1,0,.7.7A.7.7,0,0,0,6.06,19.58Z"/><path class="cls-1" d="M23.31,22.4a.6.6,0,0,1-.6-.61V18.1a.61.61,0,1,1,1.21,0v3.69A.61.61,0,0,1,23.31,22.4Z"/><path class="cls-1" d="M27.59,22.4a.6.6,0,0,1-.6-.61V18.1a.61.61,0,1,1,1.21,0v3.69A.61.61,0,0,1,27.59,22.4Z"/><path class="cls-1" d="M31.87,22.4a.61.61,0,0,1-.61-.61V18.1a.61.61,0,0,1,.61-.61.61.61,0,0,1,.61.61v3.69A.61.61,0,0,1,31.87,22.4Z"/><path class="cls-1" d="M36.15,22.4a.61.61,0,0,1-.61-.61V18.1a.61.61,0,0,1,.61-.61.61.61,0,0,1,.61.61v3.69A.61.61,0,0,1,36.15,22.4Z"/><path class="cls-1" d="M6.06,35.61A1.92,1.92,0,1,1,8,33.69,1.92,1.92,0,0,1,6.06,35.61Zm0-2.62a.7.7,0,1,0,.7.7A.7.7,0,0,0,6.06,33Z"/><path class="cls-1" d="M23.31,35.8a.6.6,0,0,1-.6-.6V31.5a.61.61,0,0,1,1.21,0v3.7A.6.6,0,0,1,23.31,35.8Z"/><path class="cls-1" d="M27.59,35.8a.6.6,0,0,1-.6-.6V31.5a.61.61,0,0,1,1.21,0v3.7A.6.6,0,0,1,27.59,35.8Z"/><path class="cls-1" d="M31.87,35.8a.61.61,0,0,1-.61-.6V31.5a.61.61,0,0,1,.61-.6.6.6,0,0,1,.61.6v3.7A.6.6,0,0,1,31.87,35.8Z"/><path class="cls-1" d="M36.15,35.8a.61.61,0,0,1-.61-.6V31.5a.61.61,0,0,1,.61-.6.6.6,0,0,1,.61.6v3.7A.6.6,0,0,1,36.15,35.8Z"/><path class="cls-1" d="M6.06,49A1.92,1.92,0,1,1,8,47.09,1.92,1.92,0,0,1,6.06,49Zm0-2.62a.71.71,0,1,0,.7.7A.7.7,0,0,0,6.06,46.39Z"/><path class="cls-1" d="M23.31,49.21a.6.6,0,0,1-.6-.61V44.91a.61.61,0,1,1,1.21,0V48.6A.61.61,0,0,1,23.31,49.21Z"/><path class="cls-1" d="M27.59,49.21a.6.6,0,0,1-.6-.61V44.91a.61.61,0,1,1,1.21,0V48.6A.61.61,0,0,1,27.59,49.21Z"/><path class="cls-1" d="M31.87,49.21a.61.61,0,0,1-.61-.61V44.91a.61.61,0,0,1,.61-.61.61.61,0,0,1,.61.61V48.6A.61.61,0,0,1,31.87,49.21Z"/><path class="cls-1" d="M36.15,49.21a.61.61,0,0,1-.61-.61V44.91a.61.61,0,0,1,.61-.61.61.61,0,0,1,.61.61V48.6A.61.61,0,0,1,36.15,49.21Z"/><path class="cls-1" d="M41,26.56H.61A.61.61,0,0,1,0,26V15.21a.61.61,0,0,1,.61-.61H41a.6.6,0,0,1,.6.61V26A.6.6,0,0,1,41,26.56ZM1.22,25.35H40.37V15.81H1.22Z"/><path class="cls-1" d="M41,53.37H.61A.61.61,0,0,1,0,52.76V42a.61.61,0,0,1,.61-.61H41a.6.6,0,0,1,.6.61V52.76A.6.6,0,0,1,41,53.37ZM1.22,52.16H40.37V42.62H1.22Z"/><path class="cls-1" d="M36.15,42.62H5.43a.6.6,0,0,1-.6-.6V39.36a.6.6,0,0,1,.6-.61H36.15a.61.61,0,0,1,.61.61V42A.6.6,0,0,1,36.15,42.62ZM6,41.41h29.5V40H6Z"/><path class="cls-1" d="M36.15,29.22H5.43a.6.6,0,0,1-.6-.61V26a.6.6,0,0,1,.6-.6H36.15a.6.6,0,0,1,.61.6v2.66A.61.61,0,0,1,36.15,29.22ZM6,28h29.5V26.56H6Z"/><path class="cls-1" d="M41,40H.61A.61.61,0,0,1,0,39.36V28.61A.61.61,0,0,1,.61,28H41a.61.61,0,0,1,.6.61V39.36A.61.61,0,0,1,41,40ZM1.22,38.75H40.37V29.22H1.22Z"/><path class="cls-1" d="M9.1,56.44H4.86a.6.6,0,0,1-.61-.6V52.76a.6.6,0,0,1,.61-.6H9.1a.6.6,0,0,1,.61.6v3.08A.6.6,0,0,1,9.1,56.44ZM5.47,55.23h3V53.37h-3Z"/><path class="cls-1" d="M36.72,56.44H32.48a.6.6,0,0,1-.6-.6V52.76a.6.6,0,0,1,.6-.6h4.24a.6.6,0,0,1,.61.6v3.08A.6.6,0,0,1,36.72,56.44Zm-3.63-1.21h3V53.37h-3Z"/><path class="cls-2" d="M36,7.14h.21a10.44,10.44,0,0,1,10.42,10,2.89,2.89,0,0,0,2.58-2.93A3,3,0,0,0,47,11.31a.4.4,0,0,1-.32-.44v0a.27.27,0,0,1,.06-.17,4.73,4.73,0,0,0,.75-2.57A4.5,4.5,0,0,0,43.06,3.5a4.25,4.25,0,0,0-3,1.24.41.41,0,0,1-.69-.24,4.09,4.09,0,0,0-4-3.68A4,4,0,0,0,31.74,3.3a.41.41,0,0,1-.47.23,4.7,4.7,0,0,0-.91-.1A4.48,4.48,0,0,0,26,8a4.7,4.7,0,0,0,.78,2.61.41.41,0,0,1-.34.64h-.51a3,3,0,0,0-.15,5.89A10.43,10.43,0,0,1,36,7.14Zm8.24-1.76a1.41,1.41,0,1,1-1.42,1.41A1.41,1.41,0,0,1,44.21,5.38Z"/><path class="cls-3" d="M33.57,8.32a9.61,9.61,0,0,0-7,8.84h4.15C30.81,13.27,31.92,10,33.57,8.32Z"/><path class="cls-3" d="M38.66,8.28c1.67,1.66,2.79,5,2.87,8.88h4.25A9.63,9.63,0,0,0,38.66,8.28Z"/><path class="cls-3" d="M44.21,7.38a.59.59,0,0,0,.59-.59.6.6,0,1,0-.59.59Z"/><path class="cls-3" d="M30.74,18H26.58a9.59,9.59,0,0,0,7,8.84C31.92,25.15,30.81,21.87,30.74,18Z"/><path class="cls-3" d="M40.71,17.16c-.1-4.75-1.91-8.72-4.12-9.17v9.17Z"/><path class="cls-3" d="M35.77,27.15V18H31.56C31.66,22.79,33.52,26.81,35.77,27.15Z"/><path class="cls-3" d="M38.66,26.85A9.58,9.58,0,0,0,45.78,18H41.53C41.45,21.9,40.32,25.2,38.66,26.85Z"/><path class="cls-3" d="M36.59,27.14c2.21-.45,4-4.42,4.12-9.16H36.59Z"/><path class="cls-3" d="M35.77,8c-2.25.35-4.11,4.37-4.21,9.18h4.21Z"/><path class="cls-4" d="M47.64,10.67a5.59,5.59,0,0,0,.63-2.58,5.31,5.31,0,0,0-5.21-5.4,5,5,0,0,0-3,1,4.77,4.77,0,0,0-8.93-1,4.87,4.87,0,0,0-.76-.06A5.29,5.29,0,0,0,25.17,8a5.61,5.61,0,0,0,.55,2.43,3.78,3.78,0,0,0,0,7.53c0-.13,0-.26,0-.39s0-.29,0-.43a3,3,0,0,1,.15-5.89h.51a.41.41,0,0,0,.34-.64A4.7,4.7,0,0,1,26,8a4.48,4.48,0,0,1,4.37-4.57,4.7,4.7,0,0,1,.91.1.41.41,0,0,0,.47-.23A4,4,0,0,1,35.39.82a4.09,4.09,0,0,1,4,3.68.41.41,0,0,0,.69.24,4.25,4.25,0,0,1,3-1.24,4.5,4.5,0,0,1,4.39,4.59,4.73,4.73,0,0,1-.75,2.57.27.27,0,0,0-.06.17v0a.4.4,0,0,0,.32.44,3,3,0,0,1,2.23,2.89,2.89,2.89,0,0,1-2.58,2.93c0,.15,0,.29,0,.44s0,.25,0,.38A3.71,3.71,0,0,0,50,14.2,3.79,3.79,0,0,0,47.64,10.67Z"/><path class="cls-4" d="M41.54,17.57c0,.13,0,.27,0,.41h4.25c0-.14,0-.28,0-.41s0-.28,0-.41H41.53C41.53,17.29,41.54,17.43,41.54,17.57Z"/><path class="cls-4" d="M40.71,17.16H36.59V18h4.12c0-.14,0-.28,0-.41S40.71,17.29,40.71,17.16Z"/><path class="cls-4" d="M30.73,17.57c0-.14,0-.28,0-.41H26.59c0,.13,0,.27,0,.41s0,.27,0,.41h4.16C30.73,17.84,30.73,17.7,30.73,17.57Z"/><path class="cls-4" d="M31.56,17.16c0,.13,0,.27,0,.41s0,.27,0,.41h4.21v-.82Z"/><path class="cls-4" d="M36.18,7.13h0Z"/><path class="cls-4" d="M29.18,24.16A9.61,9.61,0,0,1,26.58,18h-.66l-.16,0a10.39,10.39,0,0,0,2.83,6.76A10.27,10.27,0,0,0,36,28a3.59,3.59,0,0,1-2.4-1.17A9.62,9.62,0,0,1,29.18,24.16Z"/><path class="cls-4" d="M26.59,17.16a9.61,9.61,0,0,1,7-8.84A3.54,3.54,0,0,1,36,7.14a10.43,10.43,0,0,0-10.2,10l.15,0Z"/><path class="cls-4" d="M36.18,7.13a3.54,3.54,0,0,1,2.48,1.15,9.63,9.63,0,0,1,7.12,8.88h.58a2,2,0,0,0,.24,0A10.44,10.44,0,0,0,36.18,7.13Z"/><path class="cls-4" d="M36.1,28h0Z"/><path class="cls-4" d="M45.78,18a9.58,9.58,0,0,1-7.12,8.87A3.5,3.5,0,0,1,36.18,28,10.41,10.41,0,0,0,46.6,18a2,2,0,0,1-.24,0Z"/><path class="cls-4" d="M26.58,18c0-.14,0-.28,0-.41s0-.28,0-.41h-.67l-.15,0c0,.14,0,.28,0,.43s0,.26,0,.39l.16,0Z"/><path class="cls-4" d="M46.6,17.13a2,2,0,0,1-.24,0h-.58c0,.13,0,.27,0,.41s0,.27,0,.41h.58a2,2,0,0,0,.24,0c0-.13,0-.26,0-.38S46.6,17.28,46.6,17.13Z"/><path class="cls-4" d="M30.74,17.16h.82c.1-4.81,2-8.83,4.21-9.18h0a9.36,9.36,0,0,0-2.2.35C31.92,10,30.81,13.27,30.74,17.16Z"/><path class="cls-4" d="M36.08,7.13h0Z"/><path class="cls-4" d="M36.08,28h0Z"/><path class="cls-4" d="M31.56,18h-.82c.07,3.89,1.18,7.17,2.83,8.84a9.52,9.52,0,0,0,2.2.34h0C33.52,26.81,31.66,22.79,31.56,18Z"/><path class="cls-4" d="M31.56,17.16h-.82c0,.13,0,.27,0,.41s0,.27,0,.41h.82c0-.14,0-.28,0-.41S31.55,17.29,31.56,17.16Z"/><path class="cls-4" d="M35.77,27.59v-.43a9.52,9.52,0,0,1-2.2-.34A3.59,3.59,0,0,0,36,28h.16A.4.4,0,0,1,35.77,27.59Z"/><path class="cls-4" d="M35.77,7.54a.4.4,0,0,1,.36-.4H36a3.54,3.54,0,0,0-2.4,1.18A9.36,9.36,0,0,1,35.77,8Z"/><path class="cls-4" d="M41.53,18h-.82c-.1,4.74-1.91,8.71-4.12,9.16v0a9.49,9.49,0,0,0,2.07-.31C40.32,25.2,41.45,21.9,41.53,18Z"/><path class="cls-4" d="M36.59,8c2.21.45,4,4.42,4.12,9.17h.82c-.08-3.92-1.2-7.22-2.87-8.88A9.94,9.94,0,0,0,36.59,8Z"/><path class="cls-4" d="M40.72,17.57c0,.13,0,.27,0,.41h.82c0-.14,0-.28,0-.41s0-.28,0-.41h-.82C40.71,17.29,40.72,17.43,40.72,17.57Z"/><path class="cls-4" d="M36.59,27.16v.43a.41.41,0,0,1-.41.41,3.5,3.5,0,0,0,2.48-1.15A9.49,9.49,0,0,1,36.59,27.16Z"/><path class="cls-4" d="M36.59,7.54V8a9.94,9.94,0,0,1,2.07.31,3.54,3.54,0,0,0-2.48-1.15A.41.41,0,0,1,36.59,7.54Z"/><path class="cls-4" d="M36.59,18h-.82v9.17l.23,0h.18a1.84,1.84,0,0,0,.41,0Z"/><path class="cls-4" d="M36.59,17.16V8a2.71,2.71,0,0,0-.41,0H36l-.23,0v9.18Z"/><rect class="cls-4" x="35.77" y="17.16" width="0.82" height="0.82"/><path class="cls-4" d="M36.08,27.18h0Z"/><path class="cls-4" d="M36,8h0Z"/><path class="cls-4" d="M35.77,8h0L36,8Z"/><path class="cls-4" d="M35.77,27.15H36Z"/><path class="cls-4" d="M36,27.17h-.23v.43a.41.41,0,0,1,.36-.4H36Z"/><path class="cls-4" d="M36.08,8h.05a.41.41,0,0,1-.36-.4V8h.31Z"/><path class="cls-4" d="M36.59,8l-.41,0a2.71,2.71,0,0,1,.41,0Z"/><path class="cls-4" d="M36.18,27.18l.41,0v0A1.84,1.84,0,0,1,36.18,27.18Z"/><path class="cls-4" d="M36.59,27.59v-.43l-.41,0h0a.4.4,0,0,1,.36.4.39.39,0,0,1-.36.4h0A.41.41,0,0,0,36.59,27.59Z"/><path class="cls-4" d="M36.49,7.54a.4.4,0,0,1-.36.4h0l.41,0V7.54a.41.41,0,0,0-.41-.41h0A.39.39,0,0,1,36.49,7.54Z"/><path class="cls-4" d="M36.13,7.94a.4.4,0,0,0,.36-.4.39.39,0,0,0-.36-.4.4.4,0,0,0-.36.4A.41.41,0,0,0,36.13,7.94Z"/><path class="cls-4" d="M35.77,27.59a.4.4,0,0,0,.36.4.39.39,0,0,0,.36-.4.4.4,0,0,0-.36-.4A.41.41,0,0,0,35.77,27.59Z"/><path class="cls-4" d="M44.21,8.2a1.41,1.41,0,1,0-1.42-1.41A1.41,1.41,0,0,0,44.21,8.2Zm0-2a.6.6,0,0,1,.59.59.6.6,0,0,1-1.19,0A.6.6,0,0,1,44.21,6.2Z"/><circle class="cls-2" cx="6.06" cy="20.28" r="0.7"/><circle class="cls-2" cx="6.06" cy="33.69" r="0.7"/><circle class="cls-2" cx="6.06" cy="47.09" r="0.7"/></g></g></svg>