<svg xmlns="http://www.w3.org/2000/svg" viewBox="0 0 50 67.46"><defs><style>.cls-1{fill:#3f4244;}.cls-2{fill:#fff;}.cls-3{fill:#f4cd36;}</style></defs><title>Recurso 13_icon_</title><g id="Capa_2" data-name="Capa 2"><g id="Capa_1-2" data-name="Capa 1"><path class="cls-1" d="M27,0H24.76l0,0C12.05.65,2.12,10.61,2.12,22.71s9.93,22.07,22.62,22.71H27C39.87,44.91,49.91,35,49.91,22.71S39.87.52,27,0Zm15.75,9.1a28,28,0,0,1-5.51,3.06A27.53,27.53,0,0,0,29.72,2,22.27,22.27,0,0,1,42.78,9.11Zm-15.84-7a26,26,0,0,1,8.62,10.68,28.35,28.35,0,0,1-8.62,1.51Zm0,14a30.28,30.28,0,0,0,9.25-1.62,25.07,25.07,0,0,1,1.39,8.1H26.94Zm0,8.24H37.52a24.85,24.85,0,0,1-1.79,7.86,30.62,30.62,0,0,0-8.79-1.43ZM22,2.09a27.59,27.59,0,0,0-7.34,9.74,27.34,27.34,0,0,1-5.12-3A22.26,22.26,0,0,1,22,2.09ZM8.37,10.17A29.58,29.58,0,0,0,14,13.47a26.88,26.88,0,0,0-1.64,9.11H4A20.11,20.11,0,0,1,8.37,10.17ZM9.06,36.1A20.19,20.19,0,0,1,4,24.35h8.37a26.72,26.72,0,0,0,2,8.79A28.78,28.78,0,0,0,9.06,36.1Zm1.25,1.31a26.53,26.53,0,0,1,4.89-2.67,27.32,27.32,0,0,0,6.8,8.6A22.52,22.52,0,0,1,10.31,37.41Zm14.78,6.07a26.34,26.34,0,0,1-8.17-9.4,29.26,29.26,0,0,1,8.17-1.55Zm0-12.7a30.51,30.51,0,0,0-8.92,1.69,24.89,24.89,0,0,1-1.91-8.13H25.09Zm0-8.2H14.2a25.33,25.33,0,0,1,1.49-8.41,30,30,0,0,0,9.4,1.9Zm0-8.27a28.29,28.29,0,0,1-8.74-1.78A26.14,26.14,0,0,1,25.09,2Zm1.85,29V32.51A28.38,28.38,0,0,1,35,33.82,26.19,26.19,0,0,1,26.94,43.29Zm2.78.1a27.27,27.27,0,0,0,7-9A27,27,0,0,1,42,37.14,22.47,22.47,0,0,1,29.72,43.39Zm13.51-7.58a28.75,28.75,0,0,0-5.77-3,26.36,26.36,0,0,0,1.91-8.47H48A20.23,20.23,0,0,1,43.23,35.81Zm4.83-13.24H39.42a26.61,26.61,0,0,0-1.51-8.75,29.14,29.14,0,0,0,6-3.33A20.1,20.1,0,0,1,48.06,22.57Z"/><rect class="cls-2" x="16.08" y="35.39" width="3.75" height="2.83"/><path class="cls-3" d="M3,65.15h22V24.32H3Zm12.2-36.34h5.44v4.44H15.24Zm0,5.78h5.44V39H15.24Zm0,10.21h5.44v4.45H15.24Zm0,10.15h5.44v4.44H15.24ZM7.42,28.81h5.45v4.44H7.42ZM7.42,55h5.45v4.44H7.42Z"/><rect class="cls-3" x="16.08" y="55.75" width="3.75" height="2.83"/><rect class="cls-1" x="16.08" y="45.61" width="3.75" height="2.83"/><rect class="cls-1" x="36.8" y="55.27" width="3.75" height="2.83"/><rect class="cls-1" x="8.27" y="29.62" width="3.75" height="2.83"/><rect class="cls-3" x="16.08" y="29.62" width="3.75" height="2.83"/><path class="cls-3" d="M27,65.15H42.76V45.54H27ZM36,54.47h5.44v4.44H36Zm-6.83-7.18h5.45v4.44H29.12Z"/><path class="cls-1" d="M44.45,43.93H26.76V22.71H1.34V65.85H0v1.61H50V65.85H44.45ZM25.07,65.15H3V24.32h22Zm17.69,0H27V45.54H42.76Z"/><path class="cls-1" d="M12.87,28.81H7.42v4.44h5.45ZM12,32.45H8.27V29.62H12Z"/><path class="cls-1" d="M20.68,28.81H15.24v4.44h5.44Zm-.85,3.64H16.08V29.62h3.75Z"/><path class="cls-1" d="M20.68,34.59H15.24V39h5.44Zm-.85,3.63H16.08V35.39h3.75Z"/><path class="cls-1" d="M20.68,44.8H15.24v4.45h5.44Zm-.85,3.64H16.08V45.61h3.75Z"/><path class="cls-1" d="M20.68,55H15.24v4.44h5.44Zm-.85,3.63H16.08V55.75h3.75Z"/><path class="cls-1" d="M12.87,55H7.42v4.44h5.45ZM12,58.58H8.27V55.75H12Z"/><path class="cls-1" d="M34.57,47.29H29.12v4.44h5.45Zm-.85,3.64H30V48.1h3.75Z"/><path class="cls-1" d="M41.39,54.47H36v4.44h5.44Zm-.84,3.63H36.8V55.27h3.75Z"/></g></g></svg>