<svg xmlns="http://www.w3.org/2000/svg" viewBox="0 0 50 50.01"><defs><style>.cls-1{fill:#f4cd36;}.cls-2{fill:#18467f;}.cls-3{fill:#3f4244;}.cls-4{fill:none;}</style></defs><title>Recurso 14_icon_</title><g id="Capa_2" data-name="Capa 2"><g id="Capa_1-2" data-name="Capa 1"><path class="cls-1" d="M16.66,42.69,25,48.43l8.34-5.74a35.22,35.22,0,0,0,15.25-28.9H1.43A35.21,35.21,0,0,0,16.66,42.69ZM25,16.76h0A10.08,10.08,0,1,1,14.91,26.85,10.11,10.11,0,0,1,25,16.76Z"/><path class="cls-1" d="M48.54,1.43H39.67V6.68A.71.71,0,0,1,39,7.4H30.15a.72.72,0,0,1-.72-.72V1.43H20.57V6.68a.72.72,0,0,1-.72.72H11a.71.71,0,0,1-.71-.72V1.43H1.46V6.68a.71.71,0,0,1,0,.21v3.19H48.57V6.88a.64.64,0,0,1,0-.2Z"/><path class="cls-2" d="M30.15,0H19.85a.68.68,0,0,0-.55.28H30.7A.68.68,0,0,0,30.15,0Z"/><path class="cls-2" d="M49.25,0H39a.7.7,0,0,0-.56.28H49.81A.7.7,0,0,0,49.25,0Z"/><path class="cls-2" d="M11,0H.75A.7.7,0,0,0,.19.28H11.6A.7.7,0,0,0,11,0Z"/><path class="cls-3" d="M50,6.47V.72a.74.74,0,0,0-.16-.44H38.4a.74.74,0,0,0-.16.44V6H30.86V.72A.68.68,0,0,0,30.7.28H19.3a.68.68,0,0,0-.16.44V6H11.76V.72A.68.68,0,0,0,11.6.28H.19A.74.74,0,0,0,0,.72V6.47a.76.76,0,0,0,0,.21v4.11a.72.72,0,0,0,.72.72H49.28a.72.72,0,0,0,.72-.72V6.68A.76.76,0,0,0,50,6.47Zm-1.4,3.61H1.43V6.89a.71.71,0,0,0,0-.21V1.43h8.87V6.68A.71.71,0,0,0,11,7.4h8.81a.72.72,0,0,0,.72-.72V1.43h8.86V6.68a.72.72,0,0,0,.72.72H39a.71.71,0,0,0,.71-.72V1.43h8.87V6.68a.64.64,0,0,0,0,.2Z"/><path class="cls-2" d="M25,50a.78.78,0,0,0,.41-.12h-.82A.78.78,0,0,0,25,50Z"/><path class="cls-3" d="M49.28,12.36H.72a.71.71,0,0,0-.72.71v.63A36.63,36.63,0,0,0,15.85,43.87l8.72,6h.82l8.74-6h0A36.64,36.64,0,0,0,50,13.68v-.61A.71.71,0,0,0,49.28,12.36Zm-16,30.33L25,48.43l-8.32-5.74A35.21,35.21,0,0,1,1.43,13.79H48.57A35.22,35.22,0,0,1,33.32,42.69Z"/><path class="cls-3" d="M25,36.94a10.09,10.09,0,1,0,0-20.18h0a10.09,10.09,0,0,0,0,20.18Zm0-19.3Zm0,.44a8.77,8.77,0,1,1-8.77,8.77A8.77,8.77,0,0,1,25,18.08Z"/><path class="cls-3" d="M24.07,28.18l-.59,1.89a.39.39,0,0,0,.06.33.38.38,0,0,0,.3.15H26.2a.38.38,0,0,0,.3-.15.39.39,0,0,0,.06-.33L26,28.18a1.57,1.57,0,1,0-1.9,0ZM25,26.11a.83.83,0,0,1,.36,1.57.37.37,0,0,0-.2.44l.52,1.68H24.34l.52-1.68a.37.37,0,0,0-.2-.44A.83.83,0,0,1,25,26.11Z"/><path class="cls-4" d="M25,35.62a9.17,9.17,0,0,0,0-18.33h0a9.18,9.18,0,0,0-9.17,9.17,9.08,9.08,0,0,0,.57,3.15A9.19,9.19,0,0,0,25,35.62ZM19.07,24.85a1.77,1.77,0,0,1,1.76-1.77h1V21.67a1.6,1.6,0,0,1,1.6-1.59h3.11a1.59,1.59,0,0,1,1.59,1.59v1.41h1a1.77,1.77,0,0,1,1.76,1.77v6.22a1.77,1.77,0,0,1-1.76,1.77H20.83a1.77,1.77,0,0,1-1.76-1.77Z"/><path class="cls-1" d="M27.42,21.67a.85.85,0,0,0-.85-.85H23.46a.86.86,0,0,0-.86.85v1.41h4.82Z"/><path class="cls-3" d="M22.6,21.67a.86.86,0,0,1,.86-.85h3.11a.85.85,0,0,1,.85.85v1.41h.74V21.67a1.59,1.59,0,0,0-1.59-1.59H23.46a1.6,1.6,0,0,0-1.6,1.59v1.41h.74Z"/><path class="cls-3" d="M27.42,23.45v-.37H22.6v.37a.36.36,0,0,1-.37.37h5.56A.37.37,0,0,1,27.42,23.45Z"/><path class="cls-3" d="M20.83,32.84h8.34a1.77,1.77,0,0,0,1.76-1.77V24.85a1.77,1.77,0,0,0-1.76-1.77h-1v.37a.36.36,0,0,1-.37.37h1.38a1,1,0,0,1,1,1v6.22a1,1,0,0,1-1,1H20.83a1,1,0,0,1-1-1V24.85a1,1,0,0,1,1-1h1.4a.37.37,0,0,1-.37-.37v-.37h-1a1.77,1.77,0,0,0-1.76,1.77v6.22A1.77,1.77,0,0,0,20.83,32.84Z"/><path class="cls-3" d="M27.42,23.45a.37.37,0,0,0,.37.37.36.36,0,0,0,.37-.37v-.37h-.74Z"/><path class="cls-3" d="M22.23,23.82a.36.36,0,0,0,.37-.37v-.37h-.74v.37A.37.37,0,0,0,22.23,23.82Z"/><path class="cls-4" d="M24.66,27.68a.37.37,0,0,1,.2.44l-.52,1.68H25.7l-.52-1.68a.37.37,0,0,1,.2-.44.82.82,0,1,0-.72,0Z"/><path class="cls-1" d="M20.83,23.82a1,1,0,0,0-1,1v6.22a1,1,0,0,0,1,1h8.34a1,1,0,0,0,1-1V24.85a1,1,0,0,0-1-1H20.83ZM25,25.37A1.56,1.56,0,0,1,26,28.18l.59,1.89a.39.39,0,0,1-.06.33.38.38,0,0,1-.3.15H23.84a.38.38,0,0,1-.3-.15.39.39,0,0,1-.06-.33l.59-1.89A1.56,1.56,0,0,1,25,25.37Z"/></g></g></svg>