<svg xmlns="http://www.w3.org/2000/svg" viewBox="0 0 53.86 55.47"><defs><style>.cls-1{fill:#3f4244;}.cls-2{fill:#f4cd36;}.cls-3{fill:#fff;}</style></defs><title>Recurso 4_icon_</title><g id="Capa_2" data-name="Capa 2"><g id="Capa_1-2" data-name="Capa 1"><path class="cls-1" d="M51.05,51.33H.74A.74.74,0,0,1,0,50.59V8.1a.74.74,0,0,1,.74-.74H51.05a.75.75,0,0,1,.75.74V50.59A.75.75,0,0,1,51.05,51.33ZM1.49,49.84H50.31v-41H1.49Z"/><path class="cls-1" d="M51.05,8.85H.74A.75.75,0,0,1,0,8.1V.74A.74.74,0,0,1,.74,0H51.05a.75.75,0,0,1,.75.74V8.1A.76.76,0,0,1,51.05,8.85ZM1.49,7.36H50.31V1.49H1.49Z"/><path class="cls-2" d="M18,20.69h-7.2a.74.74,0,0,1-.74-.74v-7.2a.75.75,0,0,1,.74-.75H18a.76.76,0,0,1,.75.75V20A.75.75,0,0,1,18,20.69ZM11.56,19.2h5.71V13.49H11.56Z"/><path class="cls-1" d="M29.5,20.69h-.15l-.14-.05a.42.42,0,0,1-.13-.07.31.31,0,0,1-.11-.09.79.79,0,0,1-.22-.52.77.77,0,0,1,0-.15.74.74,0,0,1,0-.14.47.47,0,0,1,.07-.12.54.54,0,0,1,.09-.12.48.48,0,0,1,.11-.09l.13-.07.14,0a.75.75,0,0,1,.67.2.58.58,0,0,1,.1.12.47.47,0,0,1,.07.12.74.74,0,0,1,0,.14.76.76,0,0,1,0,.15.74.74,0,0,1-.22.52A.73.73,0,0,1,29.5,20.69Z"/><path class="cls-1" d="M25.16,20a.75.75,0,0,1,.74-.75h0a.76.76,0,0,1,.75.75h0a.75.75,0,0,1-.75.74h0A.74.74,0,0,1,25.16,20Z"/><path class="cls-1" d="M22.3,20.69a.71.71,0,0,1-.52-.22.74.74,0,0,1-.22-.52.76.76,0,0,1,0-.15c0-.05,0-.1,0-.14a1.27,1.27,0,0,1,.07-.12.58.58,0,0,1,.1-.12.73.73,0,0,1,.67-.2l.13,0,.13.07.12.09a1.25,1.25,0,0,1,.09.12.47.47,0,0,1,.07.12.57.57,0,0,1,0,.14.77.77,0,0,1,0,.15.74.74,0,0,1-.22.52.47.47,0,0,1-.12.09l-.13.07-.13.05Z"/><path class="cls-1" d="M21.56,16.35a.75.75,0,0,1,.74-.75h0a.76.76,0,0,1,.75.75h0a.75.75,0,0,1-.75.74h0A.74.74,0,0,1,21.56,16.35Z"/><path class="cls-1" d="M22.3,13.49a.71.71,0,0,1-.52-.22.36.36,0,0,1-.1-.11s-.05-.08-.07-.13,0-.09,0-.14a.61.61,0,0,1,0-.14.75.75,0,0,1,.22-.53.73.73,0,0,1,.67-.2l.13,0,.13.07.12.09a.75.75,0,0,1,.22.53.59.59,0,0,1,0,.14A.57.57,0,0,1,23,13a.54.54,0,0,1-.07.13.53.53,0,0,1-.09.11l-.12.1-.13.07-.13,0Z"/><path class="cls-1" d="M25.16,12.75A.75.75,0,0,1,25.9,12h0a.76.76,0,0,1,.75.75h0a.75.75,0,0,1-.75.74h0A.74.74,0,0,1,25.16,12.75Z"/><path class="cls-1" d="M29.5,13.49h-.15l-.14-.05-.13-.06a.52.52,0,0,1-.11-.1.48.48,0,0,1-.09-.11.54.54,0,0,1-.07-.13.57.57,0,0,1,0-.14.59.59,0,0,1,0-.14.79.79,0,0,1,.22-.53l.11-.09.13-.07.14,0a.74.74,0,0,1,.67.2.75.75,0,0,1,.22.53.61.61,0,0,1,0,.14.57.57,0,0,1,0,.14.54.54,0,0,1-.07.13.52.52,0,0,1-.1.11A.73.73,0,0,1,29.5,13.49Z"/><path class="cls-1" d="M28.75,16.35a.76.76,0,0,1,.75-.75h0a.76.76,0,0,1,.75.75h0a.75.75,0,0,1-.75.74h0A.75.75,0,0,1,28.75,16.35Z"/><path class="cls-2" d="M41,20.69H33.79A.75.75,0,0,1,33,20v-7.2a.76.76,0,0,1,.75-.75H41a.75.75,0,0,1,.75.75V20A.74.74,0,0,1,41,20.69ZM34.53,19.2h5.71V13.49H34.53Z"/><path class="cls-1" d="M18,32.7a.71.71,0,0,1-.52-.22.73.73,0,0,1-.22-.52.76.76,0,0,1,0-.15s0-.09,0-.14l.07-.12.1-.12a.76.76,0,0,1,1.05,0l.09.12a.75.75,0,0,1,.07.12.74.74,0,0,1,0,.14.77.77,0,0,1,0,.15.73.73,0,0,1-.22.52A.75.75,0,0,1,18,32.7Z"/><path class="cls-1" d="M13.67,32a.75.75,0,0,1,.74-.75h0a.76.76,0,0,1,.75.75h0a.75.75,0,0,1-.75.74h0A.74.74,0,0,1,13.67,32Z"/><path class="cls-1" d="M10.81,32.7h-.14l-.14,0-.13-.07a.52.52,0,0,1-.11-.1.74.74,0,0,1-.22-.52.76.76,0,0,1,0-.15.78.78,0,0,1,.05-.14.67.67,0,0,1,.06-.12l.1-.12.11-.09.13-.07.14,0a.74.74,0,1,1,.14,1.47Z"/><path class="cls-1" d="M10.07,28.36a.75.75,0,0,1,.74-.75h0a.76.76,0,0,1,.75.75h0a.75.75,0,0,1-.75.74h0A.74.74,0,0,1,10.07,28.36Z"/><path class="cls-1" d="M10.81,25.5h-.14l-.14,0-.13-.07a.52.52,0,0,1-.11-.1.71.71,0,0,1-.22-.52.76.76,0,0,1,0-.15.5.5,0,0,1,.05-.13.52.52,0,0,1,.06-.13l.1-.12.11-.09.13-.07.14,0a.74.74,0,0,1,.89.73.71.71,0,0,1-.22.52A.75.75,0,0,1,10.81,25.5Z"/><path class="cls-1" d="M13.67,24.76a.75.75,0,0,1,.74-.75h0a.76.76,0,0,1,.75.75h0a.75.75,0,0,1-.75.74h0A.74.74,0,0,1,13.67,24.76Z"/><path class="cls-1" d="M18,25.5a.71.71,0,0,1-.52-.22.32.32,0,0,1-.1-.1c0-.05-.05-.09-.07-.13s0-.1,0-.14a.76.76,0,0,1,0-.15.75.75,0,0,1,.22-.53.76.76,0,0,1,1.05,0,.75.75,0,0,1,.22.53.77.77,0,0,1,0,.15,1,1,0,0,1,0,.14l-.07.13a.45.45,0,0,1-.09.1A.75.75,0,0,1,18,25.5Z"/><path class="cls-1" d="M17.27,28.36a.75.75,0,0,1,.74-.75h0a.76.76,0,0,1,.75.75h0a.75.75,0,0,1-.75.74h0A.74.74,0,0,1,17.27,28.36Z"/><path class="cls-1" d="M29.5,32.7H22.3a.74.74,0,0,1-.74-.74v-7.2A.74.74,0,0,1,22.3,24h7.2a.74.74,0,0,1,.74.74V32A.74.74,0,0,1,29.5,32.7ZM23,31.21h5.71V25.5H23Z"/><path class="cls-1" d="M41,32.7H33.79A.75.75,0,0,1,33,32v-7.2a.75.75,0,0,1,.75-.74H41a.74.74,0,0,1,.75.74V32A.74.74,0,0,1,41,32.7Zm-6.45-1.49h5.71V25.5H34.53Z"/><path class="cls-2" d="M18,44.71h-7.2a.74.74,0,0,1-.74-.74v-7.2a.74.74,0,0,1,.74-.74H18a.75.75,0,0,1,.75.74V44A.75.75,0,0,1,18,44.71Zm-6.45-1.48h5.71V37.52H11.56Z"/><path class="cls-1" d="M29.5,44.71H22.3a.74.74,0,0,1-.74-.74v-7.2A.74.74,0,0,1,22.3,36h7.2a.74.74,0,0,1,.74.74V44A.74.74,0,0,1,29.5,44.71ZM23,43.23h5.71V37.52H23Z"/><rect class="cls-3" x="31.82" y="34.84" width="21.58" height="18.16"/><path class="cls-1" d="M42.9,55.47a11,11,0,1,1,11-11A11,11,0,0,1,42.9,55.47Zm0-21.27A10.31,10.31,0,1,0,53.21,44.51,10.33,10.33,0,0,0,42.9,34.2Z"/><path class="cls-2" d="M43.25,53.15a.33.33,0,0,1,.3-.35h0a.33.33,0,0,1,.35.3h0a.32.32,0,0,1-.3.35h0A.33.33,0,0,1,43.25,53.15Z"/><path class="cls-1" d="M40.93,53.26a.33.33,0,0,1-.25-.39h0a.33.33,0,0,1,.39-.25h0a.33.33,0,0,1,.25.39h0a.34.34,0,0,1-.32.26h-.07Z"/><path class="cls-2" d="M45.79,52.67a.32.32,0,0,1,.18-.42h0a.34.34,0,0,1,.43.18h0a.34.34,0,0,1-.19.43h0l-.12,0h0A.32.32,0,0,1,45.79,52.67Z"/><path class="cls-1" d="M38.43,52.28a.33.33,0,0,1-.12-.44h0a.33.33,0,0,1,.45-.12h0a.32.32,0,0,1,.12.44h0a.29.29,0,0,1-.28.16h0A.33.33,0,0,1,38.43,52.28Z"/><path class="cls-2" d="M48.07,51.46a.33.33,0,0,1,0-.46h0a.32.32,0,0,1,.46.06h0a.33.33,0,0,1,0,.46h0a.37.37,0,0,1-.2.07h0A.35.35,0,0,1,48.07,51.46Z"/><path class="cls-1" d="M36.34,50.61h0a.32.32,0,0,1,0-.46h0a.34.34,0,0,1,.47,0h0a.33.33,0,0,1,0,.46h0a.31.31,0,0,1-.22.09h0A.32.32,0,0,1,36.34,50.61Z"/><path class="cls-2" d="M49.9,49.64a.34.34,0,0,1-.09-.46h0a.33.33,0,0,1,.46-.08h0a.32.32,0,0,1,.08.45h0a.32.32,0,0,1-.27.14h0A.37.37,0,0,1,49.9,49.64Z"/><path class="cls-1" d="M34.82,48.4A.32.32,0,0,1,35,48h0a.33.33,0,0,1,.44.15h0a.33.33,0,0,1-.15.44h0a.35.35,0,0,1-.14,0h0A.34.34,0,0,1,34.82,48.4Z"/><path class="cls-2" d="M51.11,47.35a.33.33,0,0,1-.22-.41h0a.33.33,0,0,1,.41-.21h0a.33.33,0,0,1,.22.41h0a.34.34,0,0,1-.32.23h0Z"/><path class="cls-1" d="M34,45.84h0a.33.33,0,0,1,.27-.37h0a.33.33,0,0,1,.37.28h0a.32.32,0,0,1-.27.37h0A.32.32,0,0,1,34,45.84Z"/><path class="cls-2" d="M51.26,44.49v0h0v0h0a.32.32,0,0,1,.32-.32h0a.32.32,0,0,1,.33.32h0v0h0v0h0a.32.32,0,0,1-.32.32h0A.32.32,0,0,1,51.26,44.49Z"/><path class="cls-1" d="M34.3,43.54a.34.34,0,0,1-.28-.37h0a.33.33,0,0,1,.37-.28h0a.33.33,0,0,1,.28.37h0a.32.32,0,0,1-.32.28H34.3Z"/><path class="cls-2" d="M50.88,42h0a.33.33,0,0,1,.22-.41h0a.33.33,0,0,1,.41.21h0a.33.33,0,0,1-.22.41h0l-.1,0h0A.32.32,0,0,1,50.88,42Z"/><path class="cls-1" d="M35,41a.33.33,0,0,1-.15-.44h0a.32.32,0,0,1,.43-.15h0a.33.33,0,0,1,.16.44h0a.35.35,0,0,1-.3.18h0A.32.32,0,0,1,35,41Z"/><path class="cls-2" d="M49.79,39.76a.32.32,0,0,1,.09-.45h0a.32.32,0,0,1,.45.08h0a.32.32,0,0,1-.08.46h0a.32.32,0,0,1-.19,0h0A.32.32,0,0,1,49.79,39.76Z"/><path class="cls-1" d="M36.33,38.85a.33.33,0,0,1,0-.46h0a.32.32,0,0,1,.46,0h0a.32.32,0,0,1,0,.46h0a.32.32,0,0,1-.24.11h0A.31.31,0,0,1,36.33,38.85Z"/><path class="cls-2" d="M48.1,38h0a.32.32,0,0,1-.06-.46h0a.32.32,0,0,1,.46-.05h0a.33.33,0,0,1,.06.46h0a.34.34,0,0,1-.26.12h0A.31.31,0,0,1,48.1,38Z"/><path class="cls-2" d="M38.28,37.16a.33.33,0,0,1,.12-.45h0a.33.33,0,0,1,.45.12h0a.34.34,0,0,1-.12.45h0a.47.47,0,0,1-.16,0h0A.34.34,0,0,1,38.28,37.16Z"/><path class="cls-2" d="M45.94,36.71h0a.33.33,0,0,1-.19-.42h0a.34.34,0,0,1,.43-.19h0a.33.33,0,0,1,.18.42h0a.31.31,0,0,1-.3.21h0A.25.25,0,0,1,45.94,36.71Z"/><path class="cls-2" d="M40.65,36.12a.33.33,0,0,1,.24-.4h0a.32.32,0,0,1,.39.25h0a.32.32,0,0,1-.24.39H41A.32.32,0,0,1,40.65,36.12Z"/><path class="cls-2" d="M43.52,36.17a.32.32,0,0,1-.3-.35h0a.31.31,0,0,1,.34-.3h0a.33.33,0,0,1,.31.35h0a.33.33,0,0,1-.33.3h0Z"/><path class="cls-2" d="M42.93,51.46A7,7,0,0,1,39,38.72a.32.32,0,0,1,.45.09.34.34,0,0,1-.09.46A6.3,6.3,0,0,0,42.93,50.8a.33.33,0,0,1,0,.66Z"/><path class="cls-1" d="M42.29,43.66a.32.32,0,0,1-.14,0,.34.34,0,0,1-.18-.24,9.91,9.91,0,0,1-.13-1.69,7.12,7.12,0,0,1,.8-3.16.34.34,0,0,1,.29-.16.33.33,0,0,1,.28.16A7.06,7.06,0,0,1,44,41.7,11.37,11.37,0,0,1,44,42.89a.27.27,0,0,1-.06.17c-.1.12-.18.24-.26.35a.31.31,0,0,1-.37.13,1,1,0,0,0-.81.08A.42.42,0,0,1,42.29,43.66Zm.64-4.17a6.33,6.33,0,0,0-.44,2.21,8.91,8.91,0,0,0,.07,1.18,1.63,1.63,0,0,1,.66,0l.09-.13a8.56,8.56,0,0,0,0-1A6.31,6.31,0,0,0,42.93,39.49Z"/><path class="cls-1" d="M44.21,44.42a.2.2,0,0,1-.11,0,.32.32,0,0,1-.21-.21,1,1,0,0,0-.48-.58.69.69,0,0,0-.15-.07.32.32,0,0,1-.21-.2.33.33,0,0,1,0-.29,4.73,4.73,0,0,1,.28-.39,12.34,12.34,0,0,1,.92-1h0A7.16,7.16,0,0,1,47.09,40a.32.32,0,0,1,.32.09.3.3,0,0,1,.08.31,6.76,6.76,0,0,1-1.66,2.8,10.16,10.16,0,0,1-1.44,1.22A.41.41,0,0,1,44.21,44.42Zm-.36-1.31a1.72,1.72,0,0,1,.48.49,8.46,8.46,0,0,0,1-.91,6.1,6.1,0,0,0,1.25-1.86,6,6,0,0,0-1.86,1.25h0a8.62,8.62,0,0,0-.87,1Z"/><path class="cls-1" d="M42.94,46.14a1.65,1.65,0,0,1-.81-3.09,1.63,1.63,0,0,1,1.33-.13l.26.11a1.71,1.71,0,0,1,.8,1,1.61,1.61,0,0,1,.07.49A1.65,1.65,0,0,1,42.94,46.14Zm0-2.65a1,1,0,0,0-.49.13,1,1,0,1,0,1.49.87,1,1,0,0,0,0-.3h0a1,1,0,0,0-.48-.58.69.69,0,0,0-.15-.07A1.19,1.19,0,0,0,42.94,43.49Z"/><path class="cls-2" d="M39.48,40.59a.32.32,0,0,1-.33-.32V39H37.91a.33.33,0,1,1,0-.65h1.57a.32.32,0,0,1,.33.32v1.58A.32.32,0,0,1,39.48,40.59Z"/></g></g></svg>