<svg xmlns="http://www.w3.org/2000/svg" viewBox="0 0 50 22.4"><defs><style>.cls-1{fill:#1c2023;}.cls-2{fill:#00599b;}</style></defs><title>Recurso 7_icon_</title><g id="Capa_2" data-name="Capa 2"><g id="Capa_1-2" data-name="Capa 1"><path class="cls-1" d="M0,0,8,0h7.18l.46,0V20.32H.39c-.13,0-.26,0-.39,0ZM14.07,6.26V1.58H1.57V6.26Zm0,6.26V7.83H1.59v4.69Zm0,6.26v-4.7H1.58v4.7Z"/><path class="cls-1" d="M34.46,0H50V20.28H34.46ZM36,6.25h12.5V1.57H36Zm0,1.57V12.5H48.48V7.82Zm12.5,6.26H36v4.68H48.49Z"/><path class="cls-2" d="M19.86,4.88l.9.62-1.1,1L17.09,3.9l2.6-2.63,1,1-.85.89h1.4A2.5,2.5,0,0,1,23.9,5c.36.94.71,1.88,1.11,3,.12-.25.18-.38.24-.52.33-.88.65-1.77,1-2.65a2.47,2.47,0,0,1,2.37-1.64A6.27,6.27,0,0,0,30,3l-.89-.66,1.21-1,2.55,2.56L30.19,6.54l-1-1,.83-.88c-.69,0-1.28,0-1.86,0-.18,0-.41.29-.49.49-.61,1.57-1.2,3.16-1.77,4.75a.9.9,0,0,0,0,.56c.55,1.53,1.12,3.05,1.69,4.57a.78.78,0,0,0,.84.59c.48,0,1,0,1.58,0l-.85-.9,1.09-.93,2.55,2.59-2.64,2.65-1-1,.85-.9H28.61a2.46,2.46,0,0,1-2.38-1.63c-.38-1-.74-1.94-1.1-2.92L25,12.52c-.07.14-.14.25-.19.37l-1,2.65a2.45,2.45,0,0,1-2.37,1.64c-.49,0-1,0-1.61,0l.83.89L19.62,19l-2.56-2.61,2.63-2.63,1,1-.82.86c.73,0,1.37,0,2,0,.17,0,.39-.28.47-.49.61-1.54,1.18-3.1,1.75-4.65a1.06,1.06,0,0,0,0-.61c-.56-1.53-1.14-3-1.69-4.57a.83.83,0,0,0-.92-.62c-.5,0-1,0-1.5,0Z"/><path class="cls-1" d="M11,22.38V20.94h3v1.44Z"/><path class="cls-1" d="M39.05,22.4H36V20.94h3Z"/><path class="cls-1" d="M45.41,22.4V20.94h3V22.4Z"/><path class="cls-1" d="M1.61,22.4V20.94h3V22.4Z"/><path class="cls-1" d="M12.47,3.19V4.64h-3V3.19Z"/><path class="cls-1" d="M4.64,4.66H3.19V3.19H4.64Z"/><path class="cls-1" d="M6.29,4.64V3.19H7.76V4.64Z"/><path class="cls-1" d="M12.47,9.43v1.46h-3V9.43Z"/><path class="cls-1" d="M7.78,9.44v1.45H6.31V9.44Z"/><path class="cls-1" d="M4.65,9.44v1.45H3.18V9.44Z"/><path class="cls-1" d="M12.47,15.7v1.46h-3V15.7Z"/><path class="cls-1" d="M3.19,15.69H4.64v1.47H3.19Z"/><path class="cls-1" d="M7.76,17.17H6.31V15.69H7.76Z"/><path class="cls-1" d="M43.83,4.64V3.19h3V4.64Z"/><path class="cls-1" d="M40.73,3.16h1.44V4.63H40.73Z"/><path class="cls-1" d="M39.05,4.65H37.59V3.17h1.46Z"/><path class="cls-1" d="M46.89,9.43v1.46h-3V9.43Z"/><path class="cls-1" d="M40.71,10.89V9.44h1.46v1.45Z"/><path class="cls-1" d="M37.6,9.43h1.45V10.9H37.6Z"/><path class="cls-1" d="M46.9,15.7v1.45h-3V15.7Z"/><path class="cls-1" d="M39.05,17.17H37.6V15.69h1.45Z"/><path class="cls-1" d="M40.72,15.69h1.46v1.47H40.72Z"/></g></g></svg>