<svg xmlns="http://www.w3.org/2000/svg" viewBox="0 0 50 54.8"><defs><style>.cls-1{fill:#3f4244;}.cls-2{fill:#f4cd36;}</style></defs><title>Recurso 23_icon_</title><g id="Capa_2" data-name="Capa 2"><g id="Capa_1-2" data-name="Capa 1"><path class="cls-1" d="M18.77,53.94l.68-2.72,0,0a14,14,0,0,0,4.86-.75l1.51,2.38a1,1,0,0,0,1.47.26l4.29-2.54a.87.87,0,0,0,.34-1.34l-1.51-2.37h0A13.21,13.21,0,0,0,33.37,43l2.88.6a1.16,1.16,0,0,0,1.4-.83L38.82,38A1.15,1.15,0,0,0,38,36.65L35.11,36l0-.06a13.17,13.17,0,0,0-.82-4.77l2.47-1.46c.55-.33.82-.76.48-1.29l-2.63-4.13A1.21,1.21,0,0,0,33,23.82L30.5,25.29h0a12.73,12.73,0,0,0-3.92-2.74l.69-2.69a1.12,1.12,0,0,0-.87-1.35l-4.9-1.12a1.18,1.18,0,0,0-1.41.84L19.38,21l0,0a14.47,14.47,0,0,0-4.9.78l-1.52-2.38a1.18,1.18,0,0,0-1.53-.58l-4.3,2.54A1.21,1.21,0,0,0,6.83,23l1.51,2.38h0a16.48,16.48,0,0,0-2.91,3.81l-2.83-.63a1.16,1.16,0,0,0-1.4.83L0,34.13a1.12,1.12,0,0,0,.86,1.35l2.82.64h0a12.56,12.56,0,0,0,.74,4.64L2,42.21a1.19,1.19,0,0,0-.41,1.61L4.21,48c.33.53,1,.45,1.51.13l2.47-1.47h0a13.79,13.79,0,0,0,4,2.88L11.6,52.3a1.13,1.13,0,0,0,.87,1.36l4.9,1.11A1.16,1.16,0,0,0,18.77,53.94Zm.06-10.88c-.33,0-.66-.08-1-.14a6.7,6.7,0,0,1-1-.28l-.16,0-.32-.14-.31-.14c-.21-.1-.41-.22-.61-.34l-.19-.12-.2-.14a6.93,6.93,0,0,1-1.86-2,6.76,6.76,0,0,1-1.06-3.11c0-.12,0-.23,0-.34a1,1,0,0,1,0-.17c0-.11,0-.22,0-.34s0-.22,0-.33a1,1,0,0,0,0-.17q0-.33.12-.66l0-.16.09-.33a1,1,0,0,0,.05-.16l.12-.32.06-.15.09-.22.12-.25c.05-.1.1-.2.16-.3a3,3,0,0,1,.24-.38l.12-.19.21-.28c.11-.14.22-.27.34-.4a2.84,2.84,0,0,1,.24-.26,7.46,7.46,0,0,1,1.42-1.1,7.36,7.36,0,0,1,3.06-1l.52,0h.35l.35,0a6.12,6.12,0,0,1,.86.1l.34.07.51.13.33.11.16.06.32.13.47.23.3.16a7.28,7.28,0,0,1,2.41,2.31,6.86,6.86,0,0,1,1,2.6c0,.12,0,.23,0,.34a5.71,5.71,0,0,1,0,1c0,.11,0,.23,0,.34s0,.11,0,.16-.05.34-.08.5A7,7,0,0,1,23.19,42a7.39,7.39,0,0,1-2.74,1,7,7,0,0,1-1.21.07Z"/><path class="cls-2" d="M28.64,15.41a7.69,7.69,0,0,0,1.57,2.52l-1.08,1.42a.73.73,0,0,0,.16,1l2.55,1.79c.33.23.68.05.91-.27l1.08-1.41h0a8.81,8.81,0,0,0,3,.75L37.22,23a.72.72,0,0,0,.83.58l3.12-.47a.71.71,0,0,0,.61-.81l-.27-1.73v0A8.63,8.63,0,0,0,44.15,19l1.47,1a.63.63,0,0,0,.91-.18L48.4,17.4a.55.55,0,0,0-.13-.86l-1.47-1h0a8.16,8.16,0,0,0,.76-2.91l1.82-.31a.71.71,0,0,0,.61-.8l-.49-3a.74.74,0,0,0-.84-.6l-1.81.26-.05,0a8.4,8.4,0,0,0-1.65-2.58l1.07-1.41c.24-.32.29-.63,0-.86L43.64,1.48a.77.77,0,0,0-1,.1L41.53,3h0a8.22,8.22,0,0,0-3-.69L38.3.59A.72.72,0,0,0,37.47,0L34.35.48a.72.72,0,0,0-.62.81L34,3v0a8.54,8.54,0,0,0-2.66,1.58l-1.47-1a.76.76,0,0,0-1,0L27,6.08a.75.75,0,0,0,.25,1l1.47,1h0A10.09,10.09,0,0,0,27.94,11l-1.81.28a.72.72,0,0,0-.61.81l.49,3a.72.72,0,0,0,.83.59l1.79-.27Zm5-1.62-.1-.2,0-.09-.08-.2c0-.07-.05-.13-.07-.2l0-.1c0-.14-.07-.27-.1-.41s0-.07,0-.1a1.52,1.52,0,0,1,0-.21.41.41,0,0,1,0-.11c0-.07,0-.14,0-.21v-.25c0-.06,0-.11,0-.17s0-.14,0-.21a2.7,2.7,0,0,1,0-.28l0-.14a1.6,1.6,0,0,1,.05-.21c0-.1.06-.2.1-.3s.05-.14.07-.21a4.45,4.45,0,0,1,.56-1A4.61,4.61,0,0,1,35.6,7.94l.29-.14.21-.08.2-.07a5.18,5.18,0,0,1,.53-.14l.21,0,.33,0h.55l.32,0a1.46,1.46,0,0,1,.22,0,4.59,4.59,0,0,1,2,.78,4.48,4.48,0,0,1,1.21,1.29,1.74,1.74,0,0,1,.11.18,3.38,3.38,0,0,1,.27.58,1.59,1.59,0,0,1,.07.2l0,.1a2.81,2.81,0,0,1,.08.31,4.24,4.24,0,0,1-.79,3.47,4.46,4.46,0,0,1-1.35,1.18,3.6,3.6,0,0,1-.69.32l-.24.09a4.15,4.15,0,0,1-.61.14,4.5,4.5,0,0,1-.63.07h-.32l-.22,0-.44-.05-.14,0-.15,0a4.82,4.82,0,0,1-1.57-.71A4.33,4.33,0,0,1,33.68,13.79Z"/></g></g></svg>