<svg xmlns="http://www.w3.org/2000/svg" viewBox="0 0 50 50.95"><defs><style>.cls-1{fill:#f4cd36;}.cls-2{fill:#3f4244;}.cls-3{fill:#18467f;}</style></defs><title>Recurso 11_icon_</title><g id="Capa_2" data-name="Capa 2"><g id="Capa_1-2" data-name="Capa 1"><path class="cls-1" d="M28.59,35.5l-3.78,2.43C19.91,35,10,27.89,10,15.46V.74H40L40,21.3C40,26.21,31.59,34.58,28.59,35.5Z"/><path class="cls-2" d="M25,38.78a.73.73,0,0,1-.38-.11l-6-3.66A19,19,0,0,1,9.31,19c0-.07,0-.1,0-.13V.74A.74.74,0,0,1,10,0H40a.74.74,0,0,1,.74.74V19A19,19,0,0,1,31.37,35l-6,3.66A.73.73,0,0,1,25,38.78ZM10.78,1.47V19A17.55,17.55,0,0,0,19.4,33.76L25,37.18l5.6-3.42A17.54,17.54,0,0,0,39.22,19V1.47Z"/><path class="cls-3" d="M46.28,47H43.19a.74.74,0,0,1-.73-.74V15.46H40.11a.74.74,0,0,1-.74-.74V11.53a.74.74,0,0,1,.74-.74h4.63A2.32,2.32,0,0,1,47,13.13V46.28A.74.74,0,0,1,46.28,47Zm-2.35-1.47h1.61V13.13a.83.83,0,0,0-.8-.86H40.85V14h2.34a.74.74,0,0,1,.74.73Z"/><path class="cls-3" d="M6.81,47H3.72A.74.74,0,0,1,3,46.28V13.13a2.32,2.32,0,0,1,2.28-2.34H10a.74.74,0,0,1,.74.74v3.19a.74.74,0,0,1-.74.74H7.54V46.28A.74.74,0,0,1,6.81,47ZM4.46,45.55H6.07V14.72A.74.74,0,0,1,6.81,14H9.25V12.27h-4a.83.83,0,0,0-.8.86Z"/><path class="cls-2" d="M46.91,51H3.09A3.1,3.1,0,0,1,0,47.86V46.75a1.2,1.2,0,0,1,1.2-1.2H48.8a1.2,1.2,0,0,1,1.2,1.2v1.11A3.1,3.1,0,0,1,46.91,51ZM1.47,47v.84a1.62,1.62,0,0,0,1.62,1.61H46.91a1.62,1.62,0,0,0,1.62-1.61V47Z"/><path class="cls-2" d="M30.64,10.09a8.21,8.21,0,0,0-5.7-2.25,8.52,8.52,0,0,0-5.77,14.55,8.18,8.18,0,0,0,5.89,2.44,8.43,8.43,0,0,0,8.27-8.56A8.54,8.54,0,0,0,30.64,10.09Z"/><polygon class="cls-1" points="29.97 15.26 26.07 15.26 26.07 11.37 23.93 11.37 23.93 15.26 20.03 15.26 20.03 17.41 23.93 17.41 23.93 21.3 26.07 21.3 26.07 17.41 29.97 17.41 29.97 15.26"/><path class="cls-2" d="M44.74,10.79H40.11a.74.74,0,0,0-.74.74v3.19a.74.74,0,0,0,.74.74h2.35V46.28a.74.74,0,0,0,.73.74h3.09a.74.74,0,0,0,.74-.74V13.13A2.32,2.32,0,0,0,44.74,10.79Z"/><path class="cls-2" d="M10,10.79H5.37a2.31,2.31,0,0,0-2.28,2.34V46.28a.74.74,0,0,0,.74.74H6.91a.74.74,0,0,0,.74-.74V15.46H10a.74.74,0,0,0,.74-.74V11.53A.74.74,0,0,0,10,10.79Z"/></g></g></svg>