<svg xmlns="http://www.w3.org/2000/svg" viewBox="0 0 63.78 63.5"><defs><style>.cls-1{fill:#f4cd36;}.cls-2{fill:#fff;}.cls-3{fill:#3f4244;}</style></defs><title>Recurso 6_icon_</title><g id="Capa_2" data-name="Capa 2"><g id="Capa_1-2" data-name="Capa 1"><rect class="cls-1" x="18.06" y="17.54" width="28.23" height="28.23"/><rect class="cls-2" x="25.45" y="25.34" width="13.3" height="13.3"/><rect class="cls-2" x="0.84" y="1.17" width="10.22" height="10.22"/><rect class="cls-1" x="0.84" y="52.79" width="10.22" height="10.22"/><rect class="cls-3" x="52.64" y="1.17" width="10.22" height="10.22"/><circle class="cls-3" cx="31.86" cy="57.89" r="3.19"/><circle class="cls-1" cx="57.79" cy="31.49" r="3.19"/><circle class="cls-1" cx="31.86" cy="6.04" r="3.19"/><circle class="cls-3" cx="5.93" cy="32" r="3.19"/><path class="cls-3" d="M31.71,35h0a.91.91,0,0,1-.78-.44l-2-3.36a.91.91,0,1,1,1.57-.94l1.22,2L34,28.42a.91.91,0,0,1,1.25-.32.91.91,0,0,1,.32,1.26L32.5,34.57A.93.93,0,0,1,31.71,35Z"/><path class="cls-3" d="M38.79,39.65H25.24a.92.92,0,0,1-.92-.92V25.18a.92.92,0,0,1,.92-.91H38.79a.92.92,0,0,1,.92.91V38.73A.92.92,0,0,1,38.79,39.65ZM26.15,37.82H37.88V26.1H26.15Z"/><path class="cls-3" d="M46.28,47.24H17.56a.92.92,0,0,1-.92-.92V17.6a.92.92,0,0,1,.92-.92H46.28a.92.92,0,0,1,.92.92V46.32A.92.92,0,0,1,46.28,47.24ZM18.47,45.41h26.9V18.51H18.47Z"/><path class="cls-3" d="M11.16,12.07H.91A.91.91,0,0,1,0,11.16V.91A.91.91,0,0,1,.91,0H11.16a.91.91,0,0,1,.91.91V11.16A.91.91,0,0,1,11.16,12.07ZM1.83,10.24h8.41V1.83H1.83Z"/><path class="cls-3" d="M62.86,12.07H52.62a.91.91,0,0,1-.91-.91V.91A.91.91,0,0,1,52.62,0H62.86a.92.92,0,0,1,.92.91V11.16A.92.92,0,0,1,62.86,12.07Zm-9.32-1.83H62V1.83H53.54Z"/><path class="cls-3" d="M11.16,63.5H.92A.91.91,0,0,1,0,62.59V52.35a.92.92,0,0,1,.91-.92H11.16a.92.92,0,0,1,.92.92V62.59A.91.91,0,0,1,11.16,63.5ZM1.84,61.67h8.41V53.26H1.84Z"/><path class="cls-3" d="M46.51,18.16a.89.89,0,0,1-.64-.27.91.91,0,0,1,0-1.29L52,10.51a.91.91,0,0,1,1.29,1.29l-6.11,6.09A.91.91,0,0,1,46.51,18.16Z"/><path class="cls-3" d="M17.17,18.16a.9.9,0,0,1-.64-.27L10.42,11.8a.91.91,0,0,1,1.29-1.29l6.11,6.09a.92.92,0,0,1-.65,1.56Z"/><path class="cls-3" d="M11.12,53.48a.92.92,0,0,1-.65-1.56l6.11-6.09a.92.92,0,0,1,1.29,1.3l-6.11,6.09A.93.93,0,0,1,11.12,53.48Z"/><path class="cls-3" d="M31.9,18.16a.92.92,0,0,1-.92-.92V10a.92.92,0,1,1,1.83,0v7.24A.92.92,0,0,1,31.9,18.16Z"/><path class="cls-3" d="M31.86,10.24A4.21,4.21,0,1,1,36.07,6,4.21,4.21,0,0,1,31.86,10.24Zm0-6.58A2.38,2.38,0,1,0,34.24,6,2.37,2.37,0,0,0,31.86,3.66Z"/><path class="cls-3" d="M31.9,54.85a.92.92,0,0,1-.92-.92V46.69a.92.92,0,1,1,1.83,0v7.24A.92.92,0,0,1,31.9,54.85Z"/><path class="cls-3" d="M31.86,62.1a4.21,4.21,0,1,1,4.21-4.21A4.21,4.21,0,0,1,31.86,62.1Zm0-6.58a2.38,2.38,0,1,0,2.38,2.37A2.37,2.37,0,0,0,31.86,55.52Z"/><path class="cls-3" d="M53.83,32.91H46.58a.92.92,0,0,1,0-1.83h7.25a.92.92,0,0,1,0,1.83Z"/><path class="cls-3" d="M57.79,36.17A4.21,4.21,0,1,1,62,32,4.21,4.21,0,0,1,57.79,36.17Zm0-6.58A2.38,2.38,0,1,0,60.17,32,2.37,2.37,0,0,0,57.79,29.59Z"/><path class="cls-3" d="M17.14,32.91H9.9a.92.92,0,1,1,0-1.83h7.24a.92.92,0,1,1,0,1.83Z"/><path class="cls-3" d="M5.93,36.17A4.21,4.21,0,1,1,10.14,32,4.21,4.21,0,0,1,5.93,36.17Zm0-6.58A2.38,2.38,0,1,0,8.31,32,2.37,2.37,0,0,0,5.93,29.59Z"/></g></g></svg>