<svg xmlns="http://www.w3.org/2000/svg" viewBox="0 0 50 52.64"><defs><style>.cls-1{fill:#3f4244;}.cls-2{fill:#f4cd36;}.cls-3{fill:#fff;}</style></defs><title>Recurso 2_icon_</title><g id="Capa_2" data-name="Capa 2"><g id="Capa_1-2" data-name="Capa 1"><path class="cls-1" d="M3.68,39.85c0,.63.36,2.31,2.74,6.54.61,1.09,1.21,2.08,1.64,2.77.43-.69,1-1.68,1.63-2.77,2.36-4.23,2.72-5.91,2.72-6.53a.13.13,0,0,1,0-.06,4.37,4.37,0,0,0-4.37-4.32h0A4.37,4.37,0,0,0,3.68,39.85Zm4.37-3.61A3.07,3.07,0,1,1,5,39.31,3.08,3.08,0,0,1,8.05,36.24Z"/><path class="cls-2" d="M8.05,40.85a1.54,1.54,0,1,0-1.54-1.54A1.54,1.54,0,0,0,8.05,40.85Z"/><path class="cls-2" d="M25.1,1.53A15.76,15.76,0,0,0,9.35,17.28c0,3.84,3.14,11.39,9,21.87,2.84,5,5.57,9.41,6.77,11.3,1.19-1.9,3.9-6.26,6.72-11.3,5.85-10.48,9-18,9-21.84A15.77,15.77,0,0,0,25.1,1.53Zm0,22.21a8.19,8.19,0,1,1,8.18-8.18A8.19,8.19,0,0,1,25.1,23.74Z"/><path class="cls-3" d="M25.1,8.9a6.66,6.66,0,1,0,6.65,6.66A6.67,6.67,0,0,0,25.1,8.9Z"/><path class="cls-2" d="M45.39,17.49a.25.25,0,0,0,0,.08,1.54,1.54,0,0,0,1.54,1.55l.16,0h.05a1.54,1.54,0,1,0-1.73-1.7h0Z"/><path class="cls-1" d="M25.1,7.37a8.19,8.19,0,1,0,8.18,8.19A8.19,8.19,0,0,0,25.1,7.37Zm0,14.84a6.66,6.66,0,1,1,6.65-6.65A6.67,6.67,0,0,1,25.1,22.21Z"/><path class="cls-1" d="M5.81,18.68c0,.07-.07.14-.1.2A1.24,1.24,0,0,0,5.81,18.68Z"/><path class="cls-1" d="M3,20.38a3.07,3.07,0,0,1-.53-.06L7,34.05a5.8,5.8,0,0,1,1-.1,5.25,5.25,0,0,1,.56,0L4.05,20.23l.09,0a3.12,3.12,0,0,1-1.06.2Z"/><path class="cls-1" d="M7.86,16.55H6a2.74,2.74,0,0,1,.11.76,2.93,2.93,0,0,1-.15.9l.06-.13h1.8a6.8,6.8,0,0,1,0-.76C7.82,17.06,7.85,16.81,7.86,16.55Z"/><polygon class="cls-1" points="8.05 35.48 8.05 35.48 8.04 35.48 8.05 35.48 8.05 35.48"/><path class="cls-1" d="M5.4,19.3a1.71,1.71,0,0,1-.11.14A1.71,1.71,0,0,0,5.4,19.3Z"/><polygon class="cls-1" points="45.4 17.4 45.4 17.4 45.39 17.49 45.4 17.4"/><path class="cls-1" d="M44.72,19.71a2.69,2.69,0,0,1-.33-.41A2.69,2.69,0,0,0,44.72,19.71Z"/><circle class="cls-1" cx="42.4" cy="35.5"/><path class="cls-1" d="M44.06,18.68a2.22,2.22,0,0,1-.12-.39A2.22,2.22,0,0,0,44.06,18.68Z"/><path class="cls-1" d="M43.87,17.28v-.05a3.56,3.56,0,0,1,.16-.68h-1.7c0,.24,0,.48,0,.73v0q0,.36,0,.75h1.55a.25.25,0,0,0,0,.07,2.78,2.78,0,0,1-.06-.58A2.83,2.83,0,0,1,43.87,17.28Z"/><path class="cls-1" d="M44.34,19.23a2.52,2.52,0,0,1-.21-.4A2.52,2.52,0,0,0,44.34,19.23Z"/><path class="cls-1" d="M46.92,20.65a3.15,3.15,0,0,1-1.18-.24,2.47,2.47,0,0,0,.46.15L41.84,34l.56,0a5.69,5.69,0,0,1,1,.09L47.83,20.5a2.68,2.68,0,0,1-.49.11A3.66,3.66,0,0,1,46.92,20.65Z"/><path class="cls-1" d="M45.14,20.07a2.66,2.66,0,0,1-.31-.26A2.66,2.66,0,0,0,45.14,20.07Z"/><path class="cls-1" d="M45.67,20.37a3,3,0,0,1-.4-.21A3,3,0,0,0,45.67,20.37Z"/><path class="cls-1" d="M40.84,17.31a.77.77,0,0,1,.77-.76h.73a17.25,17.25,0,0,0-34.48,0h.72a.77.77,0,1,1,0,1.53H7.86c.35,4.27,3.44,11.6,9.19,21.82,3.81,6.77,7.42,12.33,7.46,12.39a.75.75,0,0,0,.64.35h0a.75.75,0,0,0,.64-.35c0-.06,3.63-5.63,7.41-12.39C38.92,29.66,42,22.33,42.34,18.08h-.73A.77.77,0,0,1,40.84,17.31Zm-9,21.84c-2.82,5-5.53,9.4-6.72,11.3-1.2-1.89-3.93-6.26-6.77-11.3-5.89-10.48-9-18-9-21.87a15.75,15.75,0,1,1,31.49,0C40.83,21.12,37.72,28.67,31.87,39.15Z"/><path class="cls-1" d="M9.35,17.31a.76.76,0,0,0-.77-.76H7.86c0,.26,0,.51,0,.77a6.8,6.8,0,0,0,0,.76h.72A.76.76,0,0,0,9.35,17.31Z"/><path class="cls-1" d="M42.37,17.28c0-.25,0-.49,0-.73h-.73a.77.77,0,1,0,0,1.53h.73q0-.39,0-.75Z"/><path class="cls-2" d="M8.05,42.38A3.07,3.07,0,1,0,5,39.31,3.07,3.07,0,0,0,8.05,42.38Zm0-4.61a1.54,1.54,0,1,1-1.54,1.54A1.54,1.54,0,0,1,8.05,37.77Z"/><path class="cls-1" d="M8.29,35.44a.67.67,0,0,1-.24,0,4.37,4.37,0,0,1,4.37,4.32.13.13,0,0,0,0,.06c0,.62-.36,2.3-2.72,6.53-.61,1.09-1.2,2.08-1.63,2.77-.43-.69-1-1.68-1.64-2.77C4,42.16,3.68,40.48,3.68,39.85a4.37,4.37,0,0,1,4.37-4.37A.77.77,0,0,1,7.32,35L7,34.05a5.91,5.91,0,0,0-4.87,5.81c0,1.38,1,3.83,2.94,7.28C6.28,49.26,7.41,51,7.42,51a.78.78,0,0,0,.64.35h0A.81.81,0,0,0,8.71,51S9.84,49.25,11,47.14c1.93-3.46,2.91-5.9,2.91-7.23v-.06A5.91,5.91,0,0,0,8.61,34l.16.5A.76.76,0,0,1,8.29,35.44Z"/><path class="cls-1" d="M7,34.05l.3.91a.77.77,0,0,0,.73.52h0a.67.67,0,0,0,.24,0,.76.76,0,0,0,.48-1L8.61,34a5.25,5.25,0,0,0-.56,0A5.8,5.8,0,0,0,7,34.05Z"/><path class="cls-2" d="M41.84,34l-.17.5a.77.77,0,0,0,.5,1,.85.85,0,0,0,.23,0h0a.76.76,0,0,0,.73-.52l.29-.91a5.69,5.69,0,0,0-1-.09Z"/><path class="cls-1" d="M6,18.21a2.43,2.43,0,0,1-.19.47A2.43,2.43,0,0,0,6,18.21Z"/><path class="cls-1" d="M2.43,19.17a.74.74,0,0,1,.62-.31h0a1.55,1.55,0,1,1,1.56-1.55.76.76,0,0,1,.77-.76H6a3.07,3.07,0,1,0-3.57,3.77l-.15-.46A.75.75,0,0,1,2.43,19.17Z"/><path class="cls-1" d="M5.71,18.88a3.25,3.25,0,0,1-.31.42A2.53,2.53,0,0,0,5.71,18.88Z"/><path class="cls-1" d="M6,16.55H5.39a.76.76,0,0,0-.77.76,1.5,1.5,0,0,1-.26.86,1.53,1.53,0,0,1-1.25.69H3.05a.76.76,0,0,0-.73,1l.15.46a3.07,3.07,0,0,0,.53.06h.08a3.12,3.12,0,0,0,1.06-.2,2.92,2.92,0,0,0,.5-.25l.12-.06a3.26,3.26,0,0,0,.53-.44,1.71,1.71,0,0,0,.11-.14,3.25,3.25,0,0,0,.31-.42c0-.06.07-.13.1-.2A2.43,2.43,0,0,0,6,18.21a2.93,2.93,0,0,0,.15-.9A2.74,2.74,0,0,0,6,16.55Z"/><path class="cls-1" d="M44.83,19.81l-.11-.1Z"/><path class="cls-1" d="M45.74,20.41l-.07,0Z"/><path class="cls-1" d="M45.27,20.16l-.13-.09Z"/><path class="cls-1" d="M43.94,18.29l0-.14Z"/><path class="cls-1" d="M44.13,18.83a1,1,0,0,1-.07-.15A1,1,0,0,0,44.13,18.83Z"/><path class="cls-1" d="M46.92,14.5A3.07,3.07,0,0,0,44,16.55h.6a.76.76,0,0,1,.57.25.78.78,0,0,1,.19.6h0a1.54,1.54,0,1,1,1.73,1.7h0a.76.76,0,0,1,.83,1l-.13.41a3.07,3.07,0,0,0-.91-6Z"/><path class="cls-1" d="M44.39,19.3l0-.07Z"/><path class="cls-1" d="M47.82,19.36a.75.75,0,0,0-.69-.26h-.05l-.16,0a1.54,1.54,0,0,1-1.54-1.55.25.25,0,0,1,0-.08V17.4a.78.78,0,0,0-.19-.6.76.76,0,0,0-.57-.25H44a3.56,3.56,0,0,0-.16.68v.05a2.83,2.83,0,0,0,0,.29,2.78,2.78,0,0,0,.06.58l0,.14a2.22,2.22,0,0,0,.12.39,1,1,0,0,0,.07.15,2.52,2.52,0,0,0,.21.4l0,.07a2.69,2.69,0,0,0,.33.41l.11.1a2.66,2.66,0,0,0,.31.26l.13.09a3,3,0,0,0,.4.21l.07,0a3.15,3.15,0,0,0,1.18.24,3.66,3.66,0,0,0,.42,0,2.68,2.68,0,0,0,.49-.11l.13-.41A.75.75,0,0,0,47.82,19.36Z"/><path class="cls-2" d="M38,39.87c0,.63.37,2.31,2.75,6.54.61,1.09,1.21,2.08,1.64,2.78.42-.7,1-1.69,1.63-2.78,2.36-4.23,2.72-5.91,2.72-6.53v-.05A4.37,4.37,0,0,0,42.4,35.5h0A4.38,4.38,0,0,0,38,39.87Zm4.37-3.6a3.07,3.07,0,1,1-3.07,3.07A3.07,3.07,0,0,1,42.4,36.27Z"/><path class="cls-1" d="M42.4,40.88a1.54,1.54,0,1,0-1.54-1.54A1.54,1.54,0,0,0,42.4,40.88Z"/><path class="cls-1" d="M42.4,42.41a3.07,3.07,0,1,0-3.07-3.07A3.08,3.08,0,0,0,42.4,42.41Zm0-4.61a1.54,1.54,0,1,1-1.54,1.54A1.54,1.54,0,0,1,42.4,37.8Z"/><path class="cls-2" d="M42.4,35.5a4.37,4.37,0,0,1,4.37,4.33v.05c0,.62-.36,2.3-2.72,6.53-.61,1.09-1.21,2.08-1.63,2.78-.43-.7-1-1.69-1.64-2.78C38.4,42.18,38,40.5,38,39.87A4.38,4.38,0,0,1,42.4,35.5a.85.85,0,0,1-.23,0,.77.77,0,0,1-.5-1l.17-.5a5.91,5.91,0,0,0-5.33,5.89c0,1.37,1,3.82,2.93,7.27C40.63,49.28,41.77,51,41.78,51a.75.75,0,0,0,.64.35h0a.75.75,0,0,0,.64-.35s1.14-1.76,2.32-3.88c1.93-3.45,2.91-5.9,2.92-7.23v-.06a5.9,5.9,0,0,0-4.88-5.8l-.29.91A.76.76,0,0,1,42.4,35.5Z"/></g></g></svg>