<svg xmlns="http://www.w3.org/2000/svg" viewBox="0 0 50 61.19"><defs><style>.cls-1{fill:#3d3f41;}.cls-2{fill:#f4cd36;}</style></defs><title>Recurso 17_icon_</title><g id="Capa_2" data-name="Capa 2"><g id="Capa_1-2" data-name="Capa 1"><path class="cls-1" d="M27.48,21.93a.88.88,0,0,0,.83-.61l1-3.19,3.19,1a.88.88,0,0,0,.54-1.67l-4-1.31a.9.9,0,0,0-1.11.57l-1.3,4a.87.87,0,0,0,.57,1.1A.86.86,0,0,0,27.48,21.93Z"/><path class="cls-2" d="M21.85,40.33a2.74,2.74,0,0,1-2-1,2.78,2.78,0,0,1-.56-2.21l0-.15a1,1,0,0,0-.65-1.11c-.44-.14-.88-.3-1.31-.48a1,1,0,0,0-1.22.43l-.07.13a2.76,2.76,0,0,1-4.06.82,15.5,15.5,0,0,1-1.32-1.11,2.74,2.74,0,0,1-.88-2.09,2.79,2.79,0,0,1,1-2.05l.12-.09a1,1,0,0,0,.21-1.28,12.88,12.88,0,0,1-.69-1.2,1,1,0,0,0-1.21-.45l-.06,0a2.74,2.74,0,0,1-2.32-.2A2.69,2.69,0,0,1,5.52,26.4c-.1-.54-.18-1.08-.25-1.58A2.76,2.76,0,0,1,8,21.69H8a1,1,0,0,0,1-.82H9a12.63,12.63,0,0,1,.26-1.39,1,1,0,0,0-.64-1.14l-.14-.05A2.76,2.76,0,0,1,6.88,16.7,2.81,2.81,0,0,1,7,14.43a17.13,17.13,0,0,1,.88-1.49,2.76,2.76,0,0,1,4.09-.6l.12.1a1,1,0,0,0,1.29,0c.34-.31.69-.6,1.06-.88a1,1,0,0,0,.24-1.27l-.07-.13a2.77,2.77,0,0,1,1.32-3.93C16.47,6,17,5.8,17.57,5.63a2.76,2.76,0,0,1,2.24.29,2.8,2.8,0,0,1,1.28,1.89l0,.14a1,1,0,0,0,1,.82c.43,0,.87,0,1.3,0A1,1,0,0,0,24.49,8l0-.13A2.79,2.79,0,0,1,25.8,5.94a2.74,2.74,0,0,1,2.25-.27c.55.17,1.1.37,1.63.59A2.76,2.76,0,0,1,31,10.2l-.07.12a1,1,0,0,0,.23,1.28c.37.28.72.58,1.06.89a1,1,0,0,0,1.29,0l.11-.09a2.76,2.76,0,0,1,4.1.62,15.76,15.76,0,0,1,.86,1.5,2.74,2.74,0,0,1,.11,2.26A2.78,2.78,0,0,1,37,18.38l-.14.05a1,1,0,0,0-.64,1.13,13.73,13.73,0,0,1,.32,2.2h1a2.77,2.77,0,0,1,2.74,3.1c-.07.57-.18,1.15-.3,1.71a2.77,2.77,0,0,1-3.64,2l-.15-.05a1,1,0,0,0-1.21.45c-.21.4-.44.81-.69,1.19a1,1,0,0,0,.21,1.28l.12.1a2.76,2.76,0,0,1,.1,4.13c-.43.39-.87.77-1.33,1.11a2.77,2.77,0,0,1-2.21.51,2.81,2.81,0,0,1-1.85-1.33l-.07-.13a1,1,0,0,0-1.22-.44c-.43.18-.86.34-1.31.48A1,1,0,0,0,26.16,37l0,.15a2.79,2.79,0,0,1-.57,2.21,2.72,2.72,0,0,1-2,1l-.88,0Zm9-5.41.08.13a1,1,0,0,0,1.47.3c.41-.31.81-.65,1.19-1a.93.93,0,0,0,.32-.75,1,1,0,0,0-.36-.75l-.11-.1a2.73,2.73,0,0,1-.56-3.57c.22-.34.42-.69.61-1.05a2.73,2.73,0,0,1,3.38-1.29l.14.05a1,1,0,0,0,.83-.06,1,1,0,0,0,.49-.65c.12-.51.21-1,.28-1.54a1,1,0,0,0-.25-.78,1,1,0,0,0-.75-.35H35.73a.87.87,0,0,1-.88-.88v-.05a11.64,11.64,0,0,0-.3-2.62,2.73,2.73,0,0,1,1.75-3.18l.14-.05a1,1,0,0,0,.59-.58,1,1,0,0,0,0-.82c-.24-.46-.5-.92-.78-1.35a1,1,0,0,0-.69-.45,1,1,0,0,0-.8.22l-.11.1A2.76,2.76,0,0,1,31,13.78a9.73,9.73,0,0,0-.92-.78,2.74,2.74,0,0,1-.69-3.56l.07-.13a1,1,0,0,0,.09-.82A1,1,0,0,0,29,7.88c-.48-.2-1-.38-1.46-.54a1,1,0,0,0-.82.1,1.05,1.05,0,0,0-.47.69l0,.13a2.78,2.78,0,0,1-2.9,2.27,10.28,10.28,0,0,0-1.11,0,2.74,2.74,0,0,1-2.83-2.29l0-.13a1,1,0,0,0-.47-.69,1,1,0,0,0-.81-.1,15.07,15.07,0,0,0-1.47.52,1,1,0,0,0-.48,1.43l.07.13A2.73,2.73,0,0,1,15.5,13c-.32.25-.64.51-.93.78a2.75,2.75,0,0,1-3.62,0l-.11-.1a1,1,0,0,0-.8-.22,1,1,0,0,0-.69.44c-.28.43-.55.88-.79,1.34a1,1,0,0,0,0,.82,1,1,0,0,0,.59.58l.14.05A2.75,2.75,0,0,1,11,19.88c-.1.4-.17.81-.23,1.21h0A2.75,2.75,0,0,1,8,23.45a1,1,0,0,0-.76.34,1,1,0,0,0-.24.79c.06.48.14,1,.23,1.51a1,1,0,0,0,.48.67,1,1,0,0,0,.85.07l.06,0A2.75,2.75,0,0,1,12,28.12a10.77,10.77,0,0,0,.6,1,2.73,2.73,0,0,1-.56,3.57l-.12.1a1,1,0,0,0-.36.75,1,1,0,0,0,.32.75c.38.35.78.69,1.19,1a1,1,0,0,0,1.48-.3l.07-.13a2.73,2.73,0,0,1,3.43-1.16c.37.15.75.29,1.13.41a2.73,2.73,0,0,1,1.87,3.1l0,.15a1,1,0,0,0,.21.81.92.92,0,0,0,.7.36,14.41,14.41,0,0,0,1.61,0,1,1,0,0,0,.7-.36,1,1,0,0,0,.21-.81l0-.15a2.74,2.74,0,0,1,1.87-3.09,12,12,0,0,0,1.14-.42,2.68,2.68,0,0,1,1-.21A2.76,2.76,0,0,1,30.86,34.92Z"/><path class="cls-1" d="M8.49,59V56.36a.91.91,0,0,1,0-.17V49A27.76,27.76,0,0,0,3.71,33.23,21.06,21.06,0,0,1,0,21.26C0,11,6.15,0,23.41,0c6.51,0,12.17,2.1,15.92,5.93,3.49,3.55,5.28,8.54,5.17,14.41,0,.42,0,.91-.06,1.4A5.77,5.77,0,0,0,45.1,25c.65,1.24,1.8,3.4,4.52,8.52A2.91,2.91,0,0,1,47,37.9L44.34,38c0,.47-.05.88-.08,1.25a43.26,43.26,0,0,0,0,5.25c.11,2.81-.28,4.45-1.29,5.5s-2.33,1.39-4.59,1.39h-6V59a2.35,2.35,0,0,1-2.44,2.22H10.93A2.34,2.34,0,0,1,8.49,59ZM1.76,21.26a19.3,19.3,0,0,0,3.4,11A29.51,29.51,0,0,1,10.26,49v7.35a.56.56,0,0,0,0,.07V59c0,.22.28.46.68.46H29.84c.4,0,.68-.24.68-.46V50.46a.88.88,0,0,1,.88-.88h6.93c1.74,0,2.76-.26,3.33-.84s.88-2,.79-4.22a43.62,43.62,0,0,1,.06-5.42c0-.57.07-1.22.11-2.06a.88.88,0,0,1,.87-.83L47,36.14a1.16,1.16,0,0,0,1.09-1.78c-2.73-5.13-3.87-7.29-4.53-8.53a7.6,7.6,0,0,1-.85-4.25c0-.44.05-.89.06-1.27.1-5.47-1.48-9.89-4.68-13.15-3.42-3.49-8.62-5.4-14.66-5.4C10.05,1.76,1.76,9.23,1.76,21.26Z"/><path class="cls-1" d="M22.56,32a9.09,9.09,0,0,0,7.61-14A.88.88,0,0,0,29,17.73a.87.87,0,0,0-.26,1.21,7.32,7.32,0,1,1-6.13-3.33.88.88,0,1,0,0-1.75,9.08,9.08,0,1,0,0,18.15Z"/></g></g></svg>