<svg xmlns="http://www.w3.org/2000/svg" viewBox="0 0 50 49.61"><defs><style>.cls-1{fill:#f4cd36;}.cls-2{fill:#2e3233;}</style></defs><title>Recurso 7_icon_</title><g id="Capa_2" data-name="Capa 2"><g id="Capa_1-2" data-name="Capa 1"><path class="cls-1" d="M15.43,40.32h-5a4.57,4.57,0,0,0,8.2-1,.73.73,0,0,1,.73-.5l19.14.91a1.8,1.8,0,0,0,1.37-.51,1.84,1.84,0,0,0,.58-1.35v0a1.84,1.84,0,0,0-.58-1.35A1.8,1.8,0,0,0,38.47,36l-19.14.91a.74.74,0,0,1-.73-.5,4.57,4.57,0,0,0-8.2-1h5a.74.74,0,0,1,.74.74v3.43A.74.74,0,0,1,15.43,40.32Z"/><path class="cls-1" d="M5.83,48.14H44.18a4.37,4.37,0,0,0,4.36-4.36V25.63H44.08v1.3a2.65,2.65,0,0,1-2.65,2.65H36.19a2.65,2.65,0,0,1-2.65-2.65v-1.3H17.12v1.3a2.65,2.65,0,0,1-2.65,2.65H9.22a2.65,2.65,0,0,1-2.64-2.65v-1.3H1.47V43.78A4.36,4.36,0,0,0,5.83,48.14ZM9.24,36.88a.73.73,0,0,1-.69-1,6,6,0,0,1,11.24-.51l18.61-.89a3.32,3.32,0,0,1,2.46.91,3.35,3.35,0,0,1,1,2.42v0a3.35,3.35,0,0,1-1,2.42,3.3,3.3,0,0,1-2.46.91l-18.61-.89a6,6,0,0,1-11.24-.51.73.73,0,0,1,.69-1H14.7v-2Z"/><path class="cls-2" d="M9.24,38.85a.73.73,0,0,0-.69,1,6,6,0,0,0,11.24.51l18.61.89a3.3,3.3,0,0,0,2.46-.91,3.35,3.35,0,0,0,1-2.42v0a3.35,3.35,0,0,0-1-2.42,3.32,3.32,0,0,0-2.46-.91l-18.61.89a6,6,0,0,0-11.24.51.73.73,0,0,0,.69,1H14.7v2Zm6.19-3.44h-5a4.57,4.57,0,0,1,8.2,1,.74.74,0,0,0,.73.5L38.47,36a1.8,1.8,0,0,1,1.37.51,1.84,1.84,0,0,1,.58,1.35v0a1.84,1.84,0,0,1-.58,1.35,1.8,1.8,0,0,1-1.37.51l-19.14-.91a.73.73,0,0,0-.73.5,4.57,4.57,0,0,1-8.2,1h5a.74.74,0,0,0,.74-.74V36.15A.74.74,0,0,0,15.43,35.41Z"/><path class="cls-2" d="M49.27,25.63h-.73V43.78a4.37,4.37,0,0,1-4.36,4.36H5.83a4.36,4.36,0,0,1-4.36-4.36V25.63H.73A.73.73,0,0,1,0,24.9V43.78a5.84,5.84,0,0,0,5.83,5.83H44.18A5.83,5.83,0,0,0,50,43.78V24.9A.73.73,0,0,1,49.27,25.63Z"/><path class="cls-2" d="M44.18,7.78H35.64v.73a.74.74,0,0,1-.73.74h9.27a4.36,4.36,0,0,1,4.36,4.36V24.16h.73a.73.73,0,0,1,.73.74V13.61A5.83,5.83,0,0,0,44.18,7.78Z"/><path class="cls-2" d="M.73,24.16h.74V13.61A4.36,4.36,0,0,1,5.83,9.25h9.66a.73.73,0,0,1-.73-.74V7.78H5.83A5.83,5.83,0,0,0,0,13.61V24.9A.74.74,0,0,1,.73,24.16Z"/><path class="cls-2" d="M33.35,0H17a2.29,2.29,0,0,0-2.28,2.29V8.51a.73.73,0,0,0,.73.74H34.91a.74.74,0,0,0,.73-.74V2.29A2.3,2.3,0,0,0,33.35,0ZM31.07,7.78H19.33V4.58H31.07Z"/><path class="cls-2" d="M49.27,24.16H43.35a.74.74,0,0,0-.74.74v2a1.18,1.18,0,0,1-1.18,1.18H36.19A1.18,1.18,0,0,1,35,26.93v-2a.74.74,0,0,0-.74-.74H16.38a.74.74,0,0,0-.73.74v2a1.18,1.18,0,0,1-1.18,1.18H9.22a1.17,1.17,0,0,1-1.17-1.18v-2a.74.74,0,0,0-.74-.74H.73a.74.74,0,0,0,0,1.47H6.58v1.3a2.65,2.65,0,0,0,2.64,2.65h5.25a2.65,2.65,0,0,0,2.65-2.65v-1.3H33.54v1.3a2.65,2.65,0,0,0,2.65,2.65h5.24a2.65,2.65,0,0,0,2.65-2.65v-1.3h5.19a.74.74,0,0,0,0-1.47Z"/></g></g></svg>