<svg xmlns="http://www.w3.org/2000/svg" viewBox="0 0 50 49.3"><defs><style>.cls-1{fill:none;}.cls-2{fill:#f4cd36;}.cls-3{fill:#3f4244;}</style></defs><title>Recurso 10_icon_</title><g id="Capa_2" data-name="Capa 2"><g id="Capa_1-2" data-name="Capa 1"><path class="cls-1" d="M12.63,24.35h.72V10.61H37.64v14a.69.69,0,0,1,.17.44v7.82H40A8.53,8.53,0,0,0,41.81,16a.71.71,0,0,1-.56-.66,9.56,9.56,0,0,0-11.76-8.8.72.72,0,0,1-.78-.34A9.6,9.6,0,0,0,10.8,11.05a9.35,9.35,0,0,0,.77,3.77.74.74,0,0,1-.06.68.73.73,0,0,1-.6.32H10a8.54,8.54,0,1,0,0,17.07h1.94V25.07A.72.72,0,0,1,12.63,24.35Z"/><path class="cls-2" d="M33.58,25.79H13.35V47.87h23V25.79Zm-5.2,16a.73.73,0,0,1-.69.94H22a.72.72,0,0,1-.58-.3.73.73,0,0,1-.1-.64l1.19-3.69a3.9,3.9,0,0,1-1.68-3.21,4,4,0,0,1,8,0,3.88,3.88,0,0,1-1.69,3.21Z"/><path class="cls-2" d="M21.73,13.75H28a3.71,3.71,0,0,1,3.73,3.68v6.92h1.14V17.43A4.83,4.83,0,0,0,28,12.65H21.73a4.83,4.83,0,0,0-4.87,4.78v6.92H18V17.43A3.71,3.71,0,0,1,21.73,13.75Z"/><path class="cls-3" d="M28.87,34.89a4,4,0,0,0-8,0,3.9,3.9,0,0,0,1.68,3.21l-1.19,3.69a.73.73,0,0,0,.1.64.72.72,0,0,0,.58.3h5.67a.73.73,0,0,0,.69-.94l-1.2-3.69A3.88,3.88,0,0,0,28.87,34.89ZM26,37.14a.71.71,0,0,0-.37.86l1.07,3.29H23L24.07,38a.7.7,0,0,0-.36-.86,2.52,2.52,0,0,1-1.43-2.25,2.58,2.58,0,0,1,5.15,0A2.51,2.51,0,0,1,26,37.14Z"/><path class="cls-3" d="M21.73,15.19H28a2.27,2.27,0,0,1,2.29,2.24v6.92h1.44V17.43A3.71,3.71,0,0,0,28,13.75H21.73A3.71,3.71,0,0,0,18,17.43v6.92h1.44V17.43A2.26,2.26,0,0,1,21.73,15.19Z"/><path class="cls-3" d="M16.86,17.43a4.83,4.83,0,0,1,4.87-4.78H28a4.83,4.83,0,0,1,4.87,4.78v6.92h1.43V17.43A6.26,6.26,0,0,0,28,11.21H21.73a6.27,6.27,0,0,0-6.31,6.22v6.92h1.44Z"/><path class="cls-3" d="M42.63,14.73a11,11,0,0,0-11-9.87,10.47,10.47,0,0,0-2,.19,11,11,0,0,0-20.31,6,10.79,10.79,0,0,0,.52,3.34A10,10,0,0,0,10,34.33h1.94V32.89H10a8.54,8.54,0,1,1,0-17.07h.94a.73.73,0,0,0,.6-.32.74.74,0,0,0,.06-.68,9.35,9.35,0,0,1-.77-3.77A9.6,9.6,0,0,1,28.71,6.21a.72.72,0,0,0,.78.34,9.56,9.56,0,0,1,11.76,8.8.71.71,0,0,0,.56.66A8.53,8.53,0,0,1,40,32.89H37.81v1.44H40a10,10,0,0,0,2.6-19.6Z"/><path class="cls-3" d="M37.64,49a.73.73,0,0,0,.17-.44V34.33h-.17Z"/><path class="cls-3" d="M13.35,33.61a.72.72,0,0,1-.72.72h-.72V48.59a.71.71,0,0,0,.72.71h.72V33.61Z"/><path class="cls-3" d="M37.09,34.33a.72.72,0,0,1-.72-.72V47.87h-23V49.3H37.09a.7.7,0,0,0,.55-.27V34.33Z"/><path class="cls-3" d="M37.81,25.07a.69.69,0,0,0-.17-.44v9.7h.17V25.07Z"/><path class="cls-3" d="M13.35,33.61V24.35h-.72a.72.72,0,0,0-.72.72v9.26h.72A.72.72,0,0,0,13.35,33.61Z"/><path class="cls-3" d="M15.47,25.32H13.35v.47h2.79A.73.73,0,0,1,15.47,25.32Z"/><path class="cls-3" d="M30.33,25.32H19.38a.71.71,0,0,1-.66.47H31A.73.73,0,0,1,30.33,25.32Z"/><path class="cls-3" d="M33.58,25.79h2.79v7.82a.72.72,0,0,0,.72.72h.55v-9h-3.4A.71.71,0,0,1,33.58,25.79Z"/><path class="cls-3" d="M37.09,24.35h-2.8V25h3.35v-.38A.71.71,0,0,0,37.09,24.35Z"/><rect class="cls-3" x="19.44" y="24.35" width="10.85" height="0.65"/><rect class="cls-3" x="13.35" y="24.35" width="2.08" height="0.65"/><path class="cls-3" d="M19.38,25.32h11a.66.66,0,0,1,0-.25V25H19.44v.06A.66.66,0,0,1,19.38,25.32Z"/><path class="cls-3" d="M15.42,25.07V25H13.35v.31h2.12A.66.66,0,0,1,15.42,25.07Z"/><path class="cls-3" d="M34.29,25.07a.66.66,0,0,1,0,.25h3.4V25H34.29Z"/><path class="cls-3" d="M31,25.79h2.58a.71.71,0,0,0,.66-.47H30.33A.73.73,0,0,0,31,25.79Z"/><path class="cls-3" d="M19.38,25.32H15.47a.73.73,0,0,0,.67.47h2.58A.71.71,0,0,0,19.38,25.32Z"/><polygon class="cls-3" points="31.72 24.35 30.28 24.35 30.28 25.01 34.29 25.01 34.29 24.35 32.86 24.35 31.72 24.35"/><polygon class="cls-3" points="19.43 25.01 19.43 24.35 18 24.35 16.86 24.35 15.42 24.35 15.42 25.01 19.43 25.01"/><path class="cls-3" d="M19.44,25.07V25h-4v.06a.66.66,0,0,0,.05.25h3.91A.66.66,0,0,0,19.44,25.07Z"/><path class="cls-3" d="M30.28,25.07a.66.66,0,0,0,0,.25h3.91a.66.66,0,0,0,0-.25V25h-4Z"/></g></g></svg>