<svg xmlns="http://www.w3.org/2000/svg" viewBox="0 0 50 51.36"><defs><style>.cls-1,.cls-5{fill:none;}.cls-2{fill:#f4cd36;}.cls-3{fill:#fff;}.cls-4{fill:#3f4244;}.cls-5{stroke:#3d3f41;stroke-miterlimit:10;stroke-width:0.5px;}</style></defs><title>Recurso 8_icon_</title><g id="Capa_2" data-name="Capa 2"><g id="Capa_1-2" data-name="Capa 1"><path class="cls-1" d="M48.48,16.76V6.55H36.61A23.17,23.17,0,0,1,48.48,16.76Z"/><path class="cls-1" d="M20.13,6.55H1.48v28H6.17a23,23,0,0,1,14-28Z"/><polygon class="cls-1" points="48.52 5.01 48.52 1.48 1.52 1.48 1.52 5.01 28.37 5.01 48.52 5.01"/><path class="cls-2" d="M31.42,16.41a.74.74,0,0,1-.74-.74v-1.2H19.44v1.2a.74.74,0,0,1-.74.74H13.63V41.56A4.28,4.28,0,0,0,16,45.39l9,4.4,9-4.4a4.28,4.28,0,0,0,2.4-3.83V16.41Zm1.09,16.06a.74.74,0,0,1-.74.74H27.5v4.27a.74.74,0,0,1-.74.74H23.2a.74.74,0,0,1-.74-.74V33.21H18.19a.74.74,0,0,1-.74-.74V28.92a.74.74,0,0,1,.74-.74h4.27V23.9a.74.74,0,0,1,.74-.74h3.56a.74.74,0,0,1,.74.74v4.28h4.27a.74.74,0,0,1,.74.74Z"/><path class="cls-3" d="M26,28.92V24.65H24v4.27a.75.75,0,0,1-.75.74H18.93v2.07H23.2a.75.75,0,0,1,.75.74v4.27H26V32.47a.74.74,0,0,1,.74-.74H31V29.66H26.76A.74.74,0,0,1,26,28.92Z"/><path class="cls-4" d="M20.28,6.5H1.48v0H20.13Z"/><path class="cls-4" d="M48.48,6.55v0h-12l.16,0Z"/><path class="cls-4" d="M.74,5h.78V1.48h47V5h.7a.75.75,0,0,1,.74.75V6a.58.58,0,0,0,0-.19V.74A.74.74,0,0,0,49.26,0H.78A.74.74,0,0,0,0,.74V5.57A.73.73,0,0,1,.74,5Z"/><path class="cls-4" d="M36.61,6.55l-.16,0H20.28l-.15,0Z"/><path class="cls-4" d="M49.26,6.55h-.78V16.76A23.73,23.73,0,0,1,50,20V6A.72.72,0,0,1,49.26,6.55Z"/><path class="cls-4" d="M1.48,34.51v-28H.78A.74.74,0,0,1,0,5.81V5.57a.58.58,0,0,0,0,.19V35.25A.74.74,0,0,0,.74,36H6.66c-.18-.48-.34-1-.49-1.48Z"/><path class="cls-4" d="M29.47,5.07H48.52V5H28.37C28.74,5,29.1,5.05,29.47,5.07Z"/><path class="cls-4" d="M1.52,5v.06H27.27c.37,0,.73-.06,1.1-.06Z"/><path class="cls-4" d="M45.44,35.86l-.12.08A.5.5,0,0,0,45.44,35.86Z"/><path class="cls-4" d="M28.37,5c-.37,0-.73,0-1.1.06h2.2C29.1,5.05,28.74,5,28.37,5Z"/><path class="cls-4" d="M12.15,34.51h-6c.15.5.31,1,.49,1.48h5.49Z"/><path class="cls-4" d="M48.48,30.51h.74a.74.74,0,0,1,.69.46.75.75,0,0,1,0,.33s0,0,0-.05V20a23.73,23.73,0,0,0-1.48-3.19Z"/><path class="cls-4" d="M45.56,35.78Z"/><path class="cls-4" d="M49.91,31.49a.64.64,0,0,1,0,.07A.64.64,0,0,0,49.91,31.49Z"/><path class="cls-4" d="M49.77,31.74l0,0Z"/><path class="cls-4" d="M44.3,35.25v-.74H38V36H45a.74.74,0,0,1-.74-.74Z"/><path class="cls-4" d="M.78,6.55h.7v0h18.8a22.83,22.83,0,0,1,7-1.43H1.52V5H.74a.73.73,0,0,0-.7.56v.24A.74.74,0,0,0,.78,6.55Z"/><path class="cls-4" d="M49.22,5h-.7v.06H29.47a22.77,22.77,0,0,1,7,1.43h12v0h.78A.72.72,0,0,0,50,6V5.76A.75.75,0,0,0,49.22,5Z"/><path class="cls-4" d="M29.47,5.07h-2.2a22.83,22.83,0,0,0-7,1.43H36.45A22.77,22.77,0,0,0,29.47,5.07Z"/><path class="cls-4" d="M49.89,31.56a1.4,1.4,0,0,1-.12.18A1.4,1.4,0,0,0,49.89,31.56Z"/><path class="cls-4" d="M45.55,35.79h0a1.25,1.25,0,0,1-.12.08A1.05,1.05,0,0,0,45.55,35.79Z"/><path class="cls-4" d="M50,31.3a.65.65,0,0,1,0,.19A.65.65,0,0,0,50,31.3Z"/><path class="cls-4" d="M47.37,32l-1.59,1.53v1.73a.73.73,0,0,1-.22.53l4.17-4h0a.76.76,0,0,1-.52.21Z"/><path class="cls-4" d="M45.32,35.94A.87.87,0,0,1,45,36,.87.87,0,0,0,45.32,35.94Z"/><path class="cls-4" d="M49.91,31a.74.74,0,0,0-.69-.46H45a.74.74,0,0,0-.74.74v4A.74.74,0,0,0,45,36a.87.87,0,0,0,.28-.05l.12-.08a1.25,1.25,0,0,0,.12-.08h0a.73.73,0,0,0,.22-.53V32h3.44a.76.76,0,0,0,.52-.21l0,0a1.4,1.4,0,0,0,.12-.18.64.64,0,0,0,0-.07.65.65,0,0,0,0-.19A.75.75,0,0,0,49.91,31Z"/><path class="cls-4" d="M24.73,51.28a.8.8,0,0,0,.33.08.72.72,0,0,0,.32-.08l.41-.2q-1.09-.12-2.16-.33Z"/><path class="cls-4" d="M38,41.56V36h-.74a.74.74,0,0,1-.74-.74v6.31a4.28,4.28,0,0,1-2.4,3.83l-9,4.4-9-4.4a4.28,4.28,0,0,1-2.4-3.83V35.25a.74.74,0,0,1-.74.74h-.74v5.57a5.77,5.77,0,0,0,3.23,5.16l8.25,4q1.07.21,2.16.33l9-4.36A5.77,5.77,0,0,0,38,41.56Z"/><path class="cls-4" d="M38,15.67a.74.74,0,0,0-.74-.74H32.16V13.72a.74.74,0,0,0-.74-.74H18.7a.74.74,0,0,0-.74.74v1.21H12.89a.74.74,0,0,0-.74.74V36h.74a.74.74,0,0,0,.74-.74V16.41H18.7a.74.74,0,0,0,.74-.74v-1.2H30.68v1.2a.74.74,0,0,0,.74.74h5.07V35.25a.74.74,0,0,0,.74.74H38V15.67Z"/><path class="cls-4" d="M31.77,28.18H27.5V23.9a.74.74,0,0,0-.74-.74H23.2a.74.74,0,0,0-.74.74v4.28H18.19a.74.74,0,0,0-.74.74v3.55a.74.74,0,0,0,.74.74h4.27v4.27a.74.74,0,0,0,.74.74h3.56a.74.74,0,0,0,.74-.74V33.21h4.27a.74.74,0,0,0,.74-.74V28.92A.74.74,0,0,0,31.77,28.18ZM31,31.73H26.76a.74.74,0,0,0-.74.74v4.27H24V32.47a.75.75,0,0,0-.75-.74H18.93V29.66H23.2a.75.75,0,0,0,.75-.74V24.65H26v4.27a.74.74,0,0,0,.74.74H31Z"/><circle class="cls-5" cx="3.15" cy="3.25" r="0.63"/><circle class="cls-5" cx="5.48" cy="3.25" r="0.63"/><circle class="cls-5" cx="7.8" cy="3.25" r="0.63"/></g></g></svg>